<?xml version="1.0" encoding="UTF-8"?>
<svg width="26px" height="26px" viewBox="0 0 26 26" version="1.1" xmlns="http://www.w3.org/2000/svg" xmlns:xlink="http://www.w3.org/1999/xlink">
    <!-- Generator: Sketch 42 (36781) - http://www.bohemiancoding.com/sketch -->
    <title>Rectangle 5</title>
    <desc>Created with Sketch.</desc>
    <defs></defs>
    <g id="飞行培训" stroke="none" stroke-width="1" fill="none" fill-rule="evenodd">
        <g transform="translate(-57.000000, -330.000000)" id="导航" fill="#FFFFFF">
            <g transform="translate(0.000000, 309.000000)">
                <g id="1" transform="translate(41.000000, 10.105882)">
                    <g id="Page-1" transform="translate(16.000000, 10.129412)">
                        <path d="M22.9245287,21.9559477 L15.9433153,21.9559477 C16.0942526,21.9559477 14.9246093,23.9590164 12.9623034,23.9590164 C10.9999974,23.9590164 9.79237794,21.9559477 9.98104958,21.9559477 L2.99995706,21.9559477 L2.99995706,3.96539611 L9.33956601,3.96539611 C10.8490601,3.96539611 11.9810899,5.32597109 11.9810899,6.95122345 L11.9810899,15.9464992 C11.9810899,16.5134055 12.4716362,16.9291367 12.9621824,16.9291367 C13.4528496,16.9291367 13.9433959,16.4756117 13.9433959,15.9464992 L13.9433959,6.9890172 C13.9433959,5.32597109 15.0755467,4.00318986 16.5849198,4.00318986 L22.9245287,4.00318986 L22.9245287,21.9559477 Z M23.075466,2 L16.6226541,2 C15.11316,2 13.7924586,2.79378987 12.9244481,4.00318986 C12.0942929,2.79378987 10.7358571,2 9.22636303,2 L2.84901975,2 C1.8301929,2 1.00003769,2.90717112 1.00003769,4.00318986 L1.00003769,22.4850602 C1.00003769,23.5810789 1.98113021,23.9969313 2.99995706,23.9969313 L8.99995706,23.9969313 C9.90558093,24.9416539 10.962263,26 12.9999167,26 C15.0376914,26 16.0942526,24.9416539 16.9999974,23.9969313 L22.9999974,23.9969313 C24.0188242,23.9969313 25.0000377,23.6189938 25.0000377,22.4850602 L25.0000377,4.00318986 C24.9244481,2.90717112 24.0942929,2 23.075466,2 L23.075466,2 Z" id="Fill-1"></path>
                    </g>
                </g>
            </g>
        </g>
    </g>
</svg>