<?xml version="1.0" encoding="UTF-8"?>
<svg width="26px" height="27px" viewBox="0 0 26 27" version="1.1" xmlns="http://www.w3.org/2000/svg" xmlns:xlink="http://www.w3.org/1999/xlink">
    <!-- Generator: Sketch 42 (36781) - http://www.bohemiancoding.com/sketch -->
    <title>Rectangle 5</title>
    <desc>Created with Sketch.</desc>
    <defs>
        <path d="M24.2011932,5.05020473 C22.932873,2.37997388 21.4187808,1.02586101 19.7017947,1.02586101 C18.4542921,1.02586101 17.5575816,1.76271268 17.2627174,2.00500794 C16.3411501,2.76210279 14.2180653,5.93125011 14.3122106,8.10069589 C14.3783919,9.62235998 15.1533039,10.3797663 15.6662869,10.8805513 C15.8545774,11.0642971 16.0164576,11.2225053 16.0705212,11.3445873 C16.2814936,11.8269977 17.5373854,12.0129235 14.7938118,14.8435427 C12.8531141,16.7407955 12.5610463,16.3209832 11.973182,16.3209832 C11.7326921,16.3209832 11.542848,16.2577622 11.297076,16.1493833 C11.1749668,16.0955053 11.0171259,15.932937 10.8344281,15.7442083 C10.3354271,15.2290973 9.5807113,14.4498907 8.06382271,14.3835554 C8.01473045,14.3813753 7.96470607,14.3801296 7.91437097,14.3801296 C5.85373902,14.3801296 2.8395366,16.3044772 1.99005413,17.3465337 C1.15735003,18.3686585 0.855650144,19.4256638 1.09303296,20.4895206 C1.41896826,21.948898 2.70468825,23.1983692 5.0235206,24.3089411 C6.01717274,24.7845 7.15623738,25.025861 8.40933277,25.025861 L8.40964348,25.025861 C12.7334906,25.025861 17.0862338,22.9258649 19.9571987,20.0438593 C23.388996,16.5969133 26.5545144,10.0057346 24.2011932,5.05020473 Z" id="path-1"></path>
        <mask id="mask-2" maskContentUnits="userSpaceOnUse" maskUnits="objectBoundingBox" x="0" y="0" width="24" height="24" fill="white">
            <use xlink:href="#path-1"></use>
        </mask>
    </defs>
    <g id="飞行培训" stroke="none" stroke-width="1" fill="none" fill-rule="evenodd">
        <g transform="translate(-293.000000, -329.000000)" id="导航" stroke="#FFFFFF" stroke-width="4" fill-rule="nonzero">
            <g transform="translate(0.000000, 309.000000)">
                <g id="1-copy-2" transform="translate(277.000000, 10.105882)">
                    <g id="电话-(1)" transform="translate(16.000000, 10.117647)">
                        <use id="Shape" mask="url(#mask-2)" xlink:href="#path-1"></use>
                    </g>
                </g>
            </g>
        </g>
    </g>
</svg>