<?xml version="1.0" encoding="UTF-8"?>
<svg width="26px" height="26px" viewBox="0 0 26 26" version="1.1" xmlns="http://www.w3.org/2000/svg" xmlns:xlink="http://www.w3.org/1999/xlink">
    <!-- Generator: Sketch 42 (36781) - http://www.bohemiancoding.com/sketch -->
    <title>Rectangle 5 Copy 4</title>
    <desc>Created with Sketch.</desc>
    <defs></defs>
    <g id="飞行培训" stroke="none" stroke-width="1" fill="none" fill-rule="evenodd">
        <g transform="translate(-176.000000, -330.000000)" id="导航" fill-rule="nonzero" fill="#FFFFFF">
            <g transform="translate(0.000000, 309.000000)">
                <g id="1-copy" transform="translate(161.000000, 10.105882)">
                    <g id="学校" transform="translate(15.000000, 10.117647)">
                        <g id="icon">
                            <path d="M5.31071988,21.2998586 C4.81828072,21.2998586 4.41982071,20.8714087 4.41982071,20.3418757 L4.41982071,12.3058882 C4.41982071,11.7763859 4.81828075,11.3479361 5.31071988,11.3479361 C5.80315902,11.3479361 6.20161905,11.776386 6.20161905,12.3058882 L6.20161905,20.3419065 C6.20161905,20.8714395 5.80315902,21.2998586 5.31071988,21.2998586 Z" id="Shape"></path>
                            <path d="M12.8077076,24.3392746 C10.0036109,24.3392746 6.20336415,22.8313022 4.96535732,21.535586 C4.60343042,21.1566933 4.41982068,20.7553754 4.41982068,20.3418757 C4.41982068,19.8123735 4.81828072,19.3839237 5.31071985,19.3839237 C5.73790287,19.3839237 6.09456581,19.7075374 6.18165027,20.1387866 C6.7418631,20.8459995 10.3202791,22.5028281 12.976498,22.4205096 C15.7197157,22.3391447 19.2337337,20.8348022 19.8226982,20.1285429 C19.9123002,19.7020003 20.2673324,19.3839237 20.6910252,19.3839237 C21.1834644,19.3839237 21.5819244,19.8123735 21.5819244,20.3418757 C21.5819244,22.5028281 15.5779316,24.2607398 13.0252184,24.3364137 C12.9539259,24.3383517 12.8807738,24.3392746 12.8077076,24.3392746 Z" id="Shape"></path>
                            <path d="M13.000844,17.5540295 C12.8590599,17.5540295 12.7172473,17.5175768 12.5876219,17.4445791 L0.501220368,10.641646 C0.208039839,10.4770091 0.0235718237,10.1495194 0.0235718237,9.79314432 C0.0235718237,9.43661549 0.207152959,9.11020242 0.50122034,8.94464262 L12.5876219,2.13414212 C12.8469013,1.9882083 13.1548438,1.9882083 13.4141232,2.13414212 L25.4996379,8.94464262 C25.7927898,9.11020242 25.9772864,9.43664624 25.9772864,9.79222148 C25.9772864,10.1476429 25.7945349,10.4751634 25.501383,10.6407232 L13.4132363,17.4445791 C13.2844692,17.5175768 13.1426566,17.5540295 13.000844,17.5540295 Z M2.83467759,9.79314432 L13.000844,15.5146476 L23.1705578,9.7950208 L13.000844,4.06407362 L2.83467759,9.79314432 Z" id="Shape"></path>
                            <path d="M20.6910252,21.2998586 C20.1985575,21.2998586 19.8000975,20.8714087 19.8000975,20.3418757 L19.8000975,12.3058882 C19.8000975,11.7763859 20.1985575,11.3479361 20.6910252,11.3479361 C21.1834644,11.3479361 21.5819244,11.776386 21.5819244,12.3058882 L21.5819244,20.3419065 C21.5818958,20.8714395 21.1834644,21.2998586 20.6910252,21.2998586 Z" id="Shape"></path>
                            <path d="M25.0863586,22.4673905 C24.5939195,22.4673905 24.1954595,22.0389407 24.1954595,21.5094385 L24.1954595,9.79314432 C24.1954595,9.26364209 24.5939195,8.83519228 25.0863586,8.83519228 C25.5788264,8.83519228 25.9772864,9.26364212 25.9772864,9.79314432 L25.9772864,21.5094385 C25.9772864,22.0389407 25.5788264,22.4673905 25.0863586,22.4673905 Z" id="Shape"></path>
                        </g>
                    </g>
                </g>
            </g>
        </g>
    </g>
</svg>