<?xml version="1.0" encoding="utf-8"?>
<!-- Generator: Adobe Illustrator 21.0.0, SVG Export Plug-In . SVG Version: 6.00 Build 0)  -->
<svg version="1.1" id="Layer_1" xmlns="http://www.w3.org/2000/svg" xmlns:xlink="http://www.w3.org/1999/xlink" x="0px" y="0px"
	 viewBox="0 0 200 200" style="enable-background:new 0 0 200 200;" xml:space="preserve">
<style type="text/css">
	.st0{fill:#333;}
</style>
<path class="st0" d="M155,68.9c-3.9,0.1-7.1,0.7-11.2,2.7c-13.7,7.2-26,12.8-26.7,13.1c-0.2,0.1-0.5,0.2-0.8,0.2
	c-16.7-2.1-33.4-4.2-50-6.2c-2.6-0.4-4.6,1.4-6.1,2.5c-1.6,1.2-3.2,2.5-4.8,3.7c-2.5,1.8-1,4.1,0.5,4.7L82.5,103
	c1.8,1.1,0.7,2.6,0,3.1l-14.1,6.7c-0.4,0.2-0.8,0.2-1.2,0c-5.8-2.7-13.4-4.7-18.2-6.4c-2.8-1-5.6-0.1-7.3,1.7
	c-0.8,0.9-1.4,2.1-1.6,3.4c-0.1,1.1,0.3,2.6,1.2,3.4l16,14.8c1.8,1.7,4.2,1.5,6.1,1.4c4-0.2,6.4-0.3,10.3-0.6c2-0.2,4.3-0.8,6.4-1.9
	c29.5-15.5,84.7-46.1,84.7-46.1c4.3-2.6,5-6.2,3.1-8.4C165.7,71.5,161,68.9,155,68.9L155,68.9L155,68.9L155,68.9z"/>
</svg>
