<?xml version="1.0" encoding="UTF-8" standalone="no"?>
<svg width="16px" height="16px" viewBox="0 0 16 16" version="1.1" xmlns="http://www.w3.org/2000/svg" xmlns:xlink="http://www.w3.org/1999/xlink">
    <!-- Generator: Sketch 41 (35326) - http://www.bohemiancoding.com/sketch -->
    <title>Artboard</title>
    <desc>Created with Sketch.</desc>
    <defs></defs>
    <g id="Page-1" stroke="none" stroke-width="1" fill="none" fill-rule="evenodd">
        <g id="Artboard" fill="#9B9B9B">
            <g id="最大航程16x16" transform="translate(0.000000, 4.000000)">
                <g id="Page-1">
                    <g id="Artboard-Copy-2">
                        <path d="M12.8517882,0.353215607 C11.1574551,1.31672731 9.63956462,2.04910008 9.54530071,2.09325021 C9.51629644,2.10883262 9.48245812,2.11662382 9.44861979,2.11402675 C7.38448213,1.8387377 5.32034446,1.55306037 3.25620679,1.28556251 C2.93957678,1.23102411 2.68578935,1.46735717 2.50692965,1.61798703 C2.30389972,1.77640809 2.10812085,1.95041156 1.90992497,2.11402675 C1.598129,2.35295688 1.78423977,2.6542166 1.96793351,2.73472566 L5.25508484,4.51631334 C5.47745095,4.659152 5.34209767,4.86432026 5.25508484,4.93184399 L3.50516017,5.82263783 C3.4568197,5.84341437 3.40122817,5.84341437 3.3504707,5.82263783 C2.63261486,5.45904851 1.6923929,5.20193892 1.10022225,4.97339706 C0.757004985,4.84094667 0.401702597,4.95781466 0.196255643,5.20193892 C0.0923236431,5.32659811 0.0246470031,5.4824221 0.00289379692,5.65902264 C-0.0140253662,5.80445837 0.0439831877,6.00443249 0.157583274,6.11610636 L2.13712513,8.08468277 C2.36432529,8.3080305 2.6592021,8.28205984 2.88640228,8.27167166 C3.38189199,8.24829801 3.68160284,8.23011853 4.16500746,8.18856553 C4.41637785,8.16519189 4.69916954,8.08468277 4.96262506,7.93924714 C8.61474686,5.87457917 15.4428369,1.8075729 15.4428369,1.8075729 C15.9697479,1.45696891 16.0615948,0.984302794 15.8271436,0.6882372 C15.563688,0.342827344 14.9811855,-0.00258251143 14.2367424,1.45542857e-05 C13.7509207,0.0129998829 13.352112,0.09870309 12.8517882,0.353215607 Z" id="Shape"></path>
                    </g>
                </g>
            </g>
        </g>
    </g>
</svg>
