<?xml version="1.0" standalone="no"?>
<!DOCTYPE svg PUBLIC "-//W3C//DTD SVG 1.1//EN" "http://www.w3.org/Graphics/SVG/1.1/DTD/svg11.dtd">
<svg class="icon" width="200px" height="200.00px" viewBox="0 0 1024 1024" version="1.1" xmlns="http://www.w3.org/2000/svg">
    <style type="text/css">
        .st0{fill:#9B9B9B;}
    </style>
    <path class="st0" d="M897.16699 442.186836l-492.049608 60.755053-39.876209-98.691621 394.009142-52.699633c28.937848-3.863923 49.274592-30.458371 45.410464-59.407278-3.864128-28.952082-30.479977-49.298246-59.443425-45.411693l-420.875663 56.292403L220.423012 45.824156c-7.47748-27.570617-36.210633-43.949436-64.139442-36.553055l-46.747897-5.785747c-27.926761 7.395356-44.513961 35.748814-37.037505 63.341856l147.885011 485.350359c-2.43044 5.963716-3.780161 12.471888-3.780161 19.29422l40.142344 100.04339 8.353504 27.413025c1.514583 5.573883 3.908159 10.681135 6.97296 15.235842 2.593152 26.158433 24.94992 46.599828 52.126609 46.599828h322.117851l-52.013969 118.540434c-0.732665 1.669001-1.346751 3.359506-1.871649 5.060148h-149.109968c-77.136841 0-139.61957 62.503823-139.619571 139.625407h535.262933c0-71.75342-54.110793-130.841418-123.764011-138.721839l54.629649-124.50415h25.540365c28.891769 0 49.094472-6.384371 64.391241-44.708724l89.741234-222.141779C949.501263 465.354194 926.083334 442.186836 897.16699 442.186836z" />
</svg>