<?xml version="1.0" standalone="no"?><!DOCTYPE svg PUBLIC "-//W3C//DTD SVG 1.1//EN" "http://www.w3.org/Graphics/SVG/1.1/DTD/svg11.dtd"><svg class="icon" width="200px" height="200.00px" viewBox="0 0 1024 1024" version="1.1" xmlns="http://www.w3.org/2000/svg"><path d="M512 128C300.256 128 128 300.256 128 512s172.256 384 384 384 384-172.256 384-384S723.744 128 512 128zM512 832c-176.448 0-320-143.552-320-320 0-176.448 143.552-320 320-320s320 143.552 320 320C832 688.448 688.448 832 512 832z"  /><path d="M660.736 606.112 528 529.344 528 320c0-17.664-14.336-32-32-32s-32 14.336-32 32l0 224c0 11.872 14.752 21.824 24.352 27.328 2.656 4 9.952 7.616 14.4 10.176l132 80c15.296 8.832 31.872 3.584 40.704-11.712C684.288 634.496 676.064 614.944 660.736 606.112z"  /></svg>