<?xml version="1.0" encoding="UTF-8" standalone="no"?>
<svg width="82px" height="68px" viewBox="0 0 82 68" version="1.1" xmlns="http://www.w3.org/2000/svg" xmlns:xlink="http://www.w3.org/1999/xlink">
    <!-- Generator: Sketch 42 (36781) - http://www.bohemiancoding.com/sketch -->
    <title>logo_icon</title>
    <desc>Created with Sketch.</desc>
    <defs></defs>
    <g id="Page-1" stroke="none" stroke-width="1" fill="none" fill-rule="evenodd">
        <g id="登录-初始页面" transform="translate(-36.000000, -132.000000)" fill="#FFFFFF">
            <g id="logo" transform="translate(36.000000, 132.000000)">
                <g id="logo_icon">
                    <path d="M21,63.4851485 L15.6666667,63.4851485 C14.9293333,63.4851485 14.3333333,64.0839604 14.3333333,64.8217822 C14.3333333,65.559604 14.9293333,66.1584158 15.6666667,66.1584158 L21,66.1584158 C21.7373333,66.1584158 22.3333333,65.559604 22.3333333,64.8217822 C22.3333333,64.0839604 21.7373333,63.4851485 21,63.4851485 M21,55.4653465 L7.66666667,55.4653465 C6.92933333,55.4653465 6.33333333,56.0641584 6.33333333,56.8019802 C6.33333333,57.539802 6.92933333,58.1386139 7.66666667,58.1386139 L21,58.1386139 C21.7373333,58.1386139 22.3333333,57.539802 22.3333333,56.8019802 C22.3333333,56.0641584 21.7373333,55.4653465 21,55.4653465 M21,47.4455446 L13,47.4455446 C12.2626667,47.4455446 11.6666667,48.0443564 11.6666667,48.7821782 C11.6666667,49.52 12.2626667,50.1188119 13,50.1188119 L21,50.1188119 C21.7373333,50.1188119 22.3333333,49.52 22.3333333,48.7821782 C22.3333333,48.0443564 21.7373333,47.4455446 21,47.4455446 M15.6666667,12.6930693 L21,12.6930693 C21.7373333,12.6930693 22.3333333,12.0942574 22.3333333,11.3564356 C22.3333333,10.6186139 21.7373333,10.019802 21,10.019802 L15.6666667,10.019802 C14.9293333,10.019802 14.3333333,10.6186139 14.3333333,11.3564356 C14.3333333,12.0942574 14.9293333,12.6930693 15.6666667,12.6930693 M18.3333333,4.67326733 L21,4.67326733 C21.7373333,4.67326733 22.3333333,4.07445545 22.3333333,3.33663366 C22.3333333,2.59881188 21.7373333,2 21,2 L18.3333333,2 C17.596,2 17,2.59881188 17,3.33663366 C17,4.07445545 17.596,4.67326733 18.3333333,4.67326733 M29,15.3663366 C29.7373333,15.3663366 30.3333333,14.7675248 30.3333333,14.029703 L30.3333333,4.67326733 L36.3746667,4.67326733 C36.5373333,4.67326733 36.952,4.90717822 37.1093333,5.26940594 L41.1093333,14.5590099 C41.3266667,15.0642574 41.8173333,15.3663366 42.3346667,15.3663366 C42.5106667,15.3663366 42.6906667,15.3315842 42.8613333,15.2567327 C43.5373333,14.9640099 43.8493333,14.1780693 43.5573333,13.500396 L39.5546667,4.20410891 C38.9973333,2.92628713 37.66,2 36.3746667,2 L30.3333333,2 C28.8626667,2 27.6666667,3.22836634 27.6666667,4.74009901 L27.6666667,14.029703 C27.6666667,14.7675248 28.2626667,15.3663366 29,15.3663366 M55.6666667,39.4257426 L71.6666667,39.4257426 C72.404,39.4257426 73,38.8269307 73,38.0891089 C73,37.3512871 72.404,36.7524752 71.6666667,36.7524752 L55.6666667,36.7524752 C54.9293333,36.7524752 54.3333333,37.3512871 54.3333333,38.0891089 C54.3333333,38.8269307 54.9293333,39.4257426 55.6666667,39.4257426 M17,26.0594059 C17,27.5337129 18.196,28.7326733 19.6666667,28.7326733 C21.1373333,28.7326733 22.3333333,27.5337129 22.3333333,26.0594059 C22.3333333,24.585099 21.1373333,23.3861386 19.6666667,23.3861386 C18.196,23.3861386 17,24.585099 17,26.0594059 M30.3333333,26.0594059 C30.3333333,24.585099 29.1373333,23.3861386 27.6666667,23.3861386 C26.196,23.3861386 25,24.585099 25,26.0594059 C25,27.5337129 26.196,28.7326733 27.6666667,28.7326733 C29.1373333,28.7326733 30.3333333,27.5337129 30.3333333,26.0594059 M38.3333333,26.0594059 C38.3333333,24.585099 37.1373333,23.3861386 35.6666667,23.3861386 C34.196,23.3861386 33,24.585099 33,26.0594059 C33,27.5337129 34.196,28.7326733 35.6666667,28.7326733 C37.1373333,28.7326733 38.3333333,27.5337129 38.3333333,26.0594059 M46.3333333,26.0594059 C46.3333333,24.585099 45.1373333,23.3861386 43.6666667,23.3861386 C42.196,23.3861386 41,24.585099 41,26.0594059 C41,27.5337129 42.196,28.7326733 43.6666667,28.7326733 C45.1373333,28.7326733 46.3333333,27.5337129 46.3333333,26.0594059 M51.6666667,23.3861386 C50.196,23.3861386 49,24.585099 49,26.0594059 C49,27.5337129 50.196,28.7326733 51.6666667,28.7326733 C53.1373333,28.7326733 54.3333333,27.5337129 54.3333333,26.0594059 C54.3333333,24.585099 53.1373333,23.3861386 51.6666667,23.3861386 M81,35.4158416 C81,40.5752475 76.812,44.7722772 71.6666667,44.7722772 L48.6493333,44.7722772 L39.5373333,64.0572277 C38.9826667,65.2682178 37.6493333,66.1584158 36.3746667,66.1584158 L30.3333333,66.1584158 C28.8626667,66.1584158 27.6666667,64.9594554 27.6666667,63.4851485 L27.6666667,38.0891089 C27.6666667,37.3512871 28.2626667,36.7524752 29,36.7524752 L45,36.7524752 C45.7373333,36.7524752 46.3333333,37.3512871 46.3333333,38.0891089 C46.3333333,38.8269307 45.7373333,39.4257426 45,39.4257426 L30.3333333,39.4257426 L30.3333333,63.4851485 L36.3746667,63.4851485 C36.568,63.4851485 36.9746667,63.2458911 37.1226667,62.9277723 L49.1293333,37.5170297 C49.4453333,36.8500495 50.2426667,36.5666832 50.904,36.8807921 C51.5693333,37.1975743 51.8546667,37.9942079 51.5373333,38.6611881 L49.9146667,42.0990099 L71.6666667,42.0990099 C75.3426667,42.0990099 78.3333333,39.1009406 78.3333333,35.4158416 C78.3333333,31.7307426 75.3426667,28.7326733 71.6666667,28.7326733 C71.0146667,28.7326733 70.4586667,28.259505 70.352,27.6165842 C70.304,27.3372277 69.108,20.7128713 63.6666667,20.7128713 L60.04,20.7128713 L60.9386667,24.3124257 C61.1386667,24.8029703 61.7746667,26.0594059 63.028,26.0594059 L66.3333333,26.0594059 C67.0706667,26.0594059 67.6666667,26.6582178 67.6666667,27.3960396 C67.6666667,28.1338614 67.0706667,28.7326733 66.3333333,28.7326733 L63.028,28.7326733 C61.0213333,28.7326733 59.256,27.38 58.4213333,25.2012871 C58.4026667,25.1518317 58.3866667,25.099703 58.3733333,25.0475743 L57.2933333,20.7128713 L10.896,20.7128713 C10.3506667,20.7128713 9.86133333,20.3800495 9.65733333,19.8734653 L6.99066667,13.190297 C6.85066667,12.8200495 6.52266667,12.6930693 6.33333333,12.6930693 L3.66666667,12.6930693 L3.66666667,22.049505 C3.66666667,33.2919307 12.452,42.0990099 23.6666667,42.0990099 C24.404,42.0990099 25,42.6978218 25,43.4356436 C25,44.1734653 24.404,44.7722772 23.6666667,44.7722772 C10.9573333,44.7722772 1,34.7916337 1,22.049505 L1,12.6930693 C1,11.2187624 2.196,10.019802 3.66666667,10.019802 L6.33333333,10.019802 C7.71333333,10.019802 8.97466667,10.9033168 9.47466667,12.2172277 L11.7986667,18.039604 L63.6666667,18.039604 C69.1986667,18.039604 71.88,22.8514851 72.7506667,26.1222277 C77.3893333,26.6622277 81,30.6253465 81,35.4158416" id="plane"></path>
                </g>
            </g>
        </g>
    </g>
</svg>