<?xml version="1.0" encoding="UTF-8"?>
<svg width="24px" height="24px" viewBox="0 0 24 24" version="1.1" xmlns="http://www.w3.org/2000/svg" xmlns:xlink="http://www.w3.org/1999/xlink">
    <!-- Generator: Sketch 42 (36781) - http://www.bohemiancoding.com/sketch -->
    <title>icon-password</title>
    <desc>Created with Sketch.</desc>
    <defs></defs>
    <g id="AirCommunity-" stroke="none" stroke-width="1" fill="none" fill-rule="evenodd">
        <g id="注册-开始输入-" transform="translate(-42.000000, -199.000000)" fill-rule="nonzero" fill="#BDBDBD">
            <g id="password" transform="translate(35.000000, 195.000000)">
                <g id="icon-password" transform="translate(7.000000, 4.000000)">
                    <g id="输入" transform="translate(4.000000, 4.000000)">
                        <path d="M17.8039633,2.26775333 C17.8591539,2.3910194 17.9033672,2.53475368 17.9368142,2.69911862 C17.9709403,2.86341294 17.9878851,3.03459749 17.9878851,3.21260637 C17.9878851,3.39061524 17.9538527,3.56850405 17.885673,3.7465129 C17.8173294,3.92456885 17.7083042,4.0957534 17.558813,4.26000064 C17.3952998,4.42438913 17.2488978,4.56809752 17.119396,4.69131885 C16.9899621,4.81456372 16.8775925,4.92411524 16.7821911,5.01997577 C16.6732854,5.12950375 16.5710475,5.22539016 16.4756695,5.30748908 L12.6542709,1.46677347 C12.8177138,1.3161466 13.0118868,1.1347291 13.236605,0.922422138 C13.4613935,0.71018577 13.6487792,0.542527563 13.7986218,0.419237954 C13.9893777,0.268634621 14.1869679,0.162517632 14.3913242,0.100837517 C14.5956313,0.0392751034 14.7966174,0.0118695632 14.9941138,0.0187386207 C15.191657,0.0256311954 15.3823428,0.0564241839 15.5663583,0.111164621 C15.7502567,0.165928621 15.9102568,0.227514552 16.0464545,0.296042529 C16.3326822,0.446787103 16.6494081,0.710282299 16.9968197,1.0867871 C17.3441352,1.46326834 17.613301,1.85701871 17.8039633,2.26775333 L17.8039633,2.26775333 Z M1.88473435,12.2908372 C1.96644408,12.2086912 2.15722347,12.0135333 2.45688518,11.70546 C2.75664056,11.3973395 3.13132073,11.0174214 3.58082499,10.5655196 L5.07270218,9.06627062 L6.72799883,7.40258607 L11.1216419,2.98663198 L14.9429937,6.84795471 L10.5493974,11.2638617 L8.91458206,12.9275463 C8.36962721,13.4615469 7.87916271,13.9511343 7.44320726,14.39612 C7.00727759,14.8411527 6.64617433,15.2073775 6.36011062,15.4949403 C6.07397665,15.7824771 5.90367623,15.946795 5.84921166,15.9878915 C5.71306078,16.1111128 5.55626699,16.2411773 5.37924952,16.3780661 C5.20216179,16.5150961 5.01826336,16.6246006 4.82746055,16.706723 C4.63679826,16.8026071 4.35745157,16.9189358 3.98956103,17.0558929 C3.62176417,17.1928052 3.23690542,17.3263042 2.83498243,17.4563946 C2.43315313,17.5865556 2.05168801,17.6994946 1.69056133,17.7953786 C1.32955175,17.8910979 1.06054994,17.9528274 0.883417723,17.9801388 C0.515503761,18.0212354 0.270353482,17.9664478 0.147706902,17.8158445 C0.0251071639,17.6652883 -0.00894636595,17.4119789 0.0455182033,17.0558929 C0.0727867853,16.8642166 0.13754939,16.5870069 0.239714668,16.2240754 C0.341903367,15.8611909 0.450858259,15.4847073 0.566598099,15.094415 C0.682455042,14.7042404 0.794803586,14.344767 0.903849827,14.0161571 C1.01282581,13.6875709 1.10132282,13.4615964 1.16948141,13.3383751 C1.25123798,13.1467223 1.34322233,12.9721009 1.44536418,12.8146309 C1.5475763,12.6570855 1.69407206,12.4825606 1.88473435,12.2908372 L1.88473435,12.2908372 Z M8.69875902,16.1646033 L10.5262508,16.1646033 L10.5262508,17.9933096 L8.69875902,17.9933096 L8.69875902,16.1646033 L8.69875902,16.1646033 Z M12.4117414,16.1646033 L14.2392332,16.1646033 L14.2392332,17.9933096 L12.4117414,17.9933096 L12.4117414,16.1646033 Z M16.1395162,16.1646033 L17.967008,16.1646033 L17.967008,17.9933096 L16.1395162,17.9933096 L16.1395162,16.1646033 Z" id="Shape"></path>
                    </g>
                </g>
            </g>
        </g>
    </g>
</svg>