<?xml version="1.0" encoding="UTF-8" standalone="no"?>
<svg width="14px" height="10px" viewBox="0 0 14 10" version="1.1" xmlns="http://www.w3.org/2000/svg" xmlns:xlink="http://www.w3.org/1999/xlink">
    <!-- Generator: Sketch 42 (36781) - http://www.bohemiancoding.com/sketch -->
    <title>arrow_right_login</title>
    <desc>Created with Sketch.</desc>
    <defs></defs>
    <g id="Page-1" stroke="none" stroke-width="1" fill="none" fill-rule="evenodd">
        <g id="登录-初始页面" transform="translate(-262.000000, -635.000000)" fill="#999999">
            <g id="注册" transform="translate(116.000000, 629.000000)">
                <g id="Group" transform="translate(146.000000, 6.000000)">
                    <path d="M2.71362764,4.6483714 L5.34856046,1.93973417 C5.58196161,1.69405662 5.58196161,1.44836756 5.34856046,1.20269002 C5.10288292,0.957012476 4.86334357,0.957012476 4.62994242,1.20269002 L1.14740883,4.77735413 C1.04914012,4.87562284 1,4.99846737 1,5.1458762 C1,5.30557294 1.04914012,5.43455566 1.14740883,5.53282438 L4.62994242,9.10748848 C4.86334357,9.35316603 5.10288292,9.35316603 5.34856046,9.10748848 C5.58196161,8.86181094 5.58196161,8.61612188 5.34856046,8.37044434 L2.71362764,5.6618071 L12.4794626,5.6618071 C12.8111324,5.6618071 12.9769674,5.48983397 12.9769674,5.1458762 C12.9769674,4.81420633 12.8111324,4.6483714 12.4794626,4.6483714 L2.71362764,4.6483714" id="右" transform="translate(7.000000, 5.145873) scale(-1, 1) translate(-7.000000, -5.145873) "></path>
                </g>
            </g>
        </g>
    </g>
</svg>