<?xml version="1.0" encoding="UTF-8" standalone="no"?>
<svg width="24px" height="24px" viewBox="0 0 24 24" version="1.1" xmlns="http://www.w3.org/2000/svg" xmlns:xlink="http://www.w3.org/1999/xlink">
    <!-- Generator: Sketch 42 (36781) - http://www.bohemiancoding.com/sketch -->
    <title>icon_user_login</title>
    <desc>Created with Sketch.</desc>
    <defs></defs>
    <g id="Page-1" stroke="none" stroke-width="1" fill="none" fill-rule="evenodd">
        <g id="登录-初始页面" transform="translate(-42.000000, -376.000000)" fill="#CCCCCC">
            <g id="account" transform="translate(35.000000, 376.000000)">
                <g id="icon" transform="translate(7.000000, 0.000000)">
                    <path d="M14.5449839,23.1440485 L10.1466974,23.1440485 C6.00610766,23.1440485 2.73499222,23.1440485 2.73499222,21.0400958 L2.73499222,20.6069191 C2.73499222,16.5822655 6.05937887,13.3088246 10.1466974,13.3088246 L14.5449839,13.3088246 C18.6322718,13.3088246 21.9574234,16.583061 21.9574234,20.6069191 L21.9574234,21.0400958 C21.9574234,23.1440485 18.5226084,23.1440485 14.5449839,23.1440485 Z M6.25597136,6.96792887 C6.25597136,3.779061 8.88948457,1.18394834 12.126116,1.18394834 C15.3627474,1.18394834 17.9962301,3.77829605 17.9962301,6.96792887 C17.9962301,10.1575617 15.3627474,12.7518788 12.126116,12.7518788 C8.88948457,12.7518788 6.25597136,10.1567661 6.25597136,6.96792887 Z" id="用户-(1)"></path>
                </g>
            </g>
        </g>
    </g>
</svg>