<?xml version="1.0" encoding="UTF-8" standalone="no"?>
<svg width="24px" height="24px" viewBox="0 0 24 24" version="1.1" xmlns="http://www.w3.org/2000/svg" xmlns:xlink="http://www.w3.org/1999/xlink">
    <!-- Generator: Sketch 42 (36781) - http://www.bohemiancoding.com/sketch -->
    <title>icon_password_login</title>
    <desc>Created with Sketch.</desc>
    <defs></defs>
    <g id="Page-1" stroke="none" stroke-width="1" fill="none" fill-rule="evenodd">
        <g id="登录-初始页面" transform="translate(-42.000000, -439.000000)" fill="#CCCCCC">
            <g id="password" transform="translate(35.000000, 439.000000)">
                <g id="icon-password" transform="translate(7.000000, 0.000000)">
                    <path d="M17.8615648,23 L5.70255746,23 C4.21139853,23 3,21.7200196 3,20.1441149 L3,11.5828606 C3,10.0090807 4.21142543,8.72912714 5.70255746,8.72912714 L6.4037066,8.72912714 C6.33189731,8.37320049 6.29327628,8.00659658 6.29327628,7.63135941 L6.29327628,6.53359169 C6.29327628,3.50189487 8.7503912,1.04480685 11.7821149,1.04480685 C14.8127359,1.04480685 17.2709267,3.50189487 17.2709267,6.53359169 L17.2709267,7.63135941 C17.2709267,8.00656968 17.2322787,8.37320049 17.1604694,8.72912714 L17.8615648,8.72912714 C19.3517017,8.72912714 20.5642029,10.0090807 20.5642029,11.5828606 L20.5642029,20.1441149 C20.5642029,21.7200196 19.3517017,23 17.8615648,23 Z M10.6843203,16.1132738 L10.6843203,18.6089829 C10.6843203,19.2135795 11.1764156,19.7067237 11.7821149,19.7067237 C12.3877873,19.7067237 12.8798557,19.2135795 12.8798557,18.6089829 L12.8798557,16.1132738 C13.5455306,15.735912 13.9990049,15.032665 13.9990049,14.2179389 C13.9990049,13.0043888 13.0063154,12.0224034 11.7821149,12.0224034 C10.5567579,12.0224034 9.56404156,13.0043888 9.56404156,14.2179389 C9.56404156,15.032665 10.0185917,15.735912 10.6843203,16.1132738 Z M15.0753912,6.53359169 C15.0753912,4.71436919 13.6013643,3.24028851 11.7821149,3.24028851 C9.96286553,3.24028851 8.48878484,4.7143423 8.48878484,6.53359169 L8.48878484,8.72912714 L15.0753912,8.72912714 L15.0753912,6.53359169 L15.0753912,6.53359169 Z" id="密码-(1)"></path>
                </g>
            </g>
        </g>
    </g>
</svg>