<?xml version="1.0" encoding="UTF-8" standalone="no"?>
<svg width="212px" height="30px" viewBox="0 0 212 30" version="1.1" xmlns="http://www.w3.org/2000/svg" xmlns:xlink="http://www.w3.org/1999/xlink">
    <!-- Generator: Sketch 42 (36781) - http://www.bohemiancoding.com/sketch -->
    <title>logo_t</title>
    <desc>Created with Sketch.</desc>
    <defs></defs>
    <g id="Page-1" stroke="none" stroke-width="1" fill="none" fill-rule="evenodd">
        <g id="登录-初始页面" transform="translate(-133.000000, -152.000000)" fill="#FFFFFF">
            <g id="logo" transform="translate(36.000000, 132.000000)">
                <g id="logo_t" transform="translate(97.000000, 20.000000)">
                    <path d="M7.39,18.56 L6.07,22.01 C5.8899991,22.4900024 5.6400016,22.8749986 5.32,23.165 C4.9999984,23.4550015 4.5300031,23.6 3.91,23.6 C3.2899969,23.6 2.79500185,23.4300017 2.425,23.09 C2.05499815,22.7499983 2.0099986,22.1700041 2.29,21.35 L8.47,3.32 C8.5700005,2.9999984 8.78499835,2.71500125 9.115,2.465 C9.44500165,2.21499875 9.8899972,2.09 10.45,2.09 C11.0100028,2.09 11.4549983,2.21499875 11.785,2.465 C12.1150016,2.71500125 12.3299995,2.9999984 12.43,3.32 L18.67,21.41 C18.9100012,22.1700038 18.8450018,22.7249983 18.475,23.075 C18.1049981,23.4250018 17.6100031,23.6 16.99,23.6 C16.3699969,23.6200001 15.9100015,23.4850015 15.61,23.195 C15.3099985,22.9049986 15.0800008,22.560002 14.92,22.16 L13.48,18.56 L7.39,18.56 Z M12.76,15.17 L10.45,7.73 L8.14,15.17 L12.76,15.17 Z M24.97,22.04 C24.97,22.4200019 24.8000017,22.7749984 24.46,23.105 C24.1199983,23.4350017 23.6600029,23.6 23.08,23.6 C22.4999971,23.6 22.0400017,23.4400016 21.7,23.12 C21.3599983,22.7999984 21.19,22.440002 21.19,22.04 L21.19,8.84 C21.19,8.239997 21.389998,7.8000014 21.79,7.52 C22.190002,7.2399986 22.6199977,7.1 23.08,7.1 C23.5400023,7.1 23.969998,7.23499865 24.37,7.505 C24.770002,7.77500135 24.97,8.2199969 24.97,8.84 L24.97,22.04 Z M21.04,3.5 C21.04,2.9199971 21.234998,2.43500195 21.625,2.045 C22.0150019,1.65499805 22.4999971,1.46 23.08,1.46 C23.6600029,1.46 24.144998,1.65499805 24.535,2.045 C24.9250019,2.43500195 25.12,2.9199971 25.12,3.5 C25.12,4.0800029 24.9250019,4.56499805 24.535,4.955 C24.144998,5.34500195 23.6600029,5.54 23.08,5.54 C22.4999971,5.54 22.0150019,5.34500195 21.625,4.955 C21.234998,4.56499805 21.04,4.0800029 21.04,3.5 Z M36.19,10.13 C35.4899965,10.13 34.8750026,10.2599987 34.345,10.52 C33.8149973,10.7800013 33.3750017,11.1399977 33.025,11.6 C32.6749982,12.0600023 32.4150008,12.6099968 32.245,13.25 C32.0749991,13.8900032 31.99,14.5799963 31.99,15.32 L31.99,22.34 C31.99,22.6800017 31.8150017,22.9749988 31.465,23.225 C31.1149982,23.4750013 30.6700027,23.6 30.13,23.6 C29.5899973,23.6 29.1450017,23.4700013 28.795,23.21 C28.4449982,22.9499987 28.27,22.6600016 28.27,22.34 L28.27,8.36 C28.27,7.9999982 28.4549981,7.7000012 28.825,7.46 C29.1950018,7.2199988 29.6399974,7.1 30.16,7.1 C30.6800026,7.1 31.1149982,7.2199988 31.465,7.46 C31.8150017,7.7000012 31.99,7.9999982 31.99,8.36 L31.99,10.46 C32.1700009,10.0999982 32.3849987,9.7100021 32.635,9.29 C32.8850012,8.8699979 33.1849982,8.47500185 33.535,8.105 C33.8850017,7.73499815 34.2849977,7.42500125 34.735,7.175 C35.1850022,6.92499875 35.6999971,6.8 36.28,6.8 C36.5800015,6.8 36.8199991,6.8499995 37,6.95 C37.1800009,7.0500005 37.3199995,7.1699993 37.42,7.31 C37.5200005,7.4500007 37.5849998,7.5999992 37.615,7.76 C37.6450001,7.9200008 37.66,8.0699993 37.66,8.21 C37.66,8.9700038 37.5350012,9.4799987 37.285,9.74 C37.0349987,10.0000013 36.6700024,10.13 36.19,10.13 Z" id="Air"></path>
                    <path d="M57.92,23.9 C56.4199925,23.9 55.0250065,23.6500025 53.735,23.15 C52.4449936,22.6499975 51.3300047,21.9200048 50.39,20.96 C49.4499953,19.9999952 48.7200026,18.8350069 48.2,17.465 C47.6799974,16.0949932 47.4299999,14.5400087 47.45,12.8 C47.4700001,11.0599913 47.7349975,9.5100068 48.245,8.15 C48.7550026,6.7899932 49.4449957,5.6400047 50.315,4.7 C51.1850044,3.7599953 52.2149941,3.0400025 53.405,2.54 C54.595006,2.0399975 55.8799931,1.79 57.26,1.79 C58.2400049,1.79 59.1399959,1.91499875 59.96,2.165 C60.7800041,2.41500125 61.489997,2.72499815 62.09,3.095 C62.690003,3.46500185 63.1599983,3.85499795 63.5,4.265 C63.8400017,4.67500205 64.0299998,5.0299985 64.07,5.33 C64.1100002,5.5900013 64.0950004,5.8099991 64.025,5.99 C63.9549997,6.1700009 63.9000002,6.2999996 63.86,6.38 C63.7999997,6.4800005 63.6900008,6.5999993 63.53,6.74 C63.3699992,6.8800007 63.1800011,6.9899996 62.96,7.07 C62.5999982,7.2300008 62.2500017,7.2200009 61.91,7.04 C61.5699983,6.8599991 61.1900021,6.63500135 60.77,6.365 C60.3499979,6.09499865 59.8550029,5.83500125 59.285,5.585 C58.7149972,5.33499875 58.0100042,5.21 57.17,5.21 C56.2299953,5.21 55.3950037,5.42499785 54.665,5.855 C53.9349964,6.28500215 53.3250025,6.8499965 52.835,7.55 C52.3449976,8.2500035 51.9750013,9.05499545 51.725,9.965 C51.4749988,10.8750046 51.35,11.8199951 51.35,12.8 C51.35,13.7800049 51.4899986,14.7349954 51.77,15.665 C52.0500014,16.5950047 52.4649973,17.4199964 53.015,18.14 C53.5650028,18.8600036 54.2499959,19.4349979 55.07,19.865 C55.8900041,20.2950022 56.8399946,20.5000001 57.92,20.48 C58.4800028,20.4599999 58.9699979,20.3950006 59.39,20.285 C59.8100021,20.1749995 60.1799984,20.0400008 60.5,19.88 C60.8200016,19.7199992 61.1099987,19.545001 61.37,19.355 C61.6300013,19.1649991 61.8899987,18.970001 62.15,18.77 C62.6500025,18.4099982 63.1399976,18.3399989 63.62,18.56 C64.0800023,18.7400009 64.3899992,18.9899984 64.55,19.31 C64.7100008,19.6300016 64.7700002,19.9599983 64.73,20.3 C64.6899998,20.5400012 64.5100016,20.864998 64.19,21.275 C63.8699984,21.6850021 63.4200029,22.0849981 62.84,22.475 C62.2599971,22.865002 61.5550042,23.1999986 60.725,23.48 C59.8949959,23.7600014 58.9600052,23.9 57.92,23.9 Z M73.85,6.8 C75.2300069,6.8 76.4099951,7.0199978 77.39,7.46 C78.3700049,7.9000022 79.164997,8.5099961 79.775,9.29 C80.3850031,10.0700039 80.8349986,10.9899947 81.125,12.05 C81.4150015,13.1100053 81.56,14.2499939 81.56,15.47 C81.56,16.7100062 81.4150015,17.8449949 81.125,18.875 C80.8349986,19.9050052 80.3750032,20.7899963 79.745,21.53 C79.1149969,22.2700037 78.3150049,22.8499979 77.345,23.27 C76.3749952,23.6900021 75.2100068,23.9 73.85,23.9 C72.4899932,23.9 71.3300048,23.6850022 70.37,23.255 C69.4099952,22.8249979 68.6200031,22.2350038 68,21.485 C67.3799969,20.7349963 66.9300014,19.8400052 66.65,18.8 C66.3699986,17.7599948 66.23,16.6300061 66.23,15.41 C66.23,14.1899939 66.3699986,13.0550053 66.65,12.005 C66.9300014,10.9549948 67.369997,10.0450039 67.97,9.275 C68.570003,8.50499615 69.3549952,7.9000022 70.325,7.46 C71.2950049,7.0199978 72.4699931,6.8 73.85,6.8 Z M73.85,20.57 C75.1900067,20.57 76.1749969,20.1250045 76.805,19.235 C77.4350032,18.3449956 77.75,17.0900081 77.75,15.47 C77.75,13.8499919 77.450003,12.5550049 76.85,11.585 C76.249997,10.6149952 75.2300072,10.13 73.79,10.13 C73.0699964,10.13 72.4700024,10.2699986 71.99,10.55 C71.5099976,10.8300014 71.1250015,11.2099976 70.835,11.69 C70.5449986,12.1700024 70.3400006,12.7299968 70.22,13.37 C70.0999994,14.0100032 70.04,14.6899964 70.04,15.41 C70.04,17.0300081 70.339997,18.2949955 70.94,19.205 C71.540003,20.1150046 72.5099933,20.57 73.85,20.57 Z M103.97,13.97 C103.97,13.3299968 103.93,12.7700024 103.85,12.29 C103.77,11.8099976 103.625001,11.4100016 103.415,11.09 C103.204999,10.7699984 102.910002,10.5300008 102.53,10.37 C102.149998,10.2099992 101.670003,10.13 101.09,10.13 C100.609998,10.13 100.165002,10.1799995 99.755,10.28 C99.344998,10.3800005 98.9900015,10.5649987 98.69,10.835 C98.3899985,11.1050014 98.1550009,11.4799976 97.985,11.96 C97.8149992,12.4400024 97.73,13.0599962 97.73,13.82 L97.73,22.34 C97.73,22.7000018 97.5550018,22.9949989 97.205,23.225 C96.8549983,23.4550012 96.4000028,23.5799999 95.84,23.6 C95.2799972,23.6200001 94.8250018,23.5050013 94.475,23.255 C94.1249983,23.0049988 93.95,22.7000018 93.95,22.34 L93.95,13.97 C93.95,12.6899936 93.755002,11.7300032 93.365,11.09 C92.9749981,10.4499968 92.2000058,10.13 91.04,10.13 C90.5599976,10.13 90.1150021,10.1799995 89.705,10.28 C89.294998,10.3800005 88.9450015,10.5649987 88.655,10.835 C88.3649986,11.1050014 88.1350009,11.4799976 87.965,11.96 C87.7949992,12.4400024 87.71,13.0599962 87.71,13.82 L87.71,22.34 C87.71,22.7000018 87.5350018,22.9999988 87.185,23.24 C86.8349983,23.4800012 86.360003,23.6 85.76,23.6 C85.159997,23.6 84.7050016,23.4800012 84.395,23.24 C84.0849985,22.9999988 83.93,22.7000018 83.93,22.34 L83.93,8.21 C83.93,7.8499982 84.0799985,7.57500095 84.38,7.385 C84.6800015,7.19499905 85.1699966,7.1 85.85,7.1 C86.5300034,7.1 86.9999987,7.20499895 87.26,7.415 C87.5200013,7.62500105 87.65,7.8899984 87.65,8.21 L87.65,9.8 C87.9900017,8.9599958 88.4849968,8.2500029 89.135,7.67 C89.7850033,7.0899971 90.5599955,6.8 91.46,6.8 C92.7200063,6.8 93.7149964,7.07499725 94.445,7.625 C95.1750037,8.17500275 95.7099983,8.9599949 96.05,9.98 C96.5700026,9.0799955 97.2849955,8.32500305 98.195,7.715 C99.1050046,7.10499695 100.159994,6.8 101.36,6.8 C102.100004,6.8 102.834996,6.9199988 103.565,7.16 C104.295004,7.4000012 104.944997,7.75499765 105.515,8.225 C106.085003,8.69500235 106.544998,9.2699966 106.895,9.95 C107.245002,10.6300034 107.42,11.4199955 107.42,12.32 L107.42,22.34 C107.42,22.6600016 107.345001,22.9449988 107.195,23.195 C107.044999,23.4450013 106.610004,23.5799999 105.89,23.6 C105.169996,23.6200001 104.670001,23.535001 104.39,23.345 C104.109999,23.1549991 103.97,22.8200024 103.97,22.34 L103.97,13.97 Z M130.4,13.97 C130.4,13.3299968 130.36,12.7700024 130.28,12.29 C130.2,11.8099976 130.055001,11.4100016 129.845,11.09 C129.634999,10.7699984 129.340002,10.5300008 128.96,10.37 C128.579998,10.2099992 128.100003,10.13 127.52,10.13 C127.039998,10.13 126.595002,10.1799995 126.185,10.28 C125.774998,10.3800005 125.420002,10.5649987 125.12,10.835 C124.819999,11.1050014 124.585001,11.4799976 124.415,11.96 C124.244999,12.4400024 124.16,13.0599962 124.16,13.82 L124.16,22.34 C124.16,22.7000018 123.985002,22.9949989 123.635,23.225 C123.284998,23.4550012 122.830003,23.5799999 122.27,23.6 C121.709997,23.6200001 121.255002,23.5050013 120.905,23.255 C120.554998,23.0049988 120.38,22.7000018 120.38,22.34 L120.38,13.97 C120.38,12.6899936 120.185002,11.7300032 119.795,11.09 C119.404998,10.4499968 118.630006,10.13 117.47,10.13 C116.989998,10.13 116.545002,10.1799995 116.135,10.28 C115.724998,10.3800005 115.375001,10.5649987 115.085,10.835 C114.794999,11.1050014 114.565001,11.4799976 114.395,11.96 C114.224999,12.4400024 114.14,13.0599962 114.14,13.82 L114.14,22.34 C114.14,22.7000018 113.965002,22.9999988 113.615,23.24 C113.264998,23.4800012 112.790003,23.6 112.19,23.6 C111.589997,23.6 111.135002,23.4800012 110.825,23.24 C110.514998,22.9999988 110.36,22.7000018 110.36,22.34 L110.36,8.21 C110.36,7.8499982 110.509999,7.57500095 110.81,7.385 C111.110002,7.19499905 111.599997,7.1 112.28,7.1 C112.960003,7.1 113.429999,7.20499895 113.69,7.415 C113.950001,7.62500105 114.08,7.8899984 114.08,8.21 L114.08,9.8 C114.420002,8.9599958 114.914997,8.2500029 115.565,7.67 C116.215003,7.0899971 116.989996,6.8 117.89,6.8 C119.150006,6.8 120.144996,7.07499725 120.875,7.625 C121.605004,8.17500275 122.139998,8.9599949 122.48,9.98 C123.000003,9.0799955 123.714995,8.32500305 124.625,7.715 C125.535005,7.10499695 126.589994,6.8 127.79,6.8 C128.530004,6.8 129.264996,6.9199988 129.995,7.16 C130.725004,7.4000012 131.374997,7.75499765 131.945,8.225 C132.515003,8.69500235 132.974998,9.2699966 133.325,9.95 C133.675002,10.6300034 133.85,11.4199955 133.85,12.32 L133.85,22.34 C133.85,22.6600016 133.775001,22.9449988 133.625,23.195 C133.474999,23.4450013 133.040004,23.5799999 132.32,23.6 C131.599996,23.6200001 131.100001,23.535001 130.82,23.345 C130.539999,23.1549991 130.4,22.8200024 130.4,22.34 L130.4,13.97 Z M140.51,16.37 C140.51,17.0100032 140.55,17.5799975 140.63,18.08 C140.71,18.5800025 140.854999,18.9999983 141.065,19.34 C141.275001,19.6800017 141.569998,19.9399991 141.95,20.12 C142.330002,20.3000009 142.809997,20.39 143.39,20.39 C143.870002,20.39 144.314998,20.3300006 144.725,20.21 C145.135002,20.0899994 145.484999,19.8850015 145.775,19.595 C146.065001,19.3049986 146.294999,18.9100025 146.465,18.41 C146.635001,17.9099975 146.72,17.2800038 146.72,16.52 L146.72,8.36 C146.72,8.0199983 146.894998,7.72500125 147.245,7.475 C147.595002,7.22499875 148.039997,7.1 148.58,7.1 C149.120003,7.1 149.564998,7.2299987 149.915,7.49 C150.265002,7.7500013 150.44,8.0399984 150.44,8.36 L150.44,22.34 C150.44,22.7000018 150.255002,22.9999988 149.885,23.24 C149.514998,23.4800012 149.070003,23.6 148.55,23.6 C148.029997,23.6 147.595002,23.4800012 147.245,23.24 C146.894998,22.9999988 146.72,22.7000018 146.72,22.34 L146.72,20.84 C146.539999,21.2000018 146.325001,21.5499983 146.075,21.89 C145.824999,22.2300017 145.525002,22.5399986 145.175,22.82 C144.824998,23.1000014 144.420002,23.3249992 143.96,23.495 C143.499998,23.6650009 142.990003,23.75 142.43,23.75 C141.649996,23.75 140.920003,23.6200013 140.24,23.36 C139.559997,23.0999987 138.965003,22.7250025 138.455,22.235 C137.944997,21.7449976 137.540002,21.1300037 137.24,20.39 C136.939999,19.6499963 136.79,18.8000048 136.79,17.84 L136.79,8.36 C136.79,7.9999982 136.954998,7.7000012 137.285,7.46 C137.615002,7.2199988 138.059997,7.1 138.62,7.1 C139.180003,7.1 139.634998,7.2199988 139.985,7.46 C140.335002,7.7000012 140.51,7.9999982 140.51,8.36 L140.51,16.37 Z M163.31,14 C163.31,13.3599968 163.27,12.7950025 163.19,12.305 C163.11,11.8149976 162.965001,11.4100016 162.755,11.09 C162.544999,10.7699984 162.250002,10.5300008 161.87,10.37 C161.489998,10.2099992 161.010003,10.13 160.43,10.13 C159.949998,10.13 159.505002,10.1799995 159.095,10.28 C158.684998,10.3800005 158.335001,10.5649987 158.045,10.835 C157.754999,11.1050014 157.525001,11.4849976 157.355,11.975 C157.184999,12.4650025 157.1,13.0899962 157.1,13.85 L157.1,22.34 C157.1,22.6800017 156.925002,22.9749988 156.575,23.225 C156.224998,23.4750013 155.780003,23.6 155.24,23.6 C154.699997,23.6 154.255002,23.4700013 153.905,23.21 C153.554998,22.9499987 153.38,22.6600016 153.38,22.34 L153.38,8.36 C153.38,7.9999982 153.564998,7.7000012 153.935,7.46 C154.305002,7.2199988 154.749997,7.1 155.27,7.1 C155.790003,7.1 156.224998,7.2199988 156.575,7.46 C156.925002,7.7000012 157.1,7.9999982 157.1,8.36 L157.1,9.83 C157.280001,9.4699982 157.494999,9.1100018 157.745,8.75 C157.995001,8.3899982 158.294998,8.06500145 158.645,7.775 C158.995002,7.48499855 159.394998,7.2500009 159.845,7.07 C160.295002,6.8899991 160.809997,6.8 161.39,6.8 C162.250004,6.8 163.024997,6.9199988 163.715,7.16 C164.405003,7.4000012 164.994998,7.75499765 165.485,8.225 C165.975002,8.69500235 166.354999,9.2899964 166.625,10.01 C166.895001,10.7300036 167.03,11.5699952 167.03,12.53 L167.03,22.34 C167.03,22.7000018 166.865002,22.9999988 166.535,23.24 C166.204998,23.4800012 165.760003,23.6 165.2,23.6 C164.639997,23.6 164.185002,23.4800012 163.835,23.24 C163.484998,22.9999988 163.31,22.7000018 163.31,22.34 L163.31,14 Z M173.9,22.04 C173.9,22.4200019 173.730002,22.7749984 173.39,23.105 C173.049998,23.4350017 172.590003,23.6 172.01,23.6 C171.429997,23.6 170.970002,23.4400016 170.63,23.12 C170.289998,22.7999984 170.12,22.440002 170.12,22.04 L170.12,8.84 C170.12,8.239997 170.319998,7.8000014 170.72,7.52 C171.120002,7.2399986 171.549998,7.1 172.01,7.1 C172.470002,7.1 172.899998,7.23499865 173.3,7.505 C173.700002,7.77500135 173.9,8.2199969 173.9,8.84 L173.9,22.04 Z M169.97,3.5 C169.97,2.9199971 170.164998,2.43500195 170.555,2.045 C170.945002,1.65499805 171.429997,1.46 172.01,1.46 C172.590003,1.46 173.074998,1.65499805 173.465,2.045 C173.855002,2.43500195 174.05,2.9199971 174.05,3.5 C174.05,4.0800029 173.855002,4.56499805 173.465,4.955 C173.074998,5.34500195 172.590003,5.54 172.01,5.54 C171.429997,5.54 170.945002,5.34500195 170.555,4.955 C170.164998,4.56499805 169.97,4.0800029 169.97,3.5 Z M182.45,10.79 L182.45,17.51 C182.45,18.0700028 182.47,18.5299982 182.51,18.89 C182.55,19.2500018 182.629999,19.534999 182.75,19.745 C182.870001,19.9550011 183.044999,20.0999996 183.275,20.18 C183.505001,20.2600004 183.809998,20.3 184.19,20.3 C184.550002,20.3 184.909998,20.200001 185.27,20 C185.630002,19.799999 185.969998,19.6300007 186.29,19.49 C186.650002,19.3299992 186.969999,19.3349992 187.25,19.505 C187.530001,19.6750009 187.67,20.0399972 187.67,20.6 C187.67,21.1600028 187.560001,21.6249982 187.34,21.995 C187.119999,22.3650019 186.820002,22.6649989 186.44,22.895 C186.059998,23.1250012 185.615003,23.2949995 185.105,23.405 C184.594997,23.5150006 184.040003,23.5799999 183.44,23.6 C182.779997,23.6200001 182.160003,23.5750006 181.58,23.465 C180.999997,23.3549995 180.495002,23.1400016 180.065,22.82 C179.634998,22.4999984 179.295001,22.0650028 179.045,21.515 C178.794999,20.9649973 178.67,20.2500044 178.67,19.37 L178.67,10.79 L177.47,10.79 C176.909997,10.79 176.535001,10.6350016 176.345,10.325 C176.154999,10.0149985 176.06,9.5700029 176.06,8.99 C176.06,8.389997 176.149999,7.9600013 176.33,7.7 C176.510001,7.4399987 176.859997,7.31 177.38,7.31 L178.67,7.31 L178.67,5.75 C178.67,5.1099968 178.784999,4.6300016 179.015,4.31 C179.245001,3.9899984 179.769996,3.83 180.59,3.83 C181.430004,3.83 181.949999,3.96499865 182.15,4.235 C182.350001,4.50500135 182.45,4.8999974 182.45,5.42 L182.45,7.31 L185.57,7.31 C186.270004,7.31 186.724999,7.44499865 186.935,7.715 C187.145001,7.98500135 187.26,8.4099971 187.28,8.99 C187.3,9.5700029 187.190001,10.0149985 186.95,10.325 C186.709999,10.6350016 186.210004,10.79 185.45,10.79 L182.45,10.79 Z M199.4,20.24 C199.239999,20.5800017 199.030001,20.9149984 198.77,21.245 C198.509999,21.5750017 198.205002,21.8699987 197.855,22.13 C197.504998,22.3900013 197.100002,22.5949993 196.64,22.745 C196.179998,22.8950008 195.670003,22.97 195.11,22.97 C194.329996,22.97 193.600003,22.8500012 192.92,22.61 C192.239997,22.3699988 191.645003,22.0150024 191.135,21.545 C190.624997,21.0749977 190.220002,20.4800036 189.92,19.76 C189.619999,19.0399964 189.47,18.2000048 189.47,17.24 L189.47,8.36 C189.47,7.9999982 189.634998,7.7000012 189.965,7.46 C190.295002,7.2199988 190.739997,7.1 191.3,7.1 C191.860003,7.1 192.314998,7.2199988 192.665,7.46 C193.015002,7.7000012 193.19,7.9999982 193.19,8.36 L193.19,15.77 C193.19,16.4100032 193.23,16.9699976 193.31,17.45 C193.39,17.9300024 193.534999,18.3299984 193.745,18.65 C193.955001,18.9700016 194.249998,19.2099992 194.63,19.37 C195.010002,19.5300008 195.489997,19.61 196.07,19.61 C196.550002,19.61 196.994998,19.5600005 197.405,19.46 C197.815002,19.3599995 198.164999,19.1750014 198.455,18.905 C198.745001,18.6349987 198.974999,18.2600024 199.145,17.78 C199.315001,17.2999976 199.4,16.6800038 199.4,15.92 L199.4,8.36 C199.4,8.0199983 199.574998,7.72500125 199.925,7.475 C200.275002,7.22499875 200.719997,7.1 201.26,7.1 C201.800003,7.1 202.244998,7.2299987 202.595,7.49 C202.945002,7.7500013 203.12,8.0399984 203.12,8.36 L203.12,22.58 C203.12,23.5000046 202.930002,24.3349963 202.55,25.085 C202.169998,25.8350038 201.640003,26.4799973 200.96,27.02 C200.279997,27.5600027 199.485005,27.9699986 198.575,28.25 C197.664995,28.5300014 196.690005,28.6600001 195.65,28.64 C195.069997,28.64 194.545002,28.6150003 194.075,28.565 C193.604998,28.5149998 193.155002,28.4200007 192.725,28.28 C192.294998,28.1399993 191.875002,27.9550012 191.465,27.725 C191.054998,27.4949989 190.630002,27.2100017 190.19,26.87 C189.709998,26.4899981 189.425,26.105002 189.335,25.715 C189.245,25.3249981 189.259999,24.9400019 189.38,24.56 C189.560001,23.9999972 189.824998,23.6650006 190.175,23.555 C190.525002,23.4449995 190.869998,23.5399985 191.21,23.84 C191.690002,24.2600021 192.284996,24.5949988 192.995,24.845 C193.705004,25.0950013 194.579995,25.2100001 195.62,25.19 C196.240003,25.1699999 196.784998,25.0800008 197.255,24.92 C197.725002,24.7599992 198.119998,24.5600012 198.44,24.32 C198.760002,24.0799988 198.999999,23.8100015 199.16,23.51 C199.320001,23.2099985 199.4,22.9100015 199.4,22.61 L199.4,20.24 Z M206.15,21.71 C206.15,21.1299971 206.344998,20.645002 206.735,20.255 C207.125002,19.8649981 207.609997,19.67 208.19,19.67 C208.770003,19.67 209.254998,19.8649981 209.645,20.255 C210.035002,20.645002 210.23,21.1299971 210.23,21.71 C210.23,22.2900029 210.035002,22.7749981 209.645,23.165 C209.254998,23.555002 208.770003,23.75 208.19,23.75 C207.609997,23.75 207.125002,23.555002 206.735,23.165 C206.344998,22.7749981 206.15,22.2900029 206.15,21.71 Z" id="Community." fill-opacity="0.7"></path>
                </g>
            </g>
        </g>
    </g>
</svg>