<?xml version="1.0" encoding="UTF-8" standalone="no"?>
<svg width="27px" height="27px" viewBox="0 0 27 27" version="1.1" xmlns="http://www.w3.org/2000/svg" xmlns:xlink="http://www.w3.org/1999/xlink">
    <!-- Generator: Sketch 41 (35326) - http://www.bohemiancoding.com/sketch -->
    <title>飞机切换icon</title>
    <desc>Created with Sketch.</desc>
    <defs></defs>
    <g id="Page-1" stroke="none" stroke-width="1" fill="none" fill-rule="evenodd">
        <g id="air-transportation" transform="translate(-168.000000, -475.000000)" fill="#4A90E2">
            <g id="Group-4" transform="translate(0.000000, 467.000000)">
                <g id="Group-6" transform="translate(24.000000, 1.000000)">
                    <g id="飞机切换icon" transform="translate(144.000000, 7.000000)">
                        <g id="切换-2">
                            <path d="M0.0019503386,12.5402672 C0.112587714,11.8745009 0.194856562,11.2019666 0.339181619,10.5433247 C0.676058272,9.00625604 1.28420932,7.57747681 2.13349313,6.25342485 C2.18739339,6.16971429 2.23632915,6.08279777 2.31717956,5.94779219 L0.0955665914,5.94779219 L0.0955665914,4.26325047 L5.06999384,4.26325047 L5.06999384,9.28873469 L3.43454628,9.28873469 L3.43454628,7.47453061 C1.46186743,10.3335139 0.714355852,15.5720148 3.61504124,19.9627236 C5.38736711,22.6453803 7.85507736,24.3552133 10.9873212,25.029885 C14.0972247,25.6992133 17.0308886,25.1702338 19.7595896,23.5045714 C19.8113622,23.575102 19.8524966,23.6235473 19.8854751,23.6766234 C20.1379553,24.0741596 20.3897262,24.4731206 20.6815678,24.9358442 C20.1032038,25.2372022 19.557109,25.5585084 18.9826456,25.8167644 C11.1068237,29.353269 1.96150871,24.6163191 0.256558175,16.1209425 C0.151594486,15.5969499 0.085282974,15.0654768 0.00124111625,14.5375659 C0.0019503386,13.8717996 0.0019503386,13.2060334 0.0019503386,12.5402672 Z M26.9921543,14.5375659 C26.8804531,15.1901521 26.7932198,15.8487941 26.6517316,16.494256 C26.3169826,18.0192134 25.7134414,19.4351688 24.8744412,20.7499592 C24.8155765,20.8436438 24.7634492,20.9408905 24.6740882,21.0962004 L26.9091763,21.0962004 L26.9091763,22.7607941 L21.9241108,22.7607941 L21.9241108,17.7609573 L23.5592038,17.7609573 L23.5592038,19.5349091 C25.48011,16.8472653 26.3233655,11.5011874 23.3393474,6.98829686 C19.991148,1.92541004 12.9053905,-0.0045640102 7.21713934,3.51947311 L6.32991258,2.1241781 C7.3316774,1.46802967 8.38379642,0.948311694 9.51960271,0.654077908 C10.4880345,0.402946194 11.4880263,0.270790347 12.4741884,0.0869833163 C12.5986555,0.0638293163 12.7231225,0.0431688367 12.8475896,0.0217959184 L14.2238194,0.0217959184 C14.5617599,0.0688163265 14.8989912,0.121536184 15.2379955,0.162144704 C20.692206,0.807962878 25.3372034,4.95395177 26.6031504,10.3249648 C26.7691065,11.0299147 26.8641412,11.7508943 26.9925089,12.4640371 L26.9921543,14.5375659 Z" id="Shape"></path>
                        </g>
                        <g id="飞机-copy-2" transform="translate(6.000000, 9.000000)">
                            <path d="M15.1195733,0.0596902902 C14.6051324,0.0736272321 14.1828301,0.165611049 13.6530328,0.438775112 C11.8588881,1.47289621 10.2515801,2.25893973 10.1517632,2.30632533 C10.1210503,2.32304967 10.0852186,2.33141183 10.0493869,2.32862444 C7.86365289,2.03316127 5.67791884,1.72654855 3.49218479,1.43944754 C3.1569024,1.38091239 2.88816461,1.63456473 2.69876845,1.79623326 C2.48377821,1.96626395 2.2764662,2.15301897 2.06659478,2.32862444 C1.73643121,2.58506417 1.93350559,2.90840123 2.12802056,2.99481027 L5.60881483,4.90695871 C5.84428033,5.06026507 5.7009535,5.28046875 5.60881483,5.35294085 L3.75580377,6.30901507 C3.70461561,6.33131417 3.64574924,6.33131417 3.59200168,6.30901507 C2.83185764,5.91878069 1.8362481,5.64282924 1.20919325,5.39753906 C0.845757378,5.25538225 0.469524468,5.38081473 0.251974826,5.64282924 C0.141920302,5.77662388 0.0702568902,5.94386719 0.0472222222,6.1334096 C0.0293063694,6.28950335 0.0907321506,6.50413225 0.211024306,6.62398996 L2.30717909,8.73683036 C2.5477634,8.97654576 2.86001112,8.94867188 3.10059543,8.93752232 C3.62527398,8.91243583 3.94264052,8.89292411 4.45452203,8.84832589 C4.72070041,8.8232394 5.0201511,8.73683036 5.29912652,8.58073661 C9.16639133,6.36476283 16.3967177,1.99971261 16.3967177,1.99971261 C16.9546685,1.62341518 17.051926,1.11611049 16.8036635,0.798348214 C16.524688,0.427625558 15.9078708,0.0569029018 15.1195733,0.0596902902 L15.1195733,0.0596902902 L15.1195733,0.0596902902 L15.1195733,0.0596902902 Z" id="Shape"></path>
                        </g>
                    </g>
                </g>
            </g>
        </g>
    </g>
</svg>