<?xml version="1.0" encoding="UTF-8" standalone="no"?>
<svg width="16px" height="16px" viewBox="0 0 16 16" version="1.1" xmlns="http://www.w3.org/2000/svg" xmlns:xlink="http://www.w3.org/1999/xlink">
    <!-- Generator: Sketch 42 (36781) - http://www.bohemiancoding.com/sketch -->
    <title>btn_delete</title>
    <desc>Created with Sketch.</desc>
    <defs></defs>
    <g id="Page-2" stroke="none" stroke-width="1" fill="none" fill-rule="evenodd" fill-opacity="0.25">
        <g id="01-02旅行计划-已填写" transform="translate(-331.000000, -177.000000)" fill="#000000">
            <g id="card" transform="translate(14.000000, 165.000000)">
                <g id="title_card" transform="translate(0.000000, 10.000000)">
                    <g id="btn" transform="translate(317.000000, 2.000000)">
                        <path d="M7.96875,0 C3.56875,0 0,3.568 0,7.96875 C0,12.36975 3.56825,15.9375 7.96875,15.9375 C12.36975,15.9375 15.9375,12.3705 15.9375,7.96875 C15.9375,3.56875 12.36975,0 7.96875,0 L7.96875,0 Z M11.23575,10.18025 C11.3715,10.31525 11.455,10.5015 11.455,10.708 C11.455,11.121 11.121,11.455 10.708,11.455 C10.503,11.455 10.31525,11.3715 10.18025,11.23575 L7.96875,9.0255 L5.75875,11.2365 C5.62275,11.37225 5.436,11.45575 5.2295,11.45575 C4.81775,11.45575 4.483,11.12175 4.483,10.7085 C4.483,10.502 4.5665,10.31625 4.7015,10.18125 L6.91275,7.96875 L4.702,5.758 C4.56675,5.6225 4.4835,5.43575 4.4835,5.2295 C4.4835,4.817 4.818,4.4825 5.2305,4.4825 C5.43625,4.4825 5.623,4.56575 5.7585,4.701 L7.9685,6.91225 L10.18,4.7015 C10.315,4.5665 10.50275,4.483 10.70775,4.483 C11.12,4.483 11.45475,4.817 11.45475,5.23 C11.45475,5.4365 11.37125,5.62325 11.2355,5.7585 L9.0255,7.9685 L11.23575,10.18025 L11.23575,10.18025 Z" id="Shape"></path>
                    </g>
                </g>
            </g>
        </g>
    </g>
</svg>