<?xml version="1.0" encoding="UTF-8" standalone="no"?>
<svg width="20px" height="20px" viewBox="0 0 20 20" version="1.1" xmlns="http://www.w3.org/2000/svg" xmlns:xlink="http://www.w3.org/1999/xlink">
    <!-- Generator: Sketch 41 (35326) - http://www.bohemiancoding.com/sketch -->
    <title>icon</title>
    <desc>Created with Sketch.</desc>
    <defs></defs>
    <g id="AirCommunity-" stroke="none" stroke-width="1" fill="none" fill-rule="evenodd">
        <g id="AirJet-旅行计划" transform="translate(-48.000000, -404.000000)">
            <g id="card" transform="translate(14.000000, 165.000000)">
                <g id="icon" transform="translate(34.000000, 239.000000)">
                    <circle id="Oval-3" stroke="#4990E2" stroke-width="1.3" cx="10" cy="10" r="9"></circle>
                    <path d="M10.9096271,9.09089772 L10.9096271,5.90828952 C10.9096271,5.40653583 10.5018854,5 10.0003912,5 C9.49811462,5 9.09115516,5.40494158 9.09115516,5.90828952 L9.09115516,9.09011622 L5.91001831,9.09011622 C5.40774177,9.09011622 5,9.49824632 5,9.99918724 C5,10.5009409 5.40614585,10.9082895 5.91001831,10.9082895 L9.09115516,10.9082895 L9.09115516,14.090085 C9.09115516,14.5902444 9.49811462,15 10.0003912,15 C10.5018854,15 10.9096271,14.5934642 10.9096271,14.090085 L10.9096271,10.9106965 L14.0899504,10.9106965 C14.5898174,10.9106965 15,10.5041607 15,10.0007815 C14.9991864,9.49824632 14.5930405,9.09089772 14.0899504,9.09089772 L10.9096271,9.09089772 Z" id="添加" fill="#4990E2"></path>
                </g>
            </g>
        </g>
    </g>
</svg>