<?xml version="1.0" encoding="UTF-8" standalone="no"?>
<svg width="16px" height="16px" viewBox="0 0 16 16" version="1.1" xmlns="http://www.w3.org/2000/svg" xmlns:xlink="http://www.w3.org/1999/xlink">
    <!-- Generator: Sketch 41 (35326) - http://www.bohemiancoding.com/sketch -->
    <title>Artboard Copy 2</title>
    <desc>Created with Sketch.</desc>
    <defs></defs>
    <g id="Page-1" stroke="none" stroke-width="1" fill="none" fill-rule="evenodd">
        <g id="Artboard-Copy-2" fill="#333333">
            <path d="M12.4420779,5.27472325 C11.0654323,6.02412124 9.83214625,6.59374451 9.75555683,6.6280835 C9.73199086,6.64020315 9.70449722,6.64626297 9.67700358,6.64424303 C7.99989173,6.43012932 6.32277987,6.20793584 4.64566802,5.99988195 C4.38840613,5.9574632 4.18220385,6.1412778 4.03688034,6.25843436 C3.87191852,6.38165074 3.71284819,6.51698677 3.55181404,6.64424303 C3.29847981,6.83007757 3.44969481,7.06439069 3.59894598,7.12700885 L6.26975643,8.51268815 C6.4504289,8.62378489 6.34045436,8.7833602 6.26975643,8.83587866 L4.84794264,9.52871831 C4.80866601,9.54487784 4.76349789,9.54487784 4.72225744,9.52871831 C4.13899957,9.24592662 3.37506923,9.04595249 2.89393058,8.86819771 C2.61506655,8.76518074 2.32638336,8.85607807 2.15945771,9.04595249 C2.07501296,9.14290964 2.02002569,9.26410608 2.00235121,9.40146205 C1.98860439,9.51457873 2.03573634,9.67011416 2.12803641,9.75697161 L3.73641417,11.2880866 C3.9210143,11.4618015 4.16060171,11.4416021 4.34520185,11.4335224 C4.74778724,11.4153429 4.99130231,11.4012033 5.38406856,11.3688843 C5.588307,11.3507048 5.81807525,11.2880866 6.03213286,11.17497 C8.99948182,9.56911713 14.547305,6.40589003 14.547305,6.40589003 C14.9754202,6.13319804 15.0500458,5.76556884 14.8595542,5.5352956 C14.6454965,5.26664349 14.1722132,4.99799138 13.5673532,5.00001132 C13.1726231,5.01011102 12.848591,5.07676907 12.4420779,5.27472325 Z" id="Shape"></path>
        </g>
    </g>
</svg>