<?xml version="1.0" encoding="UTF-8" standalone="no"?>
<svg width="16px" height="16px" viewBox="0 0 16 16" version="1.1" xmlns="http://www.w3.org/2000/svg" xmlns:xlink="http://www.w3.org/1999/xlink">
    <!-- Generator: Sketch 41 (35326) - http://www.bohemiancoding.com/sketch -->
    <title>Artboard Copy 3</title>
    <desc>Created with Sketch.</desc>
    <defs></defs>
    <g id="Page-1" stroke="none" stroke-width="1" fill="none" fill-rule="evenodd">
        <g id="Artboard-Copy-3" fill="#333333">
            <g id="icon" transform="translate(3.000000, 1.000000)">
                <path d="M8.38597287,4.65217419 L8.38597287,3.68631339 L7.57672379,3.68631339 L7.57672379,4.65217419 L3.12531353,4.65217419 L3.12531353,3.68631339 L2.31606445,3.68631339 L2.31606445,4.65217419 L2.22650401,4.65217419 C1.20383002,4.65319984 0.375057122,5.48199104 0.374031481,6.50466504 L0.374031481,11.8079801 C0.375057122,12.8307273 1.20375676,13.6596467 2.22650401,13.6609288 L2.51813405,13.6609288 L2.51813405,13.7762768 C2.51813405,14.0743171 2.75976408,14.3159471 3.05780438,14.3159471 C3.35584467,14.3159471 3.5974747,14.0743171 3.5974747,13.7762768 L3.5974747,13.6609288 L7.10503881,13.6609288 L7.10503881,13.7762768 C7.10503881,14.0743171 7.34665053,14.3159471 7.64470914,14.3159471 C7.94274943,14.3159471 8.18436115,14.0743171 8.18436115,13.7762768 L8.18436115,13.6609288 L8.47505712,13.6609288 C9.49787764,13.6596467 10.3267238,12.8308006 10.3280242,11.8079801 L10.3280242,6.50466504 C10.3267238,5.48191778 9.49780438,4.65319984 8.47505712,4.65217419 L8.38597287,4.65217419 Z M3.17923295,6.70862108 C3.40289595,6.70862108 3.58434284,6.89006797 3.58434284,7.11323647 L3.58434284,11.1764233 C3.58434284,11.4000313 3.4030791,11.5812951 3.17947104,11.5812951 C2.9558813,11.5812951 2.77461756,11.4000313 2.77461756,11.1764233 L2.77461756,7.11323647 C2.77461756,6.88959178 2.95558826,6.70862108 3.17923295,6.70862108 Z M7.4979509,6.70862108 C7.72159558,6.70862108 7.90258459,6.89006797 7.90258459,7.11323647 L7.90258459,11.1764233 C7.90258459,11.3999031 7.72141243,11.581057 7.4979509,11.581057 C7.27447104,11.581057 7.0933172,11.3999031 7.0933172,11.1764233 L7.0933172,7.11323647 C7.0933172,6.88959178 7.27430621,6.70862108 7.4979509,6.70862108 Z M4.06914137,1.77569068 L6.63241976,1.77569068 C7.15285932,1.77569068 7.5762476,2.19907896 7.5762476,2.71951852 L7.5762476,3.14711925 L8.385515,3.14711925 L8.385515,2.71951852 C8.38421463,1.75158811 7.59989229,0.967247455 6.63196188,0.965965403 L4.0686835,0.965965403 C3.1006432,0.966991044 2.31615602,1.75147822 2.31513038,2.71951852 L2.31513038,3.14711925 L3.12437947,3.14711925 L3.12437947,2.71951852 C3.12485566,2.19907896 3.54870181,1.77569068 4.06914137,1.77569068 Z" id="行李箱"></path>
            </g>
        </g>
    </g>
</svg>