<?xml version="1.0" encoding="UTF-8" standalone="no"?>
<svg width="26px" height="26px" viewBox="0 0 26 26" version="1.1" xmlns="http://www.w3.org/2000/svg" xmlns:xlink="http://www.w3.org/1999/xlink">
    <!-- Generator: Sketch 42 (36781) - http://www.bohemiancoding.com/sketch -->
    <title>icon_swap</title>
    <desc>Created with Sketch.</desc>
    <defs></defs>
    <g id="Page-2" stroke="none" stroke-width="1" fill="none" fill-rule="evenodd">
        <g id="01-01旅行计划" transform="translate(-175.000000, -246.000000)">
            <g id="card" transform="translate(14.000000, 165.000000)">
                <g id="icon" transform="translate(161.000000, 81.000000)">
                    <circle id="Oval-3" stroke="#EE4A4A" stroke-width="1.3" cx="13" cy="13" r="12"></circle>
                    <path d="M17.081511,7.71905124 C16.8416515,7.4791918 16.4818272,7.4791918 16.2419327,7.71905124 C16.0020381,7.95894583 16.0020381,8.31877013 16.2419327,8.55866471 L18.2914409,10.5976457 L6.40674671,10.5976457 C6.0469224,10.5976457 5.80702782,10.8375403 5.80702782,11.1973646 C5.80702782,11.5571889 6.0469224,11.7970835 6.40674671,11.7970835 L19.6002811,11.7970835 C20.0800703,11.7970835 20.4398946,11.1973646 20.0800703,10.7176105 L17.081511,7.71905124 Z M6.40674671,14.1958887 C5.92695754,14.1958887 5.56713324,14.7956076 5.92695754,15.2753616 L8.92551684,18.2739209 C9.16537628,18.5137804 9.52520059,18.5137804 9.76509517,18.2739209 C10.0049898,18.0340264 10.0049898,17.674202 9.76509517,17.4343075 L7.84604392,15.3953265 L19.6002811,15.3953265 C19.9601054,15.3953265 20.2,15.1554319 20.2,14.7956076 C20.2,14.4357833 19.9601054,14.1958887 19.6002811,14.1958887 L6.40674671,14.1958887 Z" id="Fill-2" fill="#EE4A4A"></path>
                </g>
            </g>
        </g>
    </g>
</svg>