<?xml version="1.0" encoding="UTF-8"?>
<svg width="60px" height="60px" viewBox="0 0 60 60" version="1.1" xmlns="http://www.w3.org/2000/svg" xmlns:xlink="http://www.w3.org/1999/xlink">
    <!-- Generator: Sketch 42 (36781) - http://www.bohemiancoding.com/sketch -->
    <title>成功</title>
    <desc>Created with Sketch.</desc>
    <defs></defs>
    <g id="Page-1" stroke="none" stroke-width="1" fill="none" fill-rule="evenodd">
        <g id="AirJet-自助下单-成功订单" transform="translate(-158.000000, -156.000000)" fill-rule="nonzero" fill="#4E9FE4">
            <g id="成功" transform="translate(158.000000, 156.000000)">
                <path d="M29.9906792,59.9997982 C15.9992121,59.9910894 3.87116675,50.3127291 0.758308418,36.6719322 C-2.90078285,20.7549669 7.05277447,4.64492977 22.9184722,0.869122793 C30.5677128,-0.951969141 37.8460812,0.103926035 44.7290343,3.90100365 C45.6289449,4.39731803 46.0074528,5.25032426 45.7412974,6.14259932 C45.4915041,6.97978893 44.6984919,7.55736797 43.824215,7.46410447 C43.4773403,7.42701727 43.1222846,7.28412234 42.8130427,7.11232119 C40.0822229,5.59719885 37.1856013,4.54348529 34.0975442,4.0869852 C27.0547888,3.04527041 20.564524,4.5123975 14.768554,8.66289457 C9.01239814,12.7833946 5.44002551,18.3841113 4.19160398,25.3548739 C1.68767074,39.3356678 10.5586083,52.2932905 23.8102018,55.5111529 C37.7664527,58.900271 51.8323291,50.4792888 55.4041563,36.5666699 C57.1385296,29.8102498 56.2522539,23.3407102 52.8947691,17.2202269 C52.6662463,16.8040864 52.4759016,16.3846734 52.530987,15.8970855 C52.6269775,15.0517148 53.2029203,14.4037792 53.9953871,14.2390683 C54.8325767,14.0650856 55.6010459,14.4010522 56.0390024,15.160795 C56.9232835,16.6981114 57.6652053,18.3130327 58.2555096,19.9854069 C64.1501971,36.6359358 54.521153,54.6979609 37.4092154,59.0818893 C34.9852005,59.7006831 32.492412,60.0091203 29.9906792,59.9997982 L29.9906792,59.9997982 Z M26.2546864,34.9888266 C26.413398,34.7597584 26.478846,34.6277715 26.5775634,34.529054 C30.9713091,30.129309 35.3688725,25.7344725 39.7604366,21.3330913 C40.2905658,20.8018713 40.8845068,20.5149907 41.6453404,20.6862464 C43.0208402,20.9954885 43.5760578,22.6387798 42.6679661,23.7175819 C42.5763388,23.8266619 42.4727128,23.924834 42.3718137,24.0257331 C37.5095691,28.8901593 32.6473246,33.7545854 27.7839892,38.6184662 C26.7749984,39.6269116 25.7480095,39.630184 24.7433819,38.6266472 C22.3228949,36.2105235 19.8985901,33.7993083 17.4857388,31.3766397 C16.4260258,30.3131089 16.8421663,28.6032787 18.2531171,28.2116812 C18.9894077,28.007156 19.6264354,28.2171352 20.1674725,28.757627 C22.0889181,30.6828904 24.0163632,32.6026998 25.9378088,34.5279632 C26.0370717,34.6272261 26.1014289,34.7624854 26.2541411,34.9888266 L26.2546864,34.9888266 Z" id="Shape"></path>
            </g>
        </g>
    </g>
</svg>