<?xml version="1.0" encoding="UTF-8" standalone="no"?>
<svg width="70px" height="54px" viewBox="0 0 70 54" version="1.1" xmlns="http://www.w3.org/2000/svg" xmlns:xlink="http://www.w3.org/1999/xlink">
    <!-- Generator: Sketch 41 (35326) - http://www.bohemiancoding.com/sketch -->
    <title>已失效</title>
    <desc>Created with Sketch.</desc>
    <defs></defs>
    <g id="Page-1" stroke="none" stroke-width="1" fill="none" fill-rule="evenodd">
        <g id="已失效" fill="#E95253">
            <g id="失效" transform="translate(4.000000, 3.000000)">
                <path d="M13.4081838,19.7323114 L21.3927037,21.9358367 L23.0009459,15.7546048 L12.6766256,12.9054076 L12.1996702,14.7389685 L20.5402435,17.0409451 L19.8860568,19.5552023 L13.8851392,17.8987505 L14.1982407,16.6942321 L12.2149999,16.1467171 L10.6204966,22.2754859 C10.2047153,23.7326072 10.7650439,24.6540601 12.2996024,25.040801 L18.555412,26.7670074 C19.9360229,27.1849466 20.8646253,26.8990114 21.3406407,25.9075832 C21.6574299,25.2468273 21.9766053,24.5111661 22.2962869,23.7008939 C21.7554819,23.4028179 21.1573353,23.0497771 20.4998224,22.6439787 C20.4113152,22.844045 20.2953303,23.1488904 20.1529523,23.558515 C19.9935815,23.889408 19.8965417,24.1249403 19.8602422,24.2641552 C19.6012285,24.9783308 19.0745963,25.1892871 18.2789716,24.8941543 L13.4478096,23.5609431 C12.7598542,23.4087044 12.5242689,22.9883371 12.7402583,22.2990318 L13.4081838,19.7323114 Z M36.6847792,23.1807509 L37.1617346,21.3475579 L33.0421732,20.2103661 C33.2300341,19.626355 33.4380694,18.8976103 33.6654114,18.0242794 L31.7327152,17.491039 C31.6782659,17.7006709 31.5920003,18.0329619 31.4737015,18.4862199 C31.3034842,19.0006235 31.1823653,19.3978129 31.1095493,19.6771993 L29.278593,19.1716254 C29.4801927,18.8160828 29.6911204,18.4247799 29.9110868,17.9988204 L28.1889567,17.0743508 C27.5023752,18.4567875 26.6083369,19.7259834 25.5087942,20.8822327 C26.030437,21.2507991 26.5336409,21.6899296 27.0199243,22.1977109 C27.4270284,21.7487207 27.8012316,21.2903856 28.1405815,20.8227794 L30.5819771,21.4963384 C30.5274555,21.7060438 30.4281741,22.0154512 30.2857238,22.4252229 C30.1946858,22.7748055 30.1311978,23.0196089 30.0950429,23.1585295 L24.8567767,21.713034 L24.379749,23.5463741 L29.3128679,24.9076932 C28.5425516,26.1924882 26.5688558,26.8647228 23.3920695,26.9230724 C23.5655407,27.2321855 23.8252052,27.7723424 24.1704845,28.5413358 C24.2265246,28.7436831 24.2790938,28.8890052 24.3291322,28.9781852 C27.2616559,28.7391946 29.2198775,27.9892587 30.2027122,26.7252871 C30.4989654,28.3792372 31.8267179,29.980577 34.1857526,31.5300423 C34.4893092,31.2015774 35.0207138,30.693796 35.7814852,30.0053737 C33.3003915,28.6469978 31.957454,27.1726586 31.7539742,25.5812522 L36.4838302,26.8867234 L36.9607856,25.0533833 L32.0273053,23.6920642 L32.5142394,22.0295787 L36.6847792,23.1807509 Z M46.1713904,23.2725798 L44.2894557,22.7530991 L44.3188858,20.9645697 L42.3317403,20.6409611 C42.346853,20.720502 42.3493116,20.8519174 42.3381035,21.0355016 C42.3458407,21.5624876 42.352204,21.957028 42.357121,22.2199324 L40.0686606,21.5883144 L39.6323433,23.2645595 L45.7351454,24.9488249 L46.1713904,23.2725798 Z M39.9064698,26.8209422 C40.9129498,26.1634974 41.6928832,25.611126 42.2452578,25.1644903 L41.2053706,23.9232552 C40.3680955,24.6277917 39.4977025,25.2482989 38.594987,25.785439 L39.2989229,27.270889 C39.4368176,27.1600027 39.6393574,27.0098242 39.9064698,26.8209422 Z M49.4753695,22.7246233 L47.8142689,21.9854302 C46.8897159,23.8638019 45.9335635,25.3033374 44.946824,26.3032274 L43.9652909,24.6288954 L42.6013112,25.2627943 C42.8990829,25.794048 43.299173,26.5600981 43.8024492,27.5595466 C43.8918964,27.7718274 43.9620369,27.9217851 44.0121476,28.0102293 L44.9151523,27.4733099 L45.0631705,28.5809958 L45.711717,27.9738803 C45.6757791,29.0869377 45.7623339,30.0843995 45.9694291,30.9646471 C45.3396108,31.4275441 44.6016171,31.8223789 43.7534232,32.1495929 C43.4053238,31.5295272 43.0040768,30.8391182 42.5484527,30.0763792 C43.0504996,29.5412258 43.4360555,29.1056272 43.7063495,28.7678176 C43.8624663,28.5862937 43.9922624,28.4354529 44.0968224,28.3142653 L42.8264839,27.1213727 C42.4254538,27.6846341 42.0301361,28.1562137 41.6410371,28.5348606 L40.5950036,26.8987907 L39.189952,27.6898583 L40.2561599,29.6682999 C39.5156353,30.137672 38.5427793,30.5244129 37.3377366,30.8281546 C37.4506122,31.2329964 37.5929179,31.8712366 37.7662444,32.7428752 C39.1368043,32.2228058 40.2518936,31.7070777 41.1123079,31.1959852 L42.2291327,33.1886279 L42.8368965,32.7389754 L43.5133546,34.3290573 C44.7638079,33.8503404 45.8023935,33.3510944 46.6285329,32.8307307 C47.066441,33.6621206 47.668637,34.5581881 48.4364947,35.5193746 C48.9817106,34.9584678 49.4664754,34.4932162 49.8896324,34.1236932 C49.0945862,33.2682424 48.4785067,32.4245645 48.0409601,31.5921445 C49.0637822,30.4527452 49.9664977,28.8675196 50.7493235,26.8375714 L51.5632426,27.0621402 L52.0264591,25.2810424 L48.6189323,24.3407529 C48.9426633,23.7944887 49.2282147,23.2556562 49.4753695,22.7246233 Z M49.1728977,26.4025615 C48.6734539,27.7622618 48.0852137,28.8352912 47.4087556,29.6215025 C47.2532895,28.6801092 47.2561819,27.483464 47.4164928,26.0300953 L47.4943704,25.9395909 L49.1728977,26.4025615 Z M32.6616791,4.13692628 L31.9118988,3.12923669 L31.3224294,4.28320498 L30.1010446,4.71674328 L31.0025308,5.59169303 L30.9973968,6.86721686 L32.143724,6.25369983 L33.3619271,6.60858022 L33.1692215,5.35461557 L33.9273174,4.29836263 L32.6616791,4.13692628 Z M30.9998554,9.48581174 C35.6428673,9.48581174 39.7608378,11.7988254 42.3278356,15.3666867 L44.1239386,15.8622536 C41.4427637,11.2847161 36.5687219,8.22360604 30.9998554,8.22360604 C28.3097141,8.22360604 25.7817636,8.93917969 23.5847028,10.193733 L25.3772627,10.6883434 C27.099682,9.91530309 29.001285,9.48581174 30.9998554,9.48581174 Z M30.9998554,46.7178631 C20.792677,46.7178631 12.206395,39.5753711 9.69095421,29.8787411 L8.33507324,29.5042882 C10.7500758,40.0950726 19.9809273,47.9800688 30.9998554,47.9800688 C37.6813527,47.9800688 43.7050479,45.0811309 47.9505006,40.4378121 L46.5961381,40.0640215 C42.6048544,44.1751301 37.0905817,46.7178631 30.9998554,46.7178631 Z M23.1901083,5.91096029 L22.1784219,5.1855268 L21.9575878,6.46965959 L20.9218223,7.26506846 L22.0386471,7.81640968 L22.4101748,9.03314242 L23.3212783,8.08983607 L24.586555,8.04657054 L24.0328789,6.91210117 L24.4431647,5.66858501 L23.1901083,5.91096029 Z M30.9998554,1.28191617 C41.2075399,1.28191617 49.7937496,8.42433456 52.3088289,18.1214061 L53.6648545,18.4954175 C51.2497073,7.90492743 42.019145,0.0199312096 31.0002169,0.0199312096 C24.3187919,0.0199312096 18.2954583,2.91886908 14.049644,7.56218788 L15.4039342,7.93597854 C19.3952902,3.82494352 24.909346,1.28191617 30.9998554,1.28191617 Z M46.3708208,12.0609203 L45.3088792,11.3034792 L45.1575348,12.5697318 L44.1567672,13.3205507 L45.3152424,13.9088295 L45.758863,15.1302714 L46.6256405,14.2282439 L47.9008961,14.2321437 L47.278381,13.0857543 L47.622648,11.8670348 L46.3708208,12.0609203 Z M40.2531952,8.66464958 L41.2366084,9.48581174 L41.5396588,8.25531938 L42.64072,7.59265035 L41.5396588,6.92990774 L41.2366084,5.6993418 L40.2531952,6.52050395 L38.9648516,6.42249428 L39.4578598,7.59265035 L38.9648516,8.76280642 L40.2531952,8.66464958 Z M23.4760212,39.9320174 L22.5005621,39.112842 L22.1998256,40.3405383 L21.10802,41.0015149 L22.1998256,41.6624916 L22.5005621,42.8904822 L23.4760212,42.0713067 L24.7540968,42.1689485 L24.2648488,41.0015149 L24.7540968,39.8342285 L23.4760212,39.9320174 Z M15.5065418,35.8862486 L16.5057908,36.7166084 L16.7417377,35.4675737 L17.7836495,34.7927638 L16.6776712,34.1233989 L16.3224855,32.8759829 L15.4027772,33.7114198 L14.1414052,33.6152496 L14.6790285,34.8009313 L14.25457,35.9889675 L15.5065418,35.8862486 Z M60.1681082,21.5970706 L6.90637631,6.89716426 C5.59908753,6.53669174 4.2552823,7.33563248 3.90486903,8.68201466 L0.0991322096,23.3113569 C-0.250847198,24.6577391 0.524819973,26.0418683 1.83218107,26.4027823 L55.0936237,41.1023207 C56.4012017,41.4633083 57.7450069,40.6642204 58.0953479,39.317691 L61.9007232,24.6884223 C62.2510641,23.3418194 61.475397,21.9576903 60.1681082,21.5970706 Z M60.5585811,24.9714878 L57.0701396,38.381522 C56.8072935,39.391419 55.7995119,39.9908085 54.8191357,39.7203989 L2.74125981,25.3473387 C1.76066668,25.0766348 1.17878976,24.0384828 1.44141893,23.0287329 L4.93000499,9.61833083 C5.19256186,8.6085074 6.20070502,8.00933863 7.18100891,8.27967463 L59.2589571,22.6527349 C60.2395503,22.9231444 60.8213549,23.9615908 60.5585811,24.9714878 Z M39.8580222,42.0868323 L40.863273,42.81153 L41.0799131,41.5313705 L42.106423,40.7400086 L40.9969015,40.1886674 L40.6260245,38.9748043 L39.7235983,39.9142845 L38.4679387,39.9554897 L39.0194455,41.0873838 L38.6145107,42.3269266 L39.8580222,42.0868323 Z M30.996023,43.8192195 L31.7398015,44.8249224 L32.3244985,43.6732352 L33.5359045,43.2410949 L32.6417939,42.3680583 L32.6469279,41.0956248 L31.5098564,41.7076702 L30.301632,41.3534521 L30.4927468,42.6045471 L29.7409418,43.6583718 L30.996023,43.8192195 Z M36.622882,37.3113623 C34.9001734,38.0846233 32.998932,38.5141147 30.9998554,38.5141147 C26.357205,38.5141147 22.2393068,36.2013218 19.6718752,32.633019 L17.8758445,32.1374521 C20.5569471,36.7149896 25.4310611,39.7760996 30.9998554,39.7760996 C33.6903582,39.7760996 36.2183087,39.0609675 38.4154418,37.806267 L36.622882,37.3113623 Z" id="Shape"></path>
            </g>
        </g>
    </g>
</svg>