<?xml version="1.0" encoding="UTF-8" standalone="no"?>
<svg width="20px" height="20px" viewBox="0 0 20 20" version="1.1" xmlns="http://www.w3.org/2000/svg" xmlns:xlink="http://www.w3.org/1999/xlink">
    <!-- Generator: Sketch 42 (36781) - http://www.bohemiancoding.com/sketch -->
    <title>icon_add_trip</title>
    <desc>Created with Sketch.</desc>
    <defs></defs>
    <g id="Page-2" stroke="none" stroke-width="1" fill="none" fill-rule="evenodd">
        <g id="01-01旅行计划" transform="translate(-140.000000, -472.000000)">
            <g id="btn" transform="translate(14.000000, 455.000000)">
                <g id="icon" transform="translate(126.000000, 17.000000)">
                    <circle id="Oval-3" stroke="#666666" stroke-width="1.3" cx="10" cy="10" r="9"></circle>
                    <path d="M10.7277017,9.27271818 L10.7277017,6.72663161 C10.7277017,6.32522867 10.4015083,6 10.0003129,6 C9.5984917,6 9.27292413,6.32395326 9.27292413,6.72663161 L9.27292413,9.27209298 L6.72801464,9.27209298 C6.32619342,9.27209298 6,9.59859705 6,9.99934979 C6,10.4007527 6.32491668,10.7266316 6.72801464,10.7266316 L9.27292413,10.7266316 L9.27292413,13.272068 C9.27292413,13.6721955 9.5984917,14 10.0003129,14 C10.4015083,14 10.7277017,13.6747713 10.7277017,13.272068 L10.7277017,10.7285572 L13.2719603,10.7285572 C13.6718539,10.7285572 14,10.4033286 14,10.0006252 C13.9993491,9.59859705 13.6744324,9.27271818 13.2719603,9.27271818 L10.7277017,9.27271818 Z" id="添加" fill="#666666"></path>
                </g>
            </g>
        </g>
    </g>
</svg>