<?xml version="1.0" encoding="UTF-8" standalone="no"?>
<svg width="16px" height="16px" viewBox="0 0 16 16" version="1.1" xmlns="http://www.w3.org/2000/svg" xmlns:xlink="http://www.w3.org/1999/xlink">
    <!-- Generator: Sketch 42 (36781) - http://www.bohemiancoding.com/sketch -->
    <title>icon_plane</title>
    <desc>Created with Sketch.</desc>
    <defs></defs>
    <g id="Page-2" stroke="none" stroke-width="1" fill="none" fill-rule="evenodd">
        <g id="01-04旅行计划-机型选择" transform="translate(-272.000000, -325.000000)" fill="#4E9FE4">
            <g id="Group" transform="translate(14.000000, 120.000000)">
                <g id="Group-2-Copy-2" transform="translate(258.000000, 205.000000)">
                    <g id="icon">
                        <path d="M6.25725794,3.04726087 L5.10107283,3.04624507 C5.10107283,3.04624507 6.13655816,5.29583875 6.34066651,5.78951821 L9.25436855,5.79940534 L6.25725794,3.04726087 Z M0.111434008,4.57362656 L1.09506832,4.57362656 C1.09506832,4.57362656 1.75369134,5.25446178 2.1218629,5.72367171 C2.61452656,6.35179812 3.86960557,6.13802837 4.78694191,6.18796065 L12.3541202,6.18796065 C12.8882963,6.18796065 13.4157004,6.2964708 13.8934205,6.45999225 C14.753285,6.76518412 15.3376643,7.16202385 15.6672128,7.5068997 C15.8124724,7.65974394 15.8636236,7.77437148 15.8534882,7.86504868 C15.7922015,8.41215929 14.5467613,8.68981166 13.8784543,8.68981166 L11.0068968,8.68981166 L4.76956042,13.0083444 L3.61292385,13.0093602 C3.61292385,13.0093602 5.25985387,10.8050261 5.57107283,10.3556807 C5.85865748,9.93999225 6.31421053,9.39387487 6.31660331,8.68981166 L3.87470715,8.51468751 C3.34931211,8.47701257 2.84095997,8.30220444 2.3953392,8.00595162 L2.05592611,7.78030828 C1.52441369,7.42698999 1.10387193,6.91540986 0.847348229,6.31010512 L0.111434008,4.57362656 Z" id="飞机"></path>
                    </g>
                </g>
            </g>
        </g>
    </g>
</svg>