<?xml version="1.0" encoding="UTF-8"?>
<svg width="60px" height="60px" viewBox="0 0 60 60" version="1.1" xmlns="http://www.w3.org/2000/svg" xmlns:xlink="http://www.w3.org/1999/xlink">
    <!-- Generator: Sketch 42 (36781) - http://www.bohemiancoding.com/sketch -->
    <title>成功</title>
    <desc>Created with Sketch.</desc>
    <defs></defs>
    <g id="Page-1" stroke="none" stroke-width="1" fill="none" fill-rule="evenodd">
        <g id="AirJet-自助下单-成功订单-Copy" transform="translate(-158.000000, -161.000000)" fill-rule="nonzero" fill="#999999">
            <g id="成功" transform="translate(158.000000, 161.000000)">
                <path d="M30.2152053,32.3364709 L21.7357401,40.815936 C21.1467263,41.4049498 20.1984466,41.41165 19.6085762,40.8217796 C19.0227897,40.2359932 19.0207264,39.288309 19.6144198,38.6946157 L28.0938849,30.2151505 L19.6124727,21.7337383 C19.0234589,21.1447245 19.0167587,20.1964448 19.6066291,19.6065743 C20.1924155,19.0207879 21.1400997,19.0187246 21.733793,19.6124179 L30.2152053,28.0938302 L38.6946157,19.6144198 C39.2836294,19.025406 40.2319092,19.0187057 40.8217796,19.6085762 C41.407566,20.1943626 41.4096294,21.1420467 40.815936,21.7357401 L32.3365256,30.2151505 L40.8139889,38.6926139 C41.4030027,39.2816276 41.409703,40.2299074 40.8198325,40.8197778 C40.2340461,41.4055642 39.286362,41.4076276 38.6926686,40.8139342 L30.2152053,32.3364709 Z M29.9933849,59.9997949 C16.00029,59.991086 3.87083356,50.3126901 0.757613064,36.6718429 C-2.90190393,20.7548189 7.05281145,4.64472237 22.9203551,0.868901483 C30.5704856,-0.952197163 37.8497008,0.103701905 44.7334547,3.90079352 C45.6334701,4.39710972 46.012022,5.2501191 45.7458357,6.14239745 C45.4960132,6.97959014 44.7029088,7.55717131 43.8285302,7.46390747 C43.4816152,7.42682013 43.1265182,7.28392468 42.8172402,7.1121229 C40.0861027,5.59699497 37.1891441,4.54327753 34.1007277,4.08677575 C27.0571529,3.04505712 20.5661331,4.51218962 14.7694887,8.66270199 C9.01266312,12.7832172 5.43987485,18.3839546 4.19130808,25.3547428 C1.68708352,39.3355883 10.5590532,52.2932588 23.8121885,55.511133 C37.7700631,58.9002636 51.837576,50.4792504 55.4098188,36.5665802 C57.1443939,29.8101351 56.2580151,23.3405717 52.9001396,17.2200658 C52.6715902,16.8039238 52.4812233,16.3845093 52.5363152,15.8969196 C52.6323168,15.0515458 53.2083267,14.4036078 54.0008857,14.2388963 C54.8381727,14.0649129 55.6067312,14.4008808 56.0447387,15.1606263 C56.9291227,16.6979484 57.6711308,18.3128757 58.2615038,19.9852561 C64.1568772,36.6358463 54.5267128,54.697938 37.4127843,59.0818826 C34.9884873,59.7006786 32.4954088,60.009117 29.9933849,59.9997949 L29.9933849,59.9997949 Z" id="Combined-Shape"></path>
            </g>
        </g>
    </g>
</svg>