<?xml version="1.0" encoding="UTF-8" standalone="no"?>
<svg width="26px" height="25px" viewBox="0 0 26 25" version="1.1" xmlns="http://www.w3.org/2000/svg" xmlns:xlink="http://www.w3.org/1999/xlink">
    <!-- Generator: Sketch 41 (35326) - http://www.bohemiancoding.com/sketch -->
    <title>新增行程</title>
    <desc>Created with Sketch.</desc>
    <defs></defs>
    <g id="AirCommunity-" stroke="none" stroke-width="1" fill="none" fill-rule="evenodd">
        <g id="AirJet-旅行计划" transform="translate(-133.000000, -471.000000)" fill="#9B9B9B">
            <g id="card" transform="translate(14.000000, 165.000000)">
                <g id="新增行程" transform="translate(119.000000, 306.000000)">
                    <path d="M19.6190157,12.2425991 C16.0944966,12.2425991 13.2380315,15.0944056 13.2380315,18.6132284 C13.2380315,22.1320804 16.0944674,24.9838287 19.6190157,24.9838287 C23.1435933,24.9837995 26,22.1310315 26,18.6132284 C26,15.0944056 23.1435933,12.2425991 19.6190157,12.2425991 Z M23.1405551,19.5194056 L20.5024315,19.5194056 L20.5024315,22.1360431 L18.7254921,22.1360431 L18.7254921,19.5194056 L16.0884494,19.5194056 L16.0884494,17.7100233 L18.7255213,17.7100233 L18.7255213,15.0944056 L20.5024607,15.0944056 L20.5024607,17.7100524 L23.1405843,17.7100524 L23.1405843,19.5194056 L23.1405551,19.5194056 Z M16.1710652,9.11637529 L4.83155955,9.11637529 L4.83155955,10.864627 L16.1710652,10.864627 L16.1710652,9.11637529 Z M14.5299978,12.9236597 L4.83155955,12.9236597 L4.83155955,14.6719114 L13.0764517,14.6719114 C13.4720022,14.0185897 13.9631101,13.4296329 14.5299978,12.9236597 Z M2.33815955,21.6783217 L2.33815955,5.62526224 L18.6663348,5.62526224 L18.6663348,11.0436189 C18.9777798,11.0050117 19.2949798,10.9848485 19.6168831,10.9848485 C20.0907843,10.9848485 20.5544899,11.0282925 21.0044944,11.11081 L21.0044944,1.99922243 C21.0044944,0.895082371 20.1019575,0 19.0095061,0 L1.99498832,0 C0.893186696,0 0,0.897374721 0,2.00572551 L0,22.0035985 C0,23.1113301 0.888723286,24.009324 2.0054105,24.009324 L14.2071888,24.009324 C13.5417933,23.3424825 12.9995034,22.5531469 12.616164,21.6783217 L2.33815955,21.6783217 Z M4.83150112,18.48412 L11.9792517,18.48412 C11.9896809,17.881789 12.0696382,17.2964161 12.2119079,16.7358683 L4.83150112,16.7358683 L4.83150112,18.48412 Z" id="Shape"></path>
                </g>
            </g>
        </g>
    </g>
</svg>