<?xml version="1.0" encoding="UTF-8" standalone="no"?>
<svg width="16px" height="16px" viewBox="0 0 16 16" version="1.1" xmlns="http://www.w3.org/2000/svg" xmlns:xlink="http://www.w3.org/1999/xlink">
    <!-- Generator: Sketch 42 (36781) - http://www.bohemiancoding.com/sketch -->
    <title>icon_people_02</title>
    <desc>Created with Sketch.</desc>
    <defs></defs>
    <g id="Page-2" stroke="none" stroke-width="1" fill="none" fill-rule="evenodd">
        <g id="01-04旅行计划-机型选择" transform="translate(-24.000000, -325.000000)" fill-rule="nonzero" fill="#4E9FE4">
            <g id="Group" transform="translate(14.000000, 120.000000)">
                <g id="Group-2" transform="translate(10.000000, 205.000000)">
                    <g id="icon">
                        <path d="M11.8477794,5.2407466 C11.8477794,3.28127644 10.3761962,1.69467702 8.56201292,1.69467702 C6.7462389,1.69467702 5.27467126,3.28207181 5.27467126,5.2407466 C5.27467126,6.22369433 5.64598247,7.11481627 6.24561053,7.75600611 C6.31987589,7.82702763 8.41033192,9.75940856 10.6460748,7.98274783 C11.3790593,7.33279337 11.8477794,6.34667977 11.8477794,5.2407466 Z M11.0636732,8.80838464 C10.3929457,9.35776427 8.49336191,10.516332 5.86633006,8.76683845 C5.07582972,9.37530912 2.96307225,11.1224165 3.19779881,12.300962 C3.19779881,12.300962 3.239345,13.5298338 5.47351277,13.5897202 C5.47351277,13.5897202 12.1320214,14.0815839 13.2395453,12.9357421 C13.2379546,12.9349623 14.4476441,12.1556127 12.8498939,10.4357349 L11.0636732,8.80838464 Z" id="Shape"></path>
                    </g>
                </g>
            </g>
        </g>
    </g>
</svg>