<?xml version="1.0" encoding="UTF-8" standalone="no"?>
<svg width="16px" height="16px" viewBox="0 0 16 16" version="1.1" xmlns="http://www.w3.org/2000/svg" xmlns:xlink="http://www.w3.org/1999/xlink">
    <!-- Generator: Sketch 42 (36781) - http://www.bohemiancoding.com/sketch -->
    <title>icon_luggage</title>
    <desc>Created with Sketch.</desc>
    <defs></defs>
    <g id="Page-2" stroke="none" stroke-width="1" fill="none" fill-rule="evenodd">
        <g id="01-04旅行计划-机型选择" transform="translate(-73.000000, -325.000000)" fill="#4E9FE4">
            <g id="Group" transform="translate(14.000000, 120.000000)">
                <g id="Group-2-Copy" transform="translate(59.000000, 205.000000)">
                    <g id="icon">
                        <path d="M11.3859729,4.65217419 L11.3859729,3.68631339 L10.5767238,3.68631339 L10.5767238,4.65217419 L6.12531353,4.65217419 L6.12531353,3.68631339 L5.31606445,3.68631339 L5.31606445,4.65217419 L5.22650401,4.65217419 C4.20383002,4.65319984 3.37505712,5.48199104 3.37403148,6.50466504 L3.37403148,11.8079801 C3.37505712,12.8307273 4.20375676,13.6596467 5.22650401,13.6609288 L5.51813405,13.6609288 L5.51813405,13.7762768 C5.51813405,14.0743171 5.75976408,14.3159471 6.05780438,14.3159471 C6.35584467,14.3159471 6.5974747,14.0743171 6.5974747,13.7762768 L6.5974747,13.6609288 L10.1050388,13.6609288 L10.1050388,13.7762768 C10.1050388,14.0743171 10.3466505,14.3159471 10.6447091,14.3159471 C10.9427494,14.3159471 11.1843612,14.0743171 11.1843612,13.7762768 L11.1843612,13.6609288 L11.4750571,13.6609288 C12.4978776,13.6596467 13.3267238,12.8308006 13.3280242,11.8079801 L13.3280242,6.50466504 C13.3267238,5.48191778 12.4978044,4.65319984 11.4750571,4.65217419 L11.3859729,4.65217419 Z M6.17923295,6.70862108 C6.40289595,6.70862108 6.58434284,6.89006797 6.58434284,7.11323647 L6.58434284,11.1764233 C6.58434284,11.4000313 6.4030791,11.5812951 6.17947104,11.5812951 C5.9558813,11.5812951 5.77461756,11.4000313 5.77461756,11.1764233 L5.77461756,7.11323647 C5.77461756,6.88959178 5.95558826,6.70862108 6.17923295,6.70862108 Z M10.4979509,6.70862108 C10.7215956,6.70862108 10.9025846,6.89006797 10.9025846,7.11323647 L10.9025846,11.1764233 C10.9025846,11.3999031 10.7214124,11.581057 10.4979509,11.581057 C10.274471,11.581057 10.0933172,11.3999031 10.0933172,11.1764233 L10.0933172,7.11323647 C10.0933172,6.88959178 10.2743062,6.70862108 10.4979509,6.70862108 Z M7.06914137,1.77569068 L9.63241976,1.77569068 C10.1528593,1.77569068 10.5762476,2.19907896 10.5762476,2.71951852 L10.5762476,3.14711925 L11.385515,3.14711925 L11.385515,2.71951852 C11.3842146,1.75158811 10.5998923,0.967247455 9.63196188,0.965965403 L7.0686835,0.965965403 C6.1006432,0.966991044 5.31615602,1.75147822 5.31513038,2.71951852 L5.31513038,3.14711925 L6.12437947,3.14711925 L6.12437947,2.71951852 C6.12485566,2.19907896 6.54870181,1.77569068 7.06914137,1.77569068 Z" id="行李箱"></path>
                    </g>
                </g>
            </g>
        </g>
    </g>
</svg>