<?xml version="1.0" encoding="UTF-8" standalone="no"?>
<svg width="16px" height="16px" viewBox="0 0 16 16" version="1.1" xmlns="http://www.w3.org/2000/svg" xmlns:xlink="http://www.w3.org/1999/xlink">
    <!-- Generator: Sketch 42 (36781) - http://www.bohemiancoding.com/sketch -->
    <title>icon_trip_recommend</title>
    <desc>Created with Sketch.</desc>
    <defs>
        <rect id="path-1" x="3" y="3" width="12" height="12" rx="2"></rect>
        <mask id="mask-2" maskContentUnits="userSpaceOnUse" maskUnits="objectBoundingBox" x="0" y="0" width="12" height="12" fill="white">
            <use xlink:href="#path-1"></use>
        </mask>
    </defs>
    <g id="Page-2" stroke="none" stroke-width="1" fill="none" fill-rule="evenodd">
        <g id="01-02旅行计划-已填写" transform="translate(-15.000000, -538.000000)">
            <g id="Group" transform="translate(0.000000, 526.000000)">
                <g id="Group-2" transform="translate(14.000000, 11.000000)">
                    <use id="Rectangle-7" stroke="#4E9FE4" mask="url(#mask-2)" stroke-width="2" transform="translate(9.000000, 9.000000) rotate(-315.000000) translate(-9.000000, -9.000000) " xlink:href="#path-1"></use>
                    <path d="M5.56691173,6.50633715 C5.56691173,5.95243458 6.00479308,5.50340782 6.56984106,5.50340782 L11.5639824,5.50340782 C12.117885,5.50340782 12.5669117,5.94128917 12.5669117,6.50633715 L12.5669117,11.5004785 C12.5669117,12.0543811 12.1290304,12.5034078 11.5639824,12.5034078 L6.56984106,12.5034078 C6.01593849,12.5034078 5.56691173,12.0655265 5.56691173,11.5004785 L5.56691173,6.50633715 Z" id="Rectangle-7" fill="#4E9FE4" transform="translate(9.066912, 9.003408) rotate(-315.000000) translate(-9.066912, -9.003408) "></path>
                </g>
            </g>
        </g>
    </g>
</svg>