<?xml version="1.0" encoding="UTF-8" standalone="no"?>
<svg width="16px" height="16px" viewBox="0 0 16 16" version="1.1" xmlns="http://www.w3.org/2000/svg" xmlns:xlink="http://www.w3.org/1999/xlink">
    <!-- Generator: Sketch 41 (35326) - http://www.bohemiancoding.com/sketch -->
    <title>Artboard Copy 4</title>
    <desc>Created with Sketch.</desc>
    <defs></defs>
    <g id="Page-1" stroke="none" stroke-width="1" fill="none" fill-rule="evenodd">
        <g id="Artboard-Copy-4" fill="#333333">
            <g id="床白" transform="translate(2.000000, 4.000000)">
                <g id="Group">
                    <path d="M0.0361414585,8.98801734 C0.0270565037,6.83702945 0.0110118085,2.87755619 0.0143375415,0.726631053 C0.0149215744,0.289144119 0.297301677,-0.0104161278 0.691621482,0.0165384889 C1.19153777,0.0506161533 1.39491113,0.381586845 1.39531671,0.758857354 C1.3960792,1.70501463 1.34544676,4.45586043 1.34562521,5.40200202 L1.34562521,5.9227533 L11.6547862,5.9227533 C11.6547862,5.38290785 11.6528232,4.86830686 11.6557759,4.35390984 C11.6567655,4.17104833 11.6493353,3.98572356 11.681376,3.80593722 C11.7363562,3.49806151 11.9485063,3.30176978 12.3309995,3.3056294 C12.7132168,3.30970868 12.9314506,3.51743809 12.9735496,3.8182535 C13.0156,4.11949253 12.9950778,4.42747806 12.9934068,4.7325924 C12.9852952,6.15098893 12.9741499,7.56946391 12.9640753,8.98800164 L11.6713014,8.98800164 L11.6713014,7.34406807 L1.41776955,7.34406807 C1.3874485,7.90355682 1.35813326,8.44577138 1.32888292,8.98800164 C0.898028601,8.98801734 0.467044468,8.98801734 0.0361414585,8.98801734 Z" id="Shape"></path>
                    <path d="M5.7011184,3.13186782 C7.26738214,3.13186782 8.78161824,3.11693138 10.2951567,3.14055983 C10.7723931,3.14802805 11.1450388,3.41677406 11.1862942,3.90147079 C11.2350934,4.47316599 11.1978289,5.05170182 11.1978289,5.65488592 L5.70116707,5.65488592 C5.7011184,4.81690795 5.7011184,4.00351551 5.7011184,3.13186782 Z" id="Shape"></path>
                    <path d="M4.40385067,3.70280991 C4.56890496,3.36253532 4.72190547,3.17035424 4.99312404,3.11796688 C5.24948222,3.06848209 5.52178773,3.1272394 5.52178773,3.1272394 L5.52178773,5.6548859 L3.996601,5.6548859 C3.99661724,5.6548859 4.22267057,4.07603252 4.40385067,3.70280991 Z" id="Shape"></path>
                    <path d="M4.01322975,4.52385886 C4.00667559,5.06830134 3.43586417,5.60900971 2.86991968,5.60676611 C2.26726221,5.60411457 1.72850773,5.05736574 1.74572049,4.46546242 C1.76272235,3.87578702 2.27448152,3.39292595 2.87893976,3.39618937 C3.49668473,3.39956263 4.02046526,3.92037666 4.01322975,4.52385886 Z" id="Shape"></path>
                </g>
            </g>
        </g>
    </g>
</svg>