<?xml version="1.0" encoding="UTF-8" standalone="no"?>
<svg width="16px" height="16px" viewBox="0 0 16 16" version="1.1" xmlns="http://www.w3.org/2000/svg" xmlns:xlink="http://www.w3.org/1999/xlink">
    <!-- Generator: Sketch 41 (35326) - http://www.bohemiancoding.com/sketch -->
    <title>Artboard Copy</title>
    <desc>Created with Sketch.</desc>
    <defs></defs>
    <g id="Page-1" stroke="none" stroke-width="1" fill="none" fill-rule="evenodd">
        <g id="Artboard-Copy" fill="#9B9B9B">
            <g id="自助值机-copy" transform="translate(3.000000, 3.000000)">
                <path d="M9.39161254,4.68739897 L3.80013972,5.33654921 L3.34700098,4.28205767 L7.82437759,3.71897727 C8.15321677,3.67769237 8.38431614,3.39353835 8.34040559,3.08422762 C8.29649505,2.77488296 7.99404222,2.55749006 7.66491213,2.59901676 L2.88223414,3.20048487 L1.70134006,0.452377904 C1.61636869,0.157793803 1.28985559,-0.0172091604 0.972482763,0.0618190402 L0.441256661,0 C0.123907104,0.0790172487 -0.0645838051,0.38196578 0.0203759222,0.676789486 L1.70088741,5.86261827 C1.67326877,5.92633886 1.65793104,5.9958768 1.65793104,6.06877145 L2.11409404,7.13770626 L2.20902022,7.43060654 C2.22623139,7.49016187 2.25343112,7.54473139 2.2882584,7.59339712 C2.31772604,7.87289244 2.57178022,8.09130286 2.88060623,8.09130286 L6.54103635,8.09130286 L5.94996852,9.35787325 C5.94164279,9.37570605 5.93466454,9.3937686 5.92869979,9.41193947 L4.23426833,9.41193947 C3.35771332,9.41193947 2.64768231,10.0797748 2.6476823,10.9037967 L8.73021563,10.9037967 C8.73021563,10.1371321 8.11532025,9.50579387 7.32380641,9.42159384 L7.94459788,8.09130286 L8.2348293,8.09130286 C8.56314485,8.09130286 8.79272102,8.02308769 8.96654794,7.61360302 L9.98633469,5.2400821 C9.98632018,4.93493552 9.72020735,4.68739897 9.39161254,4.68739897 Z" id="Shape"></path>
            </g>
        </g>
    </g>
</svg>