<?xml version="1.0" encoding="UTF-8" standalone="no"?>
<svg width="18px" height="18px" viewBox="0 0 18 18" version="1.1" xmlns="http://www.w3.org/2000/svg" xmlns:xlink="http://www.w3.org/1999/xlink">
    <!-- Generator: Sketch 41 (35326) - http://www.bohemiancoding.com/sketch -->
    <title>乘机地点</title>
    <desc>Created with Sketch.</desc>
    <defs></defs>
    <g id="AirCommunity-" stroke="none" stroke-width="1" fill="none" fill-rule="evenodd">
        <g id="路线详情" transform="translate(-16.000000, -931.000000)">
            <g id="Group-3-Copy-2" transform="translate(16.000000, 929.000000)">
                <g id="乘机地点" transform="translate(0.000000, 2.000000)">
                    <path d="M10,18 L8,18 C3.575,18 0,14.425 0,10 L0,8 C0,3.575 3.575,0 8,0 L10,0 C14.425,0 18,3.575 18,8 L18,10 C18,14.425 14.425,18 10,18 L10,18 Z" id="Shape" fill="#4E9FE4"></path>
                    <path d="M13.5712891,9.46101562 L9.51675781,15.423533 C9.43683594,15.5405035 9.30320312,15.6111111 9.16054688,15.6111111 L9.16011719,15.6111111 C9.01746094,15.6111111 8.88382813,15.5409288 8.80390625,15.423533 L4.75109375,9.47590278 C4.25738281,8.6987934 4,7.81832465 4,6.91871528 C4,4.20670139 6.31300781,2 9.15625,2 C11.9994922,2 14.3125,4.20670139 14.3125,6.91871528 C14.3125,7.81662326 14.0559766,8.69581597 13.5712891,9.46101562 Z M9.15625,2.85069444 C6.78695313,2.85069444 4.859375,4.67585937 4.859375,6.91871528 C4.859375,7.65796875 5.07121094,8.38148437 5.47125,9.01184896 L9.1596875,14.4243924 L12.8507031,8.99696181 C13.2421484,8.37935764 13.453125,7.65669271 13.453125,6.91871528 C13.453125,4.67585937 11.5255469,2.85069444 9.15625,2.85069444 Z M9.15625,9.23983507 C7.80917969,9.23983507 6.71304687,8.19050347 6.71304687,6.90042535 C6.71304687,5.61077257 7.80917969,4.56101563 9.15625,4.56101563 C10.5033203,4.56101563 11.5990234,5.61077257 11.5990234,6.90042535 C11.5990234,8.19050347 10.5033203,9.23983507 9.15625,9.23983507 Z M9.15625,5.41171007 C8.283125,5.41171007 7.57242187,6.07993056 7.57242187,6.90042535 C7.57242187,7.72134549 8.283125,8.38914063 9.15625,8.38914063 C10.029375,8.38914063 10.7396484,7.72134549 10.7396484,6.90042535 C10.7396484,6.07993056 10.029375,5.41171007 9.15625,5.41171007 Z" id="Shape" fill="#FFFFFF"></path>
                </g>
            </g>
        </g>
    </g>
</svg>