<?xml version="1.0" encoding="UTF-8" standalone="no"?>
<svg width="18px" height="18px" viewBox="0 0 18 18" version="1.1" xmlns="http://www.w3.org/2000/svg" xmlns:xlink="http://www.w3.org/1999/xlink">
    <!-- Generator: Sketch 41 (35326) - http://www.bohemiancoding.com/sketch -->
    <title>景点</title>
    <desc>Created with Sketch.</desc>
    <defs></defs>
    <g id="AirCommunity-" stroke="none" stroke-width="1" fill="none" fill-rule="evenodd">
        <g id="路线详情" transform="translate(-15.000000, -498.000000)">
            <g id="Group-3-Copy" transform="translate(15.000000, 496.000000)">
                <g id="景点" transform="translate(0.000000, 2.000000)">
                    <path d="M10,18 L8,18 C3.575,18 0,14.425 0,10 L0,8 C0,3.575 3.575,0 8,0 L10,0 C14.425,0 18,3.575 18,8 L18,10 C18,14.425 14.425,18 10,18 L10,18 Z" id="Shape" fill="#4E9FE4"></path>
                    <path d="M13.9250789,11.8355593 L3.88651031,11.8355593 C3.68862329,11.8355593 3.52820417,11.9926289 3.52820417,12.186384 C3.52820417,12.3801391 3.68862329,12.5372087 3.88651031,12.5372087 L13.9250789,12.5372087 C14.1229659,12.5372087 14.283385,12.3801391 14.283385,12.186384 C14.283385,11.9926289 14.1229659,11.8355593 13.9250789,11.8355593 L13.9250789,11.8355593 Z M12.8494109,13.2388581 L4.96217831,13.2388581 C4.83416785,13.2388581 4.71588131,13.3057249 4.65187608,13.4142704 C4.58787085,13.522816 4.58787085,13.6565496 4.65187608,13.7650952 C4.71588131,13.8736407 4.83416785,13.9405075 4.96217831,13.9405075 L12.8494109,13.9405075 C12.9774214,13.9405075 13.0957079,13.8736407 13.1597131,13.7650952 C13.2237184,13.6565496 13.2237184,13.522816 13.1597131,13.4142704 C13.0957079,13.3057249 12.9774214,13.2388581 12.8494109,13.2388581 L12.8494109,13.2388581 Z M14.0015375,9.59996931 C14.1139767,9.59996931 14.2241671,9.54859331 14.2938794,9.45318074 C14.7538119,8.82996411 15.0009404,8.08042713 14.9999973,7.31153542 C14.9966916,5.27770806 13.3127354,3.63022613 11.2355341,3.62861006 C9.74030933,3.63643718 8.38971816,4.50480426 7.78814931,5.84511755 L7.24169497,5.09649581 C7.17243221,5.00091975 7.05892161,4.94561508 6.93928551,4.94915578 C6.81964942,4.95269648 6.70975759,5.01461287 6.646517,5.11411044 L3.06120684,10.7258377 C2.99331845,10.8321649 2.98852154,10.965877 3.04862307,11.0766061 C3.10872459,11.1873352 3.22459369,11.2582587 3.35258361,11.2626606 C3.48057352,11.2670625 3.60123954,11.2042739 3.66912792,11.0979467 L6.97034179,5.93098887 L10.2438207,10.4146459 C10.3082858,10.5027191 10.4109802,10.5570308 10.5219202,10.5607005 C10.6343594,10.5695079 10.7393026,10.5181319 10.810514,10.4351963 L12.3127013,8.67153157 L14.1919345,11.1221668 C14.3120227,11.2726342 14.5329674,11.3014234 14.6890666,11.1869434 C14.8451657,11.0724635 14.8790798,10.8567659 14.7653743,10.7016176 L13.910087,9.5860244 C13.9400708,9.59409777 13.9708042,9.59996931 14.0015375,9.59996931 Z M13.6499777,9.24694279 L12.6140382,7.89575395 C12.5480684,7.81026013 12.4459452,7.75881033 12.3365479,7.75595398 C12.2271507,7.75309763 12.1223721,7.79914526 12.0518424,7.88107509 L10.5571511,9.63666646 L8.21541813,6.42933608 C8.29715363,6.39196535 8.36104509,6.3252024 8.39382161,6.24291459 C8.85015396,5.09447357 9.97697624,4.33575872 11.2355341,4.32952551 C12.9170108,4.33073785 14.2801558,5.66443537 14.2826354,7.31080148 C14.2826354,7.93538687 14.0847425,8.53428426 13.7106949,9.04364061 C13.6694561,9.10362296 13.6482417,9.17465616 13.6499777,9.24694279 L13.6499777,9.24694279 Z" id="Shape" fill="#FFFFFF"></path>
                </g>
            </g>
        </g>
    </g>
</svg>