<?xml version="1.0" encoding="UTF-8" standalone="no"?>
<svg width="18px" height="18px" viewBox="0 0 18 18" version="1.1" xmlns="http://www.w3.org/2000/svg" xmlns:xlink="http://www.w3.org/1999/xlink">
    <!-- Generator: Sketch 41 (35326) - http://www.bohemiancoding.com/sketch -->
    <title>附近交通</title>
    <desc>Created with Sketch.</desc>
    <defs></defs>
    <g id="AirCommunity-" stroke="none" stroke-width="1" fill="none" fill-rule="evenodd">
        <g id="路线详情" transform="translate(-16.000000, -1006.000000)">
            <g id="附近交通" transform="translate(16.000000, 1006.000000)">
                <path d="M10,18 L8,18 C3.575,18 0,14.425 0,10 L0,8 C0,3.575 3.575,0 8,0 L10,0 C14.425,0 18,3.575 18,8 L18,10 C18,14.425 14.425,18 10,18 L10,18 Z" id="Shape" fill="#4E9FE4"></path>
                <path d="M14.8811743,9.76778143 C14.8362242,9.11163091 14.4480368,8.53207747 13.8919093,8.26184782 L13.3923278,5.70007071 C13.2094715,4.763238 12.3467181,4.00131383 11.4685704,4.00131383 L7.53241341,4.00131383 C6.65425319,4.00131383 5.79126077,4.76322428 5.60865606,5.70007071 L5.10883558,8.26184782 C4.55269553,8.5323381 4.16475959,9.11163091 4.11979699,9.76778143 L4.00665477,11.4111755 C3.95815805,12.1171882 4.32638593,12.7537779 4.90424637,13.0113192 C5.03709667,13.5787603 5.50635517,13.9927878 6.06199213,13.9927878 C6.57822552,13.9927878 7.01767665,13.6412972 7.1848746,13.1341708 L11.816084,13.1341708 C11.9832946,13.6412972 12.4227331,13.9927878 12.9387276,13.9927878 C13.4943645,13.9927878 13.9641135,13.5787603 14.0969638,13.0113192 C14.6748368,12.7537779 15.0428006,12.1174626 14.9940649,11.4111755 L14.8811743,9.76778143 Z M13.7211646,12.3744551 C13.574945,12.4116425 13.46911,12.5499123 13.4615261,12.7135453 C13.4476412,13.0195906 13.2180616,13.2595052 12.9387401,13.2595052 C12.666487,13.2595052 12.4427053,13.0341858 12.418457,12.7353008 C12.4033017,12.5460578 12.2578368,12.4011763 12.083558,12.4011763 L6.91717428,12.4011763 C6.74290808,12.4011763 6.59768208,12.5460578 6.58227532,12.7353008 C6.55802697,13.0341858 6.33450945,13.2595052 6.06200472,13.2595052 C5.78292224,13.2595052 5.55335522,13.019865 5.53945769,12.7135453 C5.53212533,12.5499123 5.42605136,12.4116425 5.28007073,12.3744551 C4.89466274,12.2769392 4.64689687,11.9034187 4.67695578,11.4659896 L4.79009801,9.82286987 C4.81940229,9.39590701 5.11464614,9.00834008 5.50838006,8.88079717 C5.63669009,8.83893214 5.73012423,8.71828901 5.74629818,8.57283139 C5.74832306,8.55189889 5.7498323,8.53067831 5.75134154,8.51002015 C5.75210874,8.49927954 5.75210874,8.4882646 5.75386951,8.47833332 L6.26606571,5.8526613 C6.38426386,5.24637295 6.96413661,4.73456897 7.53241342,4.73456897 L11.4685704,4.73456897 C12.0365831,4.73456897 12.6164685,5.24637296 12.7349181,5.8526613 L13.2468502,8.47807269 C13.2488877,8.48908764 13.2488877,8.49982824 13.2496423,8.51056883 C13.2509,8.53095265 13.2524218,8.55135019 13.2546857,8.57200835 C13.270344,8.71745227 13.3640548,8.83891843 13.4928679,8.88079717 C13.8863503,9.00834008 14.1815941,9.39590701 14.2108858,9.82286987 L14.3238017,11.4659896 C14.3540869,11.9031444 14.1060695,12.2769392 13.7211646,12.3744551 Z M6.91111219,8.60782408 L12.0896201,8.60782408 C12.2143834,8.60782408 12.3217277,8.55742693 12.3876435,8.47065166 C12.4588667,8.38111922 12.4876553,8.25854196 12.468966,8.12548472 C12.4674568,8.11667824 12.4659475,8.10785807 12.4641616,8.0990516 L12.0572973,6.17081899 C12.0062601,5.86672147 11.7304728,5.61274676 11.4465859,5.61274676 L7.55463687,5.61274674 C7.27076259,5.61274674 6.99445962,5.86672146 6.94344752,6.17081898 L6.53682222,8.09905158 C6.53479734,8.10785806 6.5332881,8.11667823 6.5320304,8.12548471 C6.51308952,8.25852823 6.54187816,8.3811055 6.6090642,8.46541166 C6.67925616,8.55741322 6.78634887,8.60782408 6.91111219,8.60782408 Z M7.59630431,6.34602932 L11.4046795,6.34602932 L11.7269387,7.87455523 L7.27379364,7.87455523 L7.59630431,6.34602932 Z M6.50624767,9.86365123 C6.08675616,9.86365123 5.74654972,10.2346889 5.74654972,10.6922275 C5.74654972,11.1500267 6.08675616,11.5208037 6.50624767,11.5208037 C6.92575176,11.5208037 7.26570666,11.1500267 7.26570666,10.6922275 C7.26570666,10.2346889 6.92575176,9.86365123 6.50624767,9.86365123 Z M12.4947362,9.86365123 C12.0752321,9.86365123 11.7350382,10.2346889 11.7350382,10.6922275 C11.7350382,11.1500267 12.0752321,11.5208037 12.4947362,11.5208037 C12.9144792,11.5208037 13.2544215,11.1500267 13.2544215,10.6922275 C13.2544215,10.2346889 12.9144792,9.86365123 12.4947362,9.86365123 Z" id="Shape" fill="#FFFFFF"></path>
            </g>
        </g>
    </g>
</svg>