<?xml version="1.0" encoding="UTF-8" standalone="no"?>
<svg width="84px" height="118px" viewBox="0 0 84 118" version="1.1" xmlns="http://www.w3.org/2000/svg" xmlns:xlink="http://www.w3.org/1999/xlink">
    <!-- Generator: Sketch 41 (35326) - http://www.bohemiancoding.com/sketch -->
    <title>位置</title>
    <desc>Created with Sketch.</desc>
    <defs>
        <path d="M42,0.11471126 C18.8496,0.11471126 0.1008,18.9147291 0.1008,42.1095563 C0.1008,65.3128027 42,117.983162 42,117.983162 C42,117.983162 83.8992,65.3128027 83.8992,42.1095563 C83.8992,18.9147291 65.1504,0.11471126 42,0.11471126 Z M42,67.5859799 C28.1148,67.5859799 16.8588,56.2958662 16.8588,42.3789699 C16.8588,28.4704928 28.1148,17.1887982 42,17.1887982 C55.8768,17.1887982 67.1412,28.4704928 67.1412,42.3789699 C67.1412,56.2958662 55.8768,67.5859799 42,67.5859799 Z" id="path-1"></path>
        <linearGradient x1="0%" y1="45.6770833%" x2="100%" y2="45.6770837%" id="linearGradient-3">
            <stop stop-color="#E2313A" offset="0%"></stop>
            <stop stop-color="#C32C31" offset="100%"></stop>
        </linearGradient>
    </defs>
    <g id="Page-1" stroke="none" stroke-width="1" fill="none" fill-rule="evenodd">
        <g id="位置">
            <g id="Group-2">
                <mask id="mask-2" fill="white">
                    <use xlink:href="#path-1"></use>
                </mask>
                <use id="Shape" fill="#DC3039" xlink:href="#path-1"></use>
                <rect id="Rectangle-2" fill="url(#linearGradient-3)" mask="url(#mask-2)" x="-8" y="-26" width="50" height="165"></rect>
            </g>
            <circle id="Oval" fill="#FFFFFF" cx="42.5" cy="42.5" r="25.5"></circle>
            <circle id="Oval-Copy" stroke="#B2373C" stroke-width="8" cx="42" cy="42" r="28"></circle>
            <g id="飞机" transform="translate(24.000000, 34.000000)" fill="#D23542">
                <g id="Group">
                    <path d="M31.2246596,0.0371875 C30.1603631,0.06375 29.2866868,0.2390625 28.1906203,0.7596875 C24.47882,2.730625 21.1535552,4.22875 20.9470499,4.3190625 C20.8835098,4.3509375 20.8093797,4.366875 20.7352496,4.3615625 C16.2133132,3.7984375 11.6913767,3.2140625 7.16944024,2.666875 C6.47579425,2.5553125 5.91981846,3.03875 5.5279879,3.346875 C5.08320726,3.6709375 4.65431165,4.026875 4.22012103,4.3615625 C3.53706505,4.8503125 3.94478064,5.4665625 4.34720121,5.63125 L11.5484115,9.275625 C12.0355522,9.5678125 11.7390318,9.9875 11.5484115,10.125625 L7.71482602,11.9478125 C7.60892587,11.9903125 7.4871407,11.9903125 7.37594554,11.9478125 C5.80332829,11.2040625 3.74357035,10.678125 2.44629349,10.210625 C1.69440242,9.9396875 0.916036309,10.17875 0.465960666,10.678125 C0.23827534,10.933125 0.0900151286,11.251875 0.0423600605,11.613125 C0.00529500756,11.910625 0.132375189,12.3196875 0.381240545,12.548125 L4.71785174,16.575 C5.21558245,17.031875 5.86157337,16.97875 6.35930408,16.9575 C7.44478064,16.9096875 8.10136157,16.8725 9.16036309,16.7875 C9.71104387,16.7396875 10.3305598,16.575 10.9077156,16.2775 C18.908472,12.0540625 33.8668684,3.7346875 33.8668684,3.7346875 C35.02118,3.0175 35.2223903,2.050625 34.7087746,1.445 C34.1316188,0.7384375 32.8555219,0.031875 31.2246596,0.0371875 L31.2246596,0.0371875 L31.2246596,0.0371875 L31.2246596,0.0371875 Z" id="Shape"></path>
                </g>
            </g>
        </g>
    </g>
</svg>