<?xml version="1.0" encoding="UTF-8" standalone="no"?>
<svg width="18px" height="18px" viewBox="0 0 18 18" version="1.1" xmlns="http://www.w3.org/2000/svg" xmlns:xlink="http://www.w3.org/1999/xlink">
    <!-- Generator: Sketch 41 (35326) - http://www.bohemiancoding.com/sketch -->
    <title>飞行路线</title>
    <desc>Created with Sketch.</desc>
    <defs></defs>
    <g id="AirCommunity-" stroke="none" stroke-width="1" fill="none" fill-rule="evenodd">
        <g id="路线详情" transform="translate(-15.000000, -592.000000)">
            <g id="Group-5" transform="translate(14.000000, 590.000000)">
                <g id="飞行路线" transform="translate(1.000000, 2.000000)">
                    <g id="Group">
                        <path d="M10,18 L8,18 C3.575,18 0,14.425 0,10 L0,8 C0,3.575 3.575,0 8,0 L10,0 C14.425,0 18,3.575 18,8 L18,10 C18,14.425 14.425,18 10,18 L10,18 Z" id="Shape" fill="#4E9FE4"></path>
                        <path d="M10.625,10 C10.575,9.35 12.8,9.35 12.8,9.35 C12.8,9.35 11.05,9 10.25,9.65 C9.225,10.5 10.775,11.025 11.125,11.375 C11.475,11.725 11.5,12.325 9.97500001,12.35 C8.45,12.375 7.37500001,12.275 7.37500001,12.275 C7.37500001,12.275 7.075,13.525 6.79999999,14.2 C6.79999999,14.2 9.72499999,14.275 10.9,14 C12.075,13.725 13.325,12.8 12.775,11.725 C12.275,10.675 10.675,10.675 10.625,10 L10.625,10 Z" id="Shape" fill="#FFFFFF"></path>
                        <path d="M6.325,5.09999999 C4.725,5.09999999 3.42499999,6.4 3.42499999,8 C3.42499999,9.59999999 5.75,10.875 6.325,14.075 C7.15000001,10.925 9.225,9.59999999 9.225,8 C9.225,6.4 7.92499999,5.09999999 6.325,5.09999999 L6.325,5.09999999 Z M6.325,9.55 C5.47499999,9.55 4.77499999,8.85000001 4.77499999,8 C4.77499999,7.14999999 5.47499999,6.44999999 6.325,6.44999999 C7.175,6.44999999 7.875,7.14999999 7.875,8 C7.875,8.875 7.175,9.55 6.325,9.55 Z" id="Shape" fill="#FFFFFF"></path>
                        <path d="M14.575,5.47500001 C14.575,4.52500001 13.8,3.75000001 12.85,3.74999999 C11.9,3.74999999 11.125,4.525 11.125,5.47500001 C11.125,6.425 12.5,7.175 12.85,9.07500001 C13.35,7.22500001 14.575,6.425 14.575,5.47500001 Z M11.95,5.47500001 C11.95,4.97500001 12.35,4.57500001 12.85,4.57500001 C13.35,4.57500001 13.75,4.97500001 13.75,5.47500001 C13.75,5.975 13.35,6.37500001 12.85,6.37500001 C12.35,6.4 11.95,5.975 11.95,5.47500001 Z" id="Shape" fill="#FFFFFF"></path>
                    </g>
                </g>
            </g>
        </g>
    </g>
</svg>