<?xml version="1.0" encoding="UTF-8" standalone="no"?>
<svg width="12px" height="11px" viewBox="0 0 12 11" version="1.1" xmlns="http://www.w3.org/2000/svg" xmlns:xlink="http://www.w3.org/1999/xlink">
    <!-- Generator: Sketch 41 (35326) - http://www.bohemiancoding.com/sketch -->
    <title>图片</title>
    <desc>Created with Sketch.</desc>
    <defs></defs>
    <g id="AirCommunity-" stroke="none" stroke-width="1" fill="none" fill-rule="evenodd">
        <g id="路线详情" transform="translate(-162.000000, -447.000000)" fill="#000000">
            <g id="Group-9" transform="translate(33.000000, 437.000000)">
                <g id="Group-7" transform="translate(129.000000, 0.000000)">
                    <g id="图片" transform="translate(0.500000, 10.000000)">
                        <g id="Group">
                            <path d="M10.9903857,9.52832999 L10.9903857,1.4754961 C10.9903857,0.0113801561 9.72875808,0.0113801561 9.52626979,0.0113801561 L1.47304348,0.0113801561 C1.2709476,0.0113801561 0.00892753623,0.0113801561 0.00892753623,1.4754961 L0.00892753623,9.52832999 C0.00892753623,10.9924459 1.47304348,10.9924459 1.47304348,10.9924459 L9.52626979,10.9924459 C9.94851282,10.9924459 10.2459666,10.8692263 10.459835,10.6953846 C10.4735697,10.6851817 10.4873043,10.6749788 10.5002542,10.6639911 C10.5493066,10.6212174 10.5940424,10.5753043 10.6336767,10.5278216 C10.6450569,10.514087 10.6544749,10.4995674 10.6650702,10.4850479 C10.9880312,10.0624125 10.9903857,9.52832999 10.9903857,9.52832999 Z M1.5083612,0.805244147 L9.42894983,0.805244147 C9.62829877,0.805244147 10.149039,0.805244147 10.149039,1.52533333 L10.149039,9.44513712 C10.149039,9.44513712 10.1470769,9.86070903 9.82960981,10.060058 C9.3014136,9.50556968 7.85103233,7.98494537 7.48451282,7.61842586 C7.21178149,7.34569454 6.93002453,7.28408473 6.75892977,7.29311037 C6.39005574,7.29821182 6.15146488,7.52973913 6.13459086,7.54975251 L5.37565217,8.21097882 C5.22182386,8.35695875 5.09389521,8.22942252 5.0322854,8.16742029 C4.56844593,7.70318841 3.6694136,6.90108361 3.5567893,6.80101672 C3.48222965,6.72645708 3.21930881,6.49296767 2.83983946,6.48394203 C2.64127536,6.47413155 2.34068227,6.53691862 2.03851951,6.83908138 C1.75715496,7.12044593 1.2175786,7.61803344 0.788272018,8.00927536 L0.788272018,1.52533333 C0.788664437,0.805244147 1.30940468,0.805244147 1.5083612,0.805244147 Z M0.788664437,9.41845262 L0.788664437,9.06880713 C1.11790412,8.77174582 2.14721962,7.84053512 2.59379264,7.39356968 C2.65147826,7.33627648 2.73113935,7.2589699 2.81864883,7.26799554 C2.91086734,7.26838796 2.99523746,7.34883389 2.9960223,7.34883389 L2.9960223,7.34883389 L3.02545373,7.37748049 C3.03526421,7.38611371 4.00924861,8.25296767 4.4777971,8.72190858 C4.76347826,9.00798216 5.05622297,9.05036343 5.23869788,9.06252843 C5.64249721,9.05742698 5.91012709,8.78744259 5.91208919,8.78273356 L6.66985061,8.12307692 C6.74794203,8.04930212 6.820932,8.06421405 6.93002453,8.17291416 C7.21335117,8.45663322 8.19322185,9.48084727 8.84581494,10.1644415 C7.13800669,10.1636566 2.21196878,10.1613021 1.55780602,10.1613021 C0.764334448,10.162087 0.788664437,9.41845262 0.788664437,9.41845262 Z" id="Shape"></path>
                            <path d="M7.32950725,5.9655563 C8.35450613,5.9655563 9.18839688,5.13048829 9.18839688,4.10431215 C9.18839688,3.07813601 8.35450613,2.243068 7.32950725,2.243068 C6.30450836,2.243068 5.47061761,3.07813601 5.47061761,4.10431215 C5.47061761,5.13048829 6.30490078,5.9655563 7.32950725,5.9655563 Z M7.32950725,3.02790635 C7.92166778,3.02790635 8.40355853,3.51058194 8.40355853,4.10431215 C8.40355853,4.69804236 7.92166778,5.18071795 7.32950725,5.18071795 C6.73734671,5.18071795 6.25545596,4.69804236 6.25545596,4.10431215 C6.25545596,3.51058194 6.73734671,3.02790635 7.32950725,3.02790635 Z" id="Shape"></path>
                        </g>
                    </g>
                </g>
            </g>
        </g>
    </g>
</svg>