<?xml version="1.0" encoding="UTF-8" standalone="no"?>
<svg width="18px" height="18px" viewBox="0 0 18 18" version="1.1" xmlns="http://www.w3.org/2000/svg" xmlns:xlink="http://www.w3.org/1999/xlink">
    <!-- Generator: Sketch 41 (35326) - http://www.bohemiancoding.com/sketch -->
    <title>景点展示</title>
    <desc>Created with Sketch.</desc>
    <defs></defs>
    <g id="AirCommunity-" stroke="none" stroke-width="1" fill="none" fill-rule="evenodd">
        <g id="路线详情" transform="translate(-15.000000, -685.000000)">
            <g id="Group-3" transform="translate(15.000000, 683.000000)">
                <g id="景点展示" transform="translate(0.000000, 2.000000)">
                    <path d="M10,18 L8,18 C3.575,18 0,14.425 0,10 L0,8 C0,3.575 3.575,0 8,0 L10,0 C14.425,0 18,3.575 18,8 L18,10 C18,14.425 14.425,18 10,18 L10,18 Z" id="Shape" fill="#4E9FE4"></path>
                    <path d="M13.9912598,12.6621182 L13.9912598,5.34136009 C13.9912598,4.0103456 12.8443255,4.0103456 12.6602453,4.0103456 L5.33913043,4.0103456 C5.15540691,4.0103456 4.00811594,4.0103456 4.00811594,5.34136009 L4.00811594,12.6621182 C4.00811594,13.9931327 5.33913043,13.9931327 5.33913043,13.9931327 L12.6602453,13.9931327 C13.0441026,13.9931327 13.3145151,13.8811148 13.5089409,13.7230769 C13.521427,13.7138016 13.533913,13.7045262 13.5456856,13.6945373 C13.5902787,13.6556522 13.6309476,13.613913 13.6669788,13.5707469 C13.6773244,13.5582609 13.6858863,13.5450613 13.6955184,13.5318618 C13.9891193,13.1476477 13.9912598,12.6621182 13.9912598,12.6621182 Z M5.37123746,4.73204013 L12.5717726,4.73204013 C12.7529989,4.73204013 13.2263991,4.73204013 13.2263991,5.38666667 L13.2263991,12.5864883 C13.2263991,12.5864883 13.2246154,12.9642809 12.9360089,13.1455072 C12.4558305,12.641427 11.1373021,11.2590412 10.8041026,10.9258417 C10.556165,10.6779041 10.3000223,10.6218952 10.1444816,10.6301003 C9.80914158,10.634738 9.5922408,10.8452174 9.57690078,10.8634114 L8.88695652,11.4645262 C8.7471126,11.5972352 8.63081382,11.4812932 8.57480491,11.4249275 C8.15313266,11.0028986 7.33583055,10.2737124 7.23344482,10.1827425 C7.16566332,10.114961 6.92664437,9.90269788 6.58167224,9.89449275 C6.40115942,9.88557414 6.12789298,9.94265329 5.85319955,10.2173467 C5.5974136,10.4731327 5.10688963,10.9254849 4.71661093,11.2811594 L4.71661093,5.38666667 C4.71696767,4.73204013 5.19036789,4.73204013 5.37123746,4.73204013 Z M4.71696767,12.5622297 L4.71696767,12.2443701 C5.01627648,11.9743144 5.95201784,11.1277592 6.35799331,10.721427 C6.41043478,10.6693423 6.48285396,10.5990635 6.56240803,10.6072687 C6.64624303,10.6076254 6.72294314,10.6807581 6.72365663,10.6807581 L6.72365663,10.6807581 L6.75041249,10.7068004 C6.7593311,10.7146488 7.64477146,11.5026979 8.07072464,11.9290078 C8.33043478,12.1890747 8.59656633,12.2276031 8.76245262,12.2386622 C9.12954292,12.2340245 9.37284281,11.9885842 9.37462653,11.9843032 L10.0635006,11.3846154 C10.1344928,11.3175474 10.2008473,11.3311037 10.3000223,11.429922 C10.557592,11.6878484 11.4483835,12.6189521 12.0416499,13.2404013 C10.489097,13.2396878 6.01088071,13.2375474 5.41618729,13.2375474 C4.6948495,13.2382609 4.71696767,12.5622297 4.71696767,12.5622297 Z" id="Shape" fill="#FFFFFF"></path>
                    <path d="M10.6631884,9.423233 C11.5950056,9.423233 12.3530881,8.66408027 12.3530881,7.73119287 C12.3530881,6.79830546 11.5950056,6.03915273 10.6631884,6.03915273 C9.73137124,6.03915273 8.97328874,6.79830546 8.97328874,7.73119287 C8.97328874,8.66408027 9.73172798,9.423233 10.6631884,9.423233 Z M10.6631884,6.75264214 C11.2015162,6.75264214 11.6395987,7.19143813 11.6395987,7.73119287 C11.6395987,8.2709476 11.2015162,8.70974359 10.6631884,8.70974359 C10.1248606,8.70974359 9.68677815,8.2709476 9.68677815,7.73119287 C9.68677815,7.19143813 10.1248606,6.75264214 10.6631884,6.75264214 Z" id="Shape" fill="#FFFFFF"></path>
                </g>
            </g>
        </g>
    </g>
</svg>