<?xml version="1.0" encoding="UTF-8" standalone="no"?>
<svg width="59px" height="17px" viewBox="0 0 59 17" version="1.1" xmlns="http://www.w3.org/2000/svg" xmlns:xlink="http://www.w3.org/1999/xlink">
    <!-- Generator: Sketch 41 (35326) - http://www.bohemiancoding.com/sketch -->
    <title>Group 2 Copy</title>
    <desc>Created with Sketch.</desc>
    <defs></defs>
    <g id="Page-1" stroke="none" stroke-width="1" fill="none" fill-rule="evenodd">
        <g id="首页-" transform="translate(-14.000000, -383.000000)">
            <g id="Group-2-Copy" transform="translate(14.000000, 383.000000)">
                <path d="M11.7029105,13.2244286 L5.32315244,13.2244286 L3.39718774,16.9542031 L0,16.9542031 L9.09483332,0.078125 L12.7595162,0.078125 L15.3675934,16.9542031 L12.2379007,16.9542031 L11.7029105,13.2244286 Z M11.2933472,10.3399071 L10.3704891,3.54803389 L6.82617909,10.3399071 L11.2933472,10.3399071 Z M17.2662177,16.9542031 L20.6232812,0.078125 L23.9268456,0.078125 L20.5697822,16.9542031 L17.2662177,16.9542031 Z M26.9944213,16.9542031 L23.6908568,16.9542031 L27.0479203,0.078125 L34.2034142,0.078125 C35.5230633,0.078125 36.508327,0.227774946 37.159235,0.527079328 C37.810143,0.826383709 38.3384405,1.30986815 38.7441435,1.97754716 C39.1498464,2.64522616 39.3526948,3.48940534 39.3526948,4.51011003 C39.3526948,6.00663194 38.926936,7.20575009 38.0754057,8.10750047 C37.2238754,9.00925085 36.0000976,9.56756027 34.4040355,9.78244547 C34.8498629,10.2045414 35.2867672,10.8031412 35.7147615,11.5782628 C36.4280853,12.8829229 37.2127297,14.6748851 38.0687183,16.9542031 L34.5110335,16.9542031 C34.3683688,16.4783858 33.8868824,15.1852568 33.06656,13.0747772 C32.6385657,11.9926767 32.2462435,11.2290783 31.8895816,10.783959 C31.6310017,10.4693056 31.3679675,10.2544237 31.100471,10.1393066 C30.8329746,10.0241895 30.3826957,9.96663186 29.7496208,9.96663186 L28.3853958,9.96663186 L26.9944213,16.9542031 Z M28.9108761,7.21614654 L30.662969,7.21614654 C32.3214469,7.21614654 33.442686,7.12597286 34.0267199,6.94562278 C34.6107538,6.76527271 35.0966983,6.4333568 35.4845682,5.94986511 C35.872438,5.46637341 36.06637,4.93300566 36.06637,4.34974584 C36.06637,3.71276472 35.8211686,3.24846617 35.3307585,2.95683626 C35.045429,2.77264895 34.42128,2.68055667 33.4582928,2.68055667 L29.8203595,2.68055667 L28.9108761,7.21614654 Z M50.0924428,9.88209396 L51.9776256,0.578125 L55.0720294,0.578125 C55.8982093,0.578125 56.4865407,0.622550056 56.8370412,0.711401499 C57.3828207,0.846794176 57.803415,1.09853616 58.0988369,1.466635 C58.3942588,1.83473383 58.5419676,2.28956178 58.5419676,2.83113249 C58.5419676,3.37693422 58.3992659,3.83387765 58.1138583,4.20197648 C57.8284507,4.57007532 57.4003457,4.84931853 56.8295305,5.03971448 C57.275167,5.16664511 57.6319211,5.39511683 57.8998037,5.72513648 C58.1676863,6.05515613 58.3016255,6.44017327 58.3016255,6.88019947 C58.3016255,7.48100447 58.1401473,8.02468253 57.8171861,8.51124997 C57.4942249,8.9978174 57.0736305,9.34792914 56.5553904,9.56159571 C56.0371503,9.77526228 55.3023619,9.88209396 54.3510033,9.88209396 L50.0924428,9.88209396 Z M52.9189425,3.96868968 L54.3384626,3.96868968 C54.9593493,3.96868968 55.4049791,3.92638011 55.6753652,3.84175969 C55.9457514,3.75713926 56.1585521,3.61117122 56.3137737,3.40385119 C56.4689954,3.19653115 56.5466051,2.95959752 56.5466051,2.69304319 C56.5466051,2.47726111 56.4890237,2.29427219 56.3738593,2.14407094 C56.2586948,1.99386969 56.1134896,1.89338445 55.9382393,1.84261219 C55.762989,1.79183994 55.3849548,1.76645419 54.8041253,1.76645419 L53.3695838,1.76645419 L52.9189425,3.96868968 Z M52.3536425,8.35631586 L54.1411864,8.35631586 C54.8421875,8.35631586 55.3228668,8.31400629 55.5832387,8.22938586 C55.8436105,8.14476544 56.0614183,7.98927775 56.2366686,7.76291812 C56.4119189,7.53655849 56.4995427,7.28164329 56.4995427,6.99816487 C56.4995427,6.6639142 56.3843799,6.40159482 56.154051,6.21119887 C55.9237221,6.02080292 55.5607091,5.92560637 55.0650011,5.92560637 L52.8418373,5.92560637 L52.3536425,8.35631586 Z M41.0476438,9.88209396 L42.9328267,0.578125 L46.0272304,0.578125 C46.8534103,0.578125 47.4417417,0.622550056 47.7922423,0.711401499 C48.3380217,0.846794176 48.7586161,1.09853616 49.054038,1.466635 C49.3494599,1.83473383 49.4971686,2.28956178 49.4971686,2.83113249 C49.4971686,3.37693422 49.354467,3.83387765 49.0690594,4.20197648 C48.7836518,4.57007532 48.3555468,4.84931853 47.7847316,5.03971448 C48.230368,5.16664511 48.5871222,5.39511683 48.8550047,5.72513648 C49.1228873,6.05515613 49.2568266,6.44017327 49.2568266,6.88019947 C49.2568266,7.48100447 49.0953484,8.02468253 48.7723872,8.51124997 C48.4494259,8.9978174 48.0288316,9.34792914 47.5105915,9.56159571 C46.9923514,9.77526228 46.257563,9.88209396 45.3062043,9.88209396 L41.0476438,9.88209396 Z M43.8741435,3.96868968 L45.2936637,3.96868968 C45.9145504,3.96868968 46.3601801,3.92638011 46.6305663,3.84175969 C46.9009524,3.75713926 47.1137531,3.61117122 47.2689748,3.40385119 C47.4241965,3.19653115 47.5018062,2.95959752 47.5018062,2.69304319 C47.5018062,2.47726111 47.4442248,2.29427219 47.3290603,2.14407094 C47.2138958,1.99386969 47.0686906,1.89338445 46.8934404,1.84261219 C46.7181901,1.79183994 46.3401559,1.76645419 45.7593264,1.76645419 L44.3247848,1.76645419 L43.8741435,3.96868968 Z M42.7435436,8.35631586 L44.5310876,8.35631586 C45.2320887,8.35631586 45.7127679,8.31400629 45.9731398,8.22938586 C46.2335116,8.14476544 46.4513194,7.98927775 46.6265697,7.76291812 C46.80182,7.53655849 46.8894438,7.28164329 46.8894438,6.99816487 C46.8894438,6.6639142 46.7742811,6.40159482 46.5439521,6.21119887 C46.3136232,6.02080292 45.9506102,5.92560637 45.4549023,5.92560637 L43.2317384,5.92560637 L42.7435436,8.35631586 Z" id="AIR-CLUB" fill="#EE4A4A"></path>
                <path d="M40.5,13.5 L56.5312195,13.5" id="Line" stroke="#979797" stroke-linecap="square"></path>
                <path d="M39.5,16.5 L50.545361,16.5" id="Line-Copy-4" stroke="#979797" stroke-linecap="square"></path>
            </g>
        </g>
    </g>
</svg>