<?xml version="1.0" encoding="UTF-8" standalone="no"?>
<svg width="58px" height="58px" viewBox="0 0 58 58" version="1.1" xmlns="http://www.w3.org/2000/svg" xmlns:xlink="http://www.w3.org/1999/xlink">
    <!-- Generator: Sketch 41 (35326) - http://www.bohemiancoding.com/sketch -->
    <title>Air Jet </title>
    <desc>Created with Sketch.</desc>
    <defs>
        <rect id="path-1" x="0" y="0" width="58" height="58" rx="19"></rect>
    </defs>
    <g id="Page-1" stroke="none" stroke-width="1" fill="none" fill-rule="evenodd">
        <g id="首页-" transform="translate(-19.000000, -245.000000)">
            <g id="Group-4" transform="translate(19.000000, 245.000000)">
                <g id="Group-2-Copy-2">
                    <g id="Air-Jet-">
                        <mask id="mask-2" fill="white">
                            <use xlink:href="#path-1"></use>
                        </mask>
                        <use id="Rectangle-13-Copy-3" fill="#FFB912" xlink:href="#path-1"></use>
                        <g id="飞机" mask="url(#mask-2)">
                            <g transform="translate(29.000000, 29.531279) rotate(-360.000000) translate(-29.000000, -29.531279) translate(8.000000, 10.531279)" id="Group">
                                <g transform="translate(-0.000000, 0.000000)">
                                    <path d="M23.6088889,8.21117206 C23.6088889,6.48986119 22.2937098,5.19887803 20.6278308,5.28495784 C18.9619518,5.19887803 17.5590796,6.575941 17.6467727,8.21117206 L19.1373018,8.29725187 C19.1373018,7.43663209 19.8387379,6.74810061 20.6278308,6.83414476 C21.4169601,6.74806495 22.1183599,7.43659643 22.1183599,8.29725187 L23.6088889,8.21117206 L23.6088889,8.21117206 Z" id="Shape" fill="#FFFFFF"></path>
                                    <path d="M20.5401377,0.034981065 C16.8576434,0.034981065 13.7889285,3.73580658 13.7012354,7.43659643 L14.4026715,12.6005291 L2.65378906,20.0021444 C2.12770288,20.3463923 1.77703931,20.518552 1.33860995,20.7767557 C0.374167074,21.551367 0.0234308508,22.2398628 0.0234308508,23.2726779 C0.0234308508,24.4775812 0.637173833,25.5964404 1.68930985,26.1128123 L1.77700299,26.1988921 C2.21539602,26.4570959 2.74144587,26.6292198 3.44288199,26.6292198 C4.05662497,26.54314 4.67036795,26.4570959 5.19645412,26.2849719 C8.79125521,25.5103606 13.7012354,24.4775812 16.1562437,23.7890497 L16.8576798,28.6087345 L14.4026715,31.0185768 C13.2628787,32.1374004 12.9997993,32.5677281 12.9121425,33.8587112 C12.9121425,35.7521461 14.4026715,37.2152532 16.3315936,37.2152532 C17.0330297,37.2152532 17.6467727,37.1291734 18.1728589,36.7849255 L20.9785307,34.0308708 L22.9951459,36.0103855 C23.7842752,36.6128372 24.5733318,37.2152888 25.5378473,37.129209 C26.2392834,37.129209 26.8530264,36.8710053 27.3791126,36.5267574 C28.2558623,35.8382259 28.9572985,34.9776061 28.8696416,33.6866229 C28.8696416,32.4817196 27.7297762,31.7071083 26.8530264,30.8464885 L24.7487544,28.6088058 L25.2748406,23.6170328 C27.9051624,24.3055642 32.815179,25.5104676 36.1469369,26.1989634 C36.6730231,26.3710874 37.1113798,26.4571672 37.7251228,26.3710874 C38.4265589,26.3710874 39.0403019,26.1128836 39.4786949,25.8546799 C40.4431378,25.2522282 41.0568808,24.133369 41.1445739,23.0145454 C41.1445739,21.8096421 40.7061809,20.6907829 39.5663881,20.0883312 L26.6776765,12.9448839 C26.6776765,12.4285477 26.7653696,12.3424323 26.7653696,11.9981844 C26.8530627,11.7399806 26.7653696,11.3096529 26.5900197,11.1375646 C26.2393198,10.7933167 25.6255768,10.7072369 25.1871474,11.1375646 C25.0117975,11.3096885 25.0117975,11.4818125 24.9241043,11.7400163 L22.6444824,28.9530537 L26.6776765,32.9120473 C26.8530264,33.0841713 26.9407196,33.342375 26.9407196,33.6866586 C27.0284127,34.4612699 26.2392834,35.2358099 25.4501905,35.1497657 C25.0994906,35.1497657 24.8364475,35.0636859 24.6610612,34.8915619 L21.8553894,32.137436 C21.1539533,31.2768162 20.2772036,31.9653121 20.2772036,31.9653121 L17.0331387,35.1496944 C16.8577888,35.3218183 16.6824388,35.3218183 16.3317026,35.3218183 C15.5425733,35.2357385 14.9288303,34.6332869 14.8411735,33.8587112 C14.8411735,33.5144633 14.8411735,33.3423037 15.0165235,33.1701798 L18.9620245,29.2972659 L15.7179596,8.03915508 C15.7179596,7.86703113 15.6302665,7.60882736 15.6302665,7.43670341 C15.6302665,4.6826488 17.9098884,1.92855853 20.4525898,1.84247872 C22.5568619,1.84247872 24.485784,3.73591355 25.1872201,5.80147234 C25.1872201,5.9735963 25.2749132,6.0596761 25.4502632,6.23180006 C25.8009631,6.57604797 26.414706,6.66212778 26.8531354,6.23180006 C27.1161785,5.9735963 27.1161785,5.62934838 27.1161785,5.28510047 C26.1517356,2.44496606 23.6090342,-0.0509561079 20.540283,0.0351236993 L20.5401377,0.034981065 Z M26.5022902,15.0103714 L38.6895657,21.8095351 C39.1279587,22.0677389 39.3033087,22.7562347 39.3033087,23.2726422 C39.2156155,24.0472535 38.6018726,24.6497052 37.8127796,24.7357493 C37.4620797,24.7357493 37.2866935,24.7357493 36.9360299,24.5636254 L25.6255041,21.723491 L26.5022539,15.0104071 L26.5022902,15.0103714 Z M15.8055438,22.0677032 L3.44288199,24.9078376 C2.65375273,24.8217578 1.86469613,24.0472179 1.86469613,23.3586864 C1.86469613,22.8423502 2.12773921,22.4119868 2.65382538,22.0677032 L14.6657509,14.4079197 L15.8056164,22.0677032 L15.8055438,22.0677032 Z" id="Shape" fill="#FFFFFF"></path>
                                </g>
                            </g>
                        </g>
                    </g>
                </g>
            </g>
        </g>
    </g>
</svg>