<?xml version="1.0" encoding="UTF-8" standalone="no"?>
<svg width="56px" height="30px" viewBox="0 0 56 30" version="1.1" xmlns="http://www.w3.org/2000/svg" xmlns:xlink="http://www.w3.org/1999/xlink">
    <!-- Generator: Sketch 41 (35326) - http://www.bohemiancoding.com/sketch -->
    <title>Air Quest Icon</title>
    <desc>Created with Sketch.</desc>
    <defs></defs>
    <g id="AirCommunity-" stroke="none" stroke-width="1" fill="none" fill-rule="evenodd">
        <g id="首页-copy-2" transform="translate(-16.000000, -381.000000)">
            <g id="Air-Quest-Icon" transform="translate(16.000000, 381.000000)">
                <path d="M4.45106472,17.0833333 L3.3384933,19.9583333 C3.18677825,20.3583353 2.97606607,20.6791655 2.70635044,20.9208333 C2.4366348,21.1625012 2.04049591,21.2833333 1.51792187,21.2833333 C0.995347826,21.2833333 0.578137712,21.1416681 0.26627901,20.8583333 C-0.0455796919,20.5749986 -0.0835078841,20.0916701 0.152493296,19.4083333 L5.36135044,4.38333333 C5.44563657,4.11666533 5.62684905,3.87916771 5.9049933,3.67083333 C6.18313754,3.46249896 6.55820522,3.35833333 7.03020758,3.35833333 C7.50220994,3.35833333 7.87727762,3.46249896 8.15542187,3.67083333 C8.43356612,3.87916771 8.61477859,4.11666533 8.69906472,4.38333333 L13.9584933,19.4583333 C14.16078,20.0916698 14.1059949,20.5541652 13.7941362,20.8458333 C13.4822775,21.1375015 13.0650673,21.2833333 12.5424933,21.2833333 C12.0199193,21.3000001 11.6322088,21.1875012 11.3793504,20.9458333 C11.126492,20.7041655 10.9326368,20.4166683 10.797779,20.0833333 L9.58406472,17.0833333 L4.45106472,17.0833333 Z M8.97720758,14.2583333 L7.03020758,8.05833333 L5.08320758,14.2583333 L8.97720758,14.2583333 Z M19.2684933,19.9833333 C19.2684933,20.3000016 19.125209,20.595832 18.8386362,20.8708333 C18.5520633,21.1458347 18.1643529,21.2833333 17.6754933,21.2833333 C17.1866337,21.2833333 16.7989233,21.1500013 16.5123504,20.8833333 C16.2257776,20.6166653 16.0824933,20.3166683 16.0824933,19.9833333 L16.0824933,8.98333333 C16.0824933,8.48333083 16.251063,8.11666783 16.5882076,7.88333333 C16.9253521,7.64999883 17.2877771,7.53333333 17.6754933,7.53333333 C18.0632095,7.53333333 18.4256345,7.64583221 18.762779,7.87083333 C19.0999236,8.09583446 19.2684933,8.46666408 19.2684933,8.98333333 L19.2684933,19.9833333 Z M15.9560647,4.53333333 C15.9560647,4.04999758 16.1204202,3.64583496 16.4491362,3.32083333 C16.7778521,2.99583171 17.1866337,2.83333333 17.6754933,2.83333333 C18.1643529,2.83333333 18.5731345,2.99583171 18.9018504,3.32083333 C19.2305664,3.64583496 19.3949219,4.04999758 19.3949219,4.53333333 C19.3949219,5.01666908 19.2305664,5.42083171 18.9018504,5.74583333 C18.5731345,6.07083496 18.1643529,6.23333333 17.6754933,6.23333333 C17.1866337,6.23333333 16.7778521,6.07083496 16.4491362,5.74583333 C16.1204202,5.42083171 15.9560647,5.01666908 15.9560647,4.53333333 Z M28.7253504,10.0583333 C28.1353475,10.0583333 27.6169955,10.1666656 27.170279,10.3833333 C26.7235625,10.6000011 26.3527091,10.8999981 26.0577076,11.2833333 C25.7627061,11.6666686 25.5435654,12.1249973 25.400279,12.6583333 C25.2569926,13.1916693 25.1853504,13.7666636 25.1853504,14.3833333 L25.1853504,20.2333333 C25.1853504,20.5166681 25.0378519,20.762499 24.7428504,20.9708333 C24.447849,21.1791677 24.0727813,21.2833333 23.6176362,21.2833333 C23.162491,21.2833333 22.7874233,21.1750011 22.4924219,20.9583333 C22.1974204,20.7416656 22.0499219,20.5000013 22.0499219,20.2333333 L22.0499219,8.58333333 C22.0499219,8.28333183 22.2058489,8.03333433 22.5177076,7.83333333 C22.8295663,7.63333233 23.204634,7.53333333 23.6429219,7.53333333 C24.0812098,7.53333333 24.447849,7.63333233 24.7428504,7.83333333 C25.0378519,8.03333433 25.1853504,8.28333183 25.1853504,8.58333333 L25.1853504,10.3333333 C25.3370655,10.0333318 25.518278,9.70833508 25.7289933,9.35833333 C25.9397086,9.00833158 26.1925632,8.67916821 26.4875647,8.37083333 C26.7825662,8.06249846 27.1197057,7.80416771 27.4989933,7.59583333 C27.8782809,7.38749896 28.312348,7.28333333 28.8012076,7.28333333 C29.054066,7.28333333 29.2563497,7.32499958 29.4080647,7.40833333 C29.5597798,7.49166708 29.6777786,7.59166608 29.7620647,7.70833333 C29.8463509,7.82500058 29.901136,7.94999933 29.9264219,8.08333333 C29.9517077,8.21666733 29.9643504,8.34166608 29.9643504,8.45833333 C29.9643504,9.09166983 29.8589943,9.51666558 29.648279,9.73333333 C29.4375637,9.95000108 29.1299239,10.0583333 28.7253504,10.0583333 Z" id="Air" fill="#EE4A4A"></path>
                <g id="q" transform="translate(33.871429, 0.000000)" fill="#EE4A4A">
                    <g id="Group">
                        <path d="M10.7280075,5.15730393 C8.20899261,5.14200419 5.96818344,6.7556058 5.18265611,9.15049892 C4.39712879,11.545392 5.24655048,14.1738126 7.2847279,15.6550759 C9.32290533,17.1363392 12.0836631,17.1316482 14.1168009,15.6434669 L11.7873433,13.3126076 C11.4331809,12.9552552 11.4343861,12.3786538 11.7900391,12.0227867 C12.1456921,11.6669197 12.7219468,11.6657139 13.0790843,12.0200893 L15.4085419,14.3509486 C16.6952556,12.5903231 16.882124,10.2549487 15.8917654,8.31190053 C14.9014067,6.36885232 12.9024278,5.14893091 10.7226028,5.15730393 L10.7280075,5.15730393 Z" id="Shape"></path>
                        <path d="M0.0589834579,11.0087884 C0.00198948255,5.03722986 4.79249233,0.149429269 10.7604362,0.0899832589 C16.7283801,0.149429269 21.5188829,5.03722986 21.4618889,11.0087884 C21.4733473,14.323348 19.9875603,17.4656511 17.4191179,19.558878 C13.2898705,23.474289 5.59887693,24.9669043 5.59887693,24.9669043 L6.57173627,21.0623093 C2.59504389,19.3062696 0.0373737245,15.3580788 0.0589834579,11.0087884 L0.0589834579,11.0087884 Z M17.8893332,18.120343 C17.532627,18.4772577 16.9542985,18.4772577 16.5975922,18.120343 L15.2896369,16.8170086 C13.9947629,17.855828 12.387647,18.4274214 10.7280075,18.4394165 C7.21510146,18.4759007 4.14391896,16.076569 3.32726258,12.6576561 C2.5106062,9.23874323 4.16557825,5.70914282 7.31531151,4.15224415 C10.4650448,2.59534547 14.272205,3.42503902 16.4895698,6.15158816 C18.7069347,8.87813731 18.7450335,12.7767083 16.5813779,15.5461225 L17.8893332,16.8548648 C18.2283869,17.2084781 18.2283869,17.7667298 17.8893332,18.120343 L17.8893332,18.120343 Z" id="Shape"></path>
                    </g>
                </g>
                <path d="M5.5,25.5 C5.5,25.5 13.75,28 21,28 C28.25,28 35.5,25.5 35.5,25.5" id="Line" stroke="#979797" stroke-width="2.5" stroke-linecap="round" stroke-linejoin="round"></path>
            </g>
        </g>
    </g>
</svg>