<?xml version="1.0" encoding="UTF-8" standalone="no"?>
<svg width="59px" height="58px" viewBox="0 0 59 58" version="1.1" xmlns="http://www.w3.org/2000/svg" xmlns:xlink="http://www.w3.org/1999/xlink">
    <!-- Generator: Sketch 41 (35326) - http://www.bohemiancoding.com/sketch -->
    <title>AirTaxi</title>
    <desc>Created with Sketch.</desc>
    <defs></defs>
    <g id="Page-1" stroke="none" stroke-width="1" fill="none" fill-rule="evenodd">
        <g id="首页-" transform="translate(-110.000000, -245.000000)">
            <g id="Group-4" transform="translate(19.000000, 244.000000)">
                <g id="Group-3" transform="translate(91.000000, 0.000000)">
                    <g id="Group-5" transform="translate(0.000000, 0.190254)">
                        <g id="AirTaxi">
                            <rect id="Rectangle-13-Copy-2" fill="#5ECCFF" x="0.333333333" y="0.809746335" width="58" height="58" rx="19"></rect>
                            <g id="Group" transform="translate(6.000000, 17.000000)" fill="#FFFFFF">
                                <path d="M27.1774215,10.4294676 C27.173941,13.0792098 27.173941,15.730127 27.1774215,18.3798692 C27.1785816,19.2059308 27.457015,19.4808929 28.2783936,19.482068 L35.123215,19.482068 C36.7044848,19.482068 38.2869147,19.4855931 39.8693446,19.4808929 C40.6826022,19.4785428 41.0422453,18.985021 40.789335,18.2188871 C40.6791217,17.8839973 40.564268,17.5491075 40.4262114,17.2247931 C38.2857545,12.2425728 32.6637198,9.376621 28.0788496,9.36017027 C27.4639758,9.35664511 27.1785816,9.70798565 27.1774215,10.4294676 L27.1774215,10.4294676 Z M28.8538226,11.4470626 C28.8526625,11.1732755 28.8921072,11.0651707 29.1972238,11.1098227 C33.3168782,11.7302501 36.5559869,13.7019873 38.6593194,17.4233769 C38.7173263,17.5267815 38.7614116,17.6372364 38.8124577,17.7441661 L38.8368207,17.8017437 L38.3901671,17.7982185 C35.3610435,17.8017437 32.33192,17.7946933 29.3039567,17.808794 C28.9617156,17.809969 28.8445415,17.741816 28.8491821,17.3657994 C28.8712247,15.3940622 28.865424,13.4199748 28.8538226,11.4470626 L28.8538226,11.4470626 Z M10.9087891,13.8970459 C10.718793,13.7762796 10.4892124,13.7369076 10.2705549,13.7875919 C10.0518974,13.8382762 9.86207522,13.9748646 9.7428492,14.1673079 C8.69899366,16.006461 6.50156604,16.8203025 4.53260511,16.0969793 C2.56364418,15.3736561 1.39225919,13.3222377 1.75517496,11.2329326 C2.11809074,9.14362755 3.91040995,7.62032937 6.00488062,7.62109335 C6.45477324,7.59721766 6.80746858,7.22078119 6.80746858,6.76448046 C6.80746858,6.30817973 6.45477324,5.93174326 6.00488062,5.90786757 C3.09545929,5.90922553 0.605706348,8.02328077 0.0965693026,10.924629 C-0.412567742,13.8259772 1.20545522,16.6795279 3.93622072,17.6962511 C6.66698621,18.7129742 9.7245023,17.600228 11.1918631,15.0556472 L11.1918631,15.050947 C11.4186856,14.6517192 11.2937193,14.1423161 10.9087891,13.8970459 L10.9087891,13.8970459 Z M42.2081852,24.5559424 L22.1760613,24.5559424 C21.957816,24.55563 21.7484208,24.6433037 21.5940979,24.7996102 C21.4397751,24.9559168 21.3532141,25.1680036 21.3535226,25.3890543 C21.3535226,25.8508497 21.7201265,26.2233412 22.1760613,26.2233412 L42.2081852,26.2233412 C42.6627812,26.2233412 43.031304,25.8500812 43.031304,25.3896418 C43.031304,24.9292023 42.6627812,24.5559424 42.2081852,24.5559424 L42.2081852,24.5559424 Z" id="Shape"></path>
                                <path d="M45.4240912,2.60009626 C45.197864,2.5965711 44.9669963,2.60009626 44.739609,2.60009626 C39.6964838,2.60009626 33.8934674,2.5965711 28.8201786,2.60714657 L28.8201786,0.857494179 C28.819654,0.422187695 28.4887782,0.0604530581 28.0602874,0.0267324324 L28.0208427,0.0255573805 L27.9976399,0.0243823285 C27.5431763,0.0243818719 27.1745811,0.397189199 27.173941,0.857494179 L27.173941,2.60949667 C21.4463337,2.5965711 14.8764653,2.60127131 9.1511782,2.60127131 C8.99919996,2.60127131 8.84490144,2.59304595 8.69408334,2.61184678 C8.39837254,2.64498005 8.14760306,2.8468953 8.04904593,3.13121975 C7.92502227,3.42383995 7.98326313,3.76302963 8.19754375,3.996058 C8.41797021,4.2604447 8.71148543,4.28277069 9.02588316,4.28277069 C15.0748484,4.27809161 21.1238163,4.2784833 27.1727809,4.28394574 L27.1727809,5.99952162 C21.6714007,5.9877711 15.3544426,5.99129626 9.85306243,5.99247131 C9.10825305,5.99247131 8.83910075,6.26860852 8.83910075,7.02181684 L8.83910075,10.7232306 C8.83910075,11.6009944 8.99223912,11.7784272 9.85190229,11.9511599 C12.1768213,12.4176555 14.5005802,12.8947266 16.8278194,13.355347 C17.0876906,13.4058742 17.1747011,13.5010534 17.1689004,13.7748405 C17.1503381,14.7007815 17.1619395,15.6267225 17.1619395,16.5514884 C17.1619395,17.1824913 17.1619395,17.8146692 17.3185583,18.4339216 C18.0192824,21.1917686 20.2107854,22.8685678 23.1331761,22.8709179 C29.9397129,22.873268 36.7462498,22.8720929 43.5527866,22.8709179 C43.7210068,22.8709179 43.8915472,22.8756181 44.0539667,22.8427166 C44.4878588,22.7534127 44.7604915,22.5090019 44.7349685,21.9379266 C44.7050576,21.1221924 44.6287485,20.3088827 44.506421,19.5020439 C43.7291278,14.7137071 41.289355,11.0545952 37.2300278,8.50590748 C34.981678,7.09467006 32.507101,6.34381185 29.881706,6.07002474 C29.5289915,6.03622111 29.1753893,6.01271033 28.8213387,5.99952162 L28.8213387,4.26749501 C34.0976519,4.28747089 40.1570591,4.28042058 45.4101695,4.27807048 C45.9948797,4.27807048 46.4044088,3.91850457 46.397448,3.4261578 C46.389327,2.95613701 45.9832783,2.60949667 45.4240912,2.60009626 L45.4240912,2.60009626 Z M40.8995482,14.4446202 C42.1652601,16.3811058 42.7928954,18.5584771 42.9994002,20.8686293 C43.0121617,21.0061104 43.0075212,20.9626335 43.022603,21.1717927 L42.66412,21.1682676 L42.6536787,21.1682676 L37.6755213,21.1670925 L22.9730769,21.1670925 C20.5669482,21.1670925 18.8371806,19.4103898 18.8360204,16.9698069 C18.8360204,15.6278975 18.8383407,14.2895133 18.8360204,12.9464289 C18.8348603,12.2343474 18.6271954,11.9946368 17.9287916,11.8548056 C15.6027124,11.3871349 13.2777934,10.9112389 10.949394,10.4529686 C10.6222347,10.3883407 10.4609754,10.2896364 10.4853383,9.90186923 C10.5259432,9.2567657 10.5050607,8.60696195 10.491139,7.96068337 C10.4864984,7.73859854 10.5561068,7.66809543 10.774213,7.67397069 C11.3368805,7.68689626 11.9007082,7.67867089 12.4645358,7.67867089 C17.7756532,7.67867089 23.0890908,7.60229252 28.3990481,7.70099688 C33.6533186,7.79735114 37.9423533,9.91714491 40.8995482,14.4446202 L40.8995482,14.4446202 Z" id="Shape"></path>
                            </g>
                        </g>
                    </g>
                </g>
            </g>
        </g>
    </g>
</svg>