<?xml version="1.0" encoding="UTF-8" standalone="no"?>
<svg width="59px" height="58px" viewBox="0 0 59 58" version="1.1" xmlns="http://www.w3.org/2000/svg" xmlns:xlink="http://www.w3.org/1999/xlink">
    <!-- Generator: Sketch 41 (35326) - http://www.bohemiancoding.com/sketch -->
    <title>AirTransportation</title>
    <desc>Created with Sketch.</desc>
    <defs></defs>
    <g id="Page-1" stroke="none" stroke-width="1" fill="none" fill-rule="evenodd">
        <g id="首页-" transform="translate(-201.000000, -245.000000)">
            <g id="Group-4" transform="translate(19.000000, 244.000000)">
                <g id="Group-12" transform="translate(182.000000, 1.000000)">
                    <g id="AirTransportation">
                        <g id="景点">
                            <rect id="Rectangle-13-Copy" fill="#79A7DC" x="0.666666667" y="0" width="58" height="58" rx="19"></rect>
                            <path d="M45.3958973,40.8705735 L16.5451984,40.8705735 C15.9764741,40.8705735 15.5154319,41.3272086 15.5154319,41.8904966 C15.5154319,42.4537845 15.9764741,42.9104196 16.5451984,42.9104196 L45.3958973,42.9104196 C45.9646217,42.9104196 46.4256639,42.4537845 46.4256639,41.8904966 C46.4256639,41.3272086 45.9646217,40.8705735 45.3958973,40.8705735 L45.3958973,40.8705735 Z M42.3044432,44.9502657 L19.6366525,44.9502657 C19.2687523,44.9502657 18.9287985,45.144662 18.7448484,45.4602273 C18.5608983,45.7757926 18.5608983,46.164585 18.7448484,46.4801503 C18.9287985,46.7957156 19.2687523,46.9901119 19.6366525,46.9901119 L42.3044432,46.9901119 C42.6723434,46.9901119 43.0122972,46.7957156 43.1962473,46.4801503 C43.3801974,46.164585 43.3801974,45.7757926 43.1962473,45.4602273 C43.0122972,45.144662 42.6723434,44.9502657 42.3044432,44.9502657 L42.3044432,44.9502657 Z M45.6156383,34.3712313 C45.9387868,34.3712313 46.2554723,34.2218701 46.4558244,33.9444852 C47.7776638,32.1326601 48.4879074,29.9535944 48.485197,27.7182604 C48.4756966,21.8054856 43.636031,17.0159004 37.666185,17.0112021 C33.3689309,17.0339572 29.4873517,19.5584876 27.7584517,23.4550674 L26.1879499,21.2786625 C25.9888898,21.0008023 25.662662,20.8400197 25.3188296,20.8503133 C24.9749972,20.8606069 24.6591697,21.0406112 24.4774172,21.3298721 L14.1732884,37.6443734 C13.9781781,37.9534895 13.9643919,38.3422196 14.1371228,38.6641328 C14.3098537,38.9860461 14.6428598,39.1922363 15.0107009,39.2050335 C15.3785421,39.2178307 15.7253344,39.0352907 15.9204447,38.7261747 L25.4080849,23.7047138 L34.8160151,36.7396718 C35.0012869,36.9957194 35.2964292,37.1536155 35.6152691,37.1642841 C35.9384176,37.1898889 36.2400229,37.0405278 36.4446836,36.7994163 L40.7619477,31.6720625 L46.1628364,38.7965878 C46.5079682,39.2340288 47.14296,39.3177253 47.5915866,38.9849073 C48.0402132,38.6520893 48.1376818,38.0250099 47.8108938,37.5739603 L45.3528108,34.3306904 C45.4389837,34.3541614 45.527311,34.3712313 45.6156383,34.3712313 Z M44.6052606,33.344907 L41.6279857,29.4167097 C41.4383894,29.1681607 41.1448888,29.018585 40.8304826,29.010281 C40.5160764,29.001977 40.2149443,29.1358473 40.0122431,29.3740351 L35.7165223,34.4779178 L28.986416,25.1535167 C29.2213226,25.0448719 29.4049458,24.8507776 29.499145,24.6115492 C30.8106375,21.2727835 34.0491082,19.0670358 37.666185,19.0489145 C42.4987244,19.052439 46.4163832,22.9297853 46.4235095,27.7161267 C46.4235095,29.5319311 45.8547682,31.273055 44.7797608,32.7538637 C44.661241,32.9282454 44.6002711,33.1347542 44.6052606,33.344907 L44.6052606,33.344907 Z" id="Shape" fill="#FFFFFF"></path>
                        </g>
                        <g id="直升机_helicopter19" transform="translate(8.000000, 11.000000)" fill="#FFFFFF">
                            <g id="Group">
                                <path d="M14.7281863,4.33223325 C13.9701591,2.30391928 11.5933917,1.77786073 10.3829906,1.64124143 C10.3839157,1.628619 10.386876,1.61673905 10.386876,1.60374536 L10.386876,1.31454309 L12.7762248,1.31454309 C13.0161958,1.31454309 13.2108369,1.11945221 13.2108369,0.878512201 C13.2108369,0.637757805 13.0161958,0.442481313 12.7762248,0.442481313 L10.386876,0.44248133 C10.386876,0.201726934 10.1922349,0.00645044147 9.9522639,0.00645044147 C9.7122929,0.00645044147 9.51765182,0.201726934 9.51765182,0.44248133 L7.128303,0.44248133 C6.888332,0.44248133 6.69369092,0.637757823 6.69369092,0.878512219 C6.69369092,1.11945223 6.888332,1.31454311 7.128303,1.31454311 L9.51765182,1.31454311 L9.51765182,1.59372168 C6.58378902,1.60894286 5.51714846,2.09769097 5.20575973,3.39817306 L2.79884113,3.32093023 C2.56405069,2.82197279 2.05950104,2.47634082 1.47335755,2.47634082 C0.663339796,2.47634082 0.00670366681,3.13493494 0.00670366681,3.94778265 C0.00670366681,4.76044474 0.663339796,5.41922449 1.47335755,5.41922449 C2.00695535,5.41922449 2.47246577,5.13243533 2.72908858,4.70512877 L5.42093805,5.35390803 C6.19136151,6.25789715 6.40228436,6.89180326 10.1855742,6.89180326 C13.9694191,6.89180324 15.2939775,6.24434657 14.7281863,4.33223325 Z M10.0101752,2.42123367 C10.968764,2.51089008 13.0783625,2.88325192 13.8630325,4.41186595 L10.0101752,4.41186597 L10.0101752,2.42123367 Z" id="Shape"></path>
                                <path d="M14.6436321,6.63564205 L14.5942317,6.62450461 L14.5633334,6.62450461 C14.4349295,6.62450461 14.3204021,6.71081979 14.2852483,6.83203229 C14.2784025,6.85430718 14.1122545,7.38073698 13.5766215,7.38073698 L6.2809112,7.38073698 C6.12086886,7.38073698 5.99061475,7.51160194 5.99061475,7.67198111 C5.99061475,7.83236029 6.12086886,7.96322524 6.2809112,7.96322524 L13.5768065,7.96322524 C14.338349,7.96322524 14.7300364,7.35809085 14.8432687,6.99315397 C14.8850832,6.84094226 14.7959036,6.68056308 14.6436321,6.63564205 Z" id="Shape"></path>
                            </g>
                        </g>
                    </g>
                </g>
            </g>
        </g>
    </g>
</svg>