<?xml version="1.0" encoding="UTF-8" standalone="no"?>
<svg width="58px" height="58px" viewBox="0 0 58 58" version="1.1" xmlns="http://www.w3.org/2000/svg" xmlns:xlink="http://www.w3.org/1999/xlink">
    <!-- Generator: Sketch 41 (35326) - http://www.bohemiancoding.com/sketch -->
    <title>AirTranning</title>
    <desc>Created with Sketch.</desc>
    <defs>
        <rect id="path-1" x="11" y="15" width="37.8194031" height="25.896335" rx="4"></rect>
        <mask id="mask-2" maskContentUnits="userSpaceOnUse" maskUnits="objectBoundingBox" x="0" y="0" width="37.8194031" height="25.896335" fill="white">
            <use xlink:href="#path-1"></use>
        </mask>
    </defs>
    <g id="Page-1" stroke="none" stroke-width="1" fill="none" fill-rule="evenodd">
        <g id="首页-" transform="translate(-293.000000, -245.000000)">
            <g id="Group-4" transform="translate(19.000000, 244.000000)">
                <g id="AirTranning" transform="translate(274.000000, 1.000000)">
                    <rect id="Rectangle-13" fill="#60ACED" x="-9.09494702e-13" y="0" width="58" height="58" rx="19"></rect>
                    <use id="Rectangle-10" stroke="#FFFFFF" mask="url(#mask-2)" stroke-width="4" stroke-linecap="round" stroke-linejoin="bevel" xlink:href="#path-1"></use>
                    <path d="M22.9181434,29.8089248 L22.2653541,30.4822186 L25.7574051,32.8760123 L27.7024636,36.0354782 L28.3579398,35.364541 L27.8943575,31.9763915 L31.5615563,28.488354 L34.2445722,36.0333101 L35.6358188,34.6081381 L34.1880537,26.1997271 L37.1644718,23.2110984 C38.4842972,21.8570954 38.6049573,20.786449 38.0155911,20.1870265 C37.4332858,19.589615 36.4212967,19.7466582 35.0963475,21.0956966 L32.1388002,24.0724167 L23.7104636,22.4257566 L22.319998,23.8508971 L29.8840308,26.670574 L26.4532472,30.5081725 L22.9181434,29.8089248 Z" id="Shape-Copy" fill="#FFFFFF" transform="translate(30.309383, 27.945520) rotate(12.000000) translate(-30.309383, -27.945520) "></path>
                    <path d="M22.0641871,40.2893897 L19.4490156,46.9657886" id="Line" stroke="#FFFFFF" stroke-width="2" stroke-linecap="round" stroke-linejoin="round"></path>
                    <path d="M40.9738887,40.2893897 L37.554049,46.9657886" id="Line-Copy-7" stroke="#FFFFFF" stroke-width="2" stroke-linecap="round" stroke-linejoin="round" transform="translate(39.364552, 43.526432) scale(-1, 1) translate(-39.364552, -43.526432) "></path>
                </g>
            </g>
        </g>
    </g>
</svg>