<?xml version="1.0" encoding="UTF-8" standalone="no"?>
<svg width="375px" height="41px" viewBox="0 0 375 41" version="1.1" xmlns="http://www.w3.org/2000/svg" xmlns:xlink="http://www.w3.org/1999/xlink">
    <!-- Generator: Sketch 41 (35326) - http://www.bohemiancoding.com/sketch -->
    <title>Group 10</title>
    <desc>Created with Sketch.</desc>
    <defs>
        <rect id="path-1" x="0" y="0" width="375" height="41"></rect>
    </defs>
    <g id="Page-1" stroke="none" stroke-width="1" fill="none" fill-rule="evenodd">
        <g id="首页-" transform="translate(0.000000, -436.000000)">
            <g id="Group-15" transform="translate(0.000000, 436.000000)">
                <g id="Group-10">
                    <mask id="mask-2" fill="white">
                        <use xlink:href="#path-1"></use>
                    </mask>
                    <use id="Rectangle-5" fill="#FFFFFF" xlink:href="#path-1"></use>
                    <g id="Group-9" mask="url(#mask-2)">
                        <g transform="translate(-15.000000, 0.000000)">
                            <path d="M6.45574027,41.5 C2.39638849,38.587875 0,34.9972309 0,31.1129032 C0,21.3855654 15.0284261,13.5 33.5669291,13.5 C49.0065175,13.5 62.0114434,18.9695922 65.927851,26.4174317 C67.6096296,26.2388442 69.3491652,26.1451613 71.1299213,26.1451613 C82.1277192,26.1451613 91.5532942,29.7184061 95.5112273,34.7971081 C100.731395,33.8819376 106.551786,33.3709677 112.688976,33.3709677 C121.755902,33.3709677 130.131368,34.4862278 136.901463,36.3724635 C140.63373,35.6102624 144.909062,35.1774194 149.452756,35.1774194 C155.324118,35.1774194 160.747375,35.9001726 165.1298,37.1223905 C176.016351,34.192882 189.369749,32.4677419 203.799213,32.4677419 C217.533988,32.4677419 230.293815,34.0307712 240.879267,36.7077101 C244.951088,35.7384147 249.776045,35.1774194 254.948819,35.1774194 C259.867393,35.1774194 264.471496,35.6846327 268.412666,36.567789 C275.299126,34.5634615 283.935403,33.3709677 293.311024,33.3709677 C299.448214,33.3709677 305.268605,33.8819376 310.488773,34.7971081 C314.446706,29.7184061 323.872281,26.1451613 334.870079,26.1451613 C336.650835,26.1451613 338.39037,26.2388442 340.072149,26.4174317 C343.988557,18.9695922 356.993483,13.5 372.433071,13.5 C390.971574,13.5 406,21.3855654 406,31.1129032 C406,34.9972309 403.603612,38.587875 399.54426,41.5 L6.45574027,41.5 Z" id="Combined-Shape" fill="#CEE8FF" opacity="0.632346082"></path>
                            <path d="M28.7084009,41 C25.1189741,36.735817 23,31.4780882 23,25.7903226 C23,11.5467207 36.2886822,0 52.6811024,0 C66.3333492,-2.5243549e-29 77.8327788,8.00904567 81.2958091,18.9148108 C82.782899,18.6533075 84.3210599,18.516129 85.8956693,18.516129 C95.6203231,18.516129 103.95476,23.7483804 107.454509,31.1850511 C112.070372,29.8449801 117.216973,29.0967742 122.643701,29.0967742 C130.661007,29.0967742 138.0669,30.7298336 144.053264,33.4918216 C147.353471,32.3757413 151.133875,31.7419355 155.151575,31.7419355 C160.343247,31.7419355 165.138688,32.8002527 169.013789,34.5899289 C178.640074,30.3002915 190.447635,27.7741935 203.206693,27.7741935 C215.351482,27.7741935 226.634186,30.0629149 235.994229,33.9827184 C239.594681,32.5633929 243.861084,31.7419355 248.435039,31.7419355 C252.784222,31.7419355 256.855337,32.4846408 260.340263,33.7778338 C266.429523,30.8429258 274.066034,29.0967742 282.356299,29.0967742 C287.783027,29.0967742 292.929628,29.8449801 297.545491,31.1850511 C301.04524,23.7483804 309.379677,18.516129 319.104331,18.516129 C320.67894,18.516129 322.217101,18.6533075 323.704191,18.9148108 C327.167221,8.00904567 338.666651,0 352.318898,0 C368.711318,0 382,11.5467207 382,25.7903226 C382,31.4780882 379.881026,36.735817 376.291599,41 L28.7084009,41 Z" id="Combined-Shape-Copy" fill="#CEE8FF" opacity="0.203941231"></path>
                            <g id="飞机-copy-2" stroke-width="1" fill="none" transform="translate(70.000000, 13.000000)">
                                <path d="M14.1886262,8.00001388 C13.7044465,8.01240228 13.3069856,8.09416567 12.8083528,8.33697817 C11.119746,9.25619692 9.60698558,9.95490228 9.51304027,9.99702281 C9.48413402,10.0118889 9.45041006,10.0193219 9.4166861,10.0168442 C7.35952464,9.75421031 5.30236318,9.48166567 3.24520172,9.22646478 C2.92964183,9.17443353 2.67671214,9.39990228 2.49845693,9.54360763 C2.29611318,9.69474603 2.100996,9.86075049 1.90346995,10.0168442 C1.59272777,10.2447907 1.77820954,10.5322014 1.96128245,10.6090094 L5.23732412,12.3086969 C5.4589387,12.4449692 5.32404287,12.6407058 5.23732412,12.7051255 L3.4933137,13.5549692 C3.44513662,13.5747907 3.38973297,13.5747907 3.33914704,13.5549692 C2.62371735,13.2080942 1.68667308,12.9628041 1.09650381,12.7447683 C0.754446517,12.6184067 0.400344954,12.7299023 0.19559235,12.9628041 C0.0920116207,13.0817326 0.0245637041,13.2303933 0.00288401655,13.3988755 C-0.0139779626,13.5376255 0.0438345374,13.7284067 0.157050683,13.8349469 L2.12990225,15.7130273 C2.35633454,15.9261076 2.65021475,15.9013308 2.87664704,15.8914201 C3.37046214,15.869121 3.66916006,15.8517773 4.15093089,15.8121344 C4.40145172,15.7898353 4.68328766,15.7130273 4.94585277,15.5742773 C8.58563141,13.6045228 15.3906444,9.72447817 15.3906444,9.72447817 C15.9157746,9.38999156 16.0073111,8.93905406 15.7736522,8.65659871 C15.5110871,8.32706746 14.9305533,7.99753621 14.1886262,8.00001388 L14.1886262,8.00001388 L14.1886262,8.00001388 L14.1886262,8.00001388 Z" id="Shape" fill="#C6E1FA"></path>
                                <path d="M241.188626,1.38849007e-05 C240.704447,0.0124022778 240.306986,0.0941656706 239.808353,0.336978171 C238.119746,1.25619692 236.606986,1.95490228 236.51304,1.99702281 C236.484134,2.01188888 236.45041,2.01932192 236.416686,2.01684424 C234.359525,1.75421031 232.302363,1.48166567 230.245202,1.22646478 C229.929642,1.17443353 229.676712,1.39990228 229.498457,1.54360763 C229.296113,1.69474603 229.100996,1.86075049 228.90347,2.01684424 C228.592728,2.24479067 228.77821,2.53220138 228.961282,2.60900942 L232.237324,4.30869692 C232.458939,4.44496924 232.324043,4.64070585 232.237324,4.70512549 L230.493314,5.55496924 C230.445137,5.57479067 230.389733,5.57479067 230.339147,5.55496924 C229.623717,5.20809424 228.686673,4.96280406 228.096504,4.74476835 C227.754447,4.61840674 227.400345,4.72990228 227.195592,4.96280406 C227.092012,5.08173263 227.024564,5.23039335 227.002884,5.39887549 C226.986022,5.53762549 227.043835,5.72840674 227.157051,5.83494692 L229.129902,7.71302728 C229.356335,7.92610763 229.650215,7.90133085 229.876647,7.89142013 C230.370462,7.86912103 230.66916,7.85177728 231.150931,7.81213442 C231.401452,7.78983531 231.683288,7.71302728 231.945853,7.57427728 C235.585631,5.60452281 242.390644,1.72447817 242.390644,1.72447817 C242.915775,1.38999156 243.007311,0.939054063 242.773652,0.656598706 C242.511087,0.327067456 241.930553,-0.00246379367 241.188626,1.38849007e-05 L241.188626,1.38849007e-05 L241.188626,1.38849007e-05 L241.188626,1.38849007e-05 Z" id="Shape-Copy-5" fill="#C6E1FA" transform="translate(234.947473, 3.948864) scale(-1, 1) translate(-234.947473, -3.948864) "></path>
                            </g>
                        </g>
                    </g>
                </g>
            </g>
        </g>
    </g>
</svg>